<?xml version="1.0" encoding="utf-8"?>
<!-- Generator: Adobe Illustrator 22.1.0, SVG Export Plug-In . SVG Version: 6.00 Build 0)  -->
<svg version="1.1" id="Layer_1" xmlns="http://www.w3.org/2000/svg" xmlns:xlink="http://www.w3.org/1999/xlink" x="0px" y="0px"
	 viewBox="0 0 200 200" style="enable-background:new 0 0 200 200;" xml:space="preserve">
<style type="text/css">
	.st0{fill:#F6F2F9;}
	.st1{fill:#7182FF;}
</style>
<path class="st0" d="M69.6,131.4c25.2-0.4,70.1-1.1,88.2-1.4s46.2-14,37.9-46.1c-7.4-28.6-44.2-21.8-44.2-21.8s-4.8-53.3-66-37.1
	C48,35,54.8,80.8,54.8,80.8s-26.6,1.1-28,21.6C24.9,129.8,53.4,131.6,69.6,131.4z"/>
<path class="st1" d="M149.9,128.1v-13.8c16.9-5.2,26.3-23.1,21.1-40c-5.2-16.9-23.1-26.3-40-21.1c-1.2,0.4-2.5,0.8-3.7,1.4
	c-9.1-21.1-37.6-34.8-58.7-25.7c-15.2,6.6-21,25.5-21,42.1c0,1.5,0.1,3,0.2,4.5c-2.7-0.8-5.4-1.3-8.2-1.3c-13.2,0-24,9.3-24,20.8
	s10.7,20.8,24,20.8c1.6,0,3.2-0.1,4.8-0.4v12.2C26.4,132,8.3,121,3.8,103s6.6-36.1,24.5-40.6c2.4-0.6,4.8-0.9,7.3-1
	c2-39.5,33-55,63.1-46.8c16,5.2,26.8,13.6,35,25.5c24.1-5.4,48,9.9,53.4,34c5.4,24.1-9.9,48-34,53.4
	C152.1,127.7,151,128,149.9,128.1z M75.9,122.1c5.6,0,10.2,4.6,10.2,10.2s-4.6,10.2-10.2,10.2c-5.6,0-10.2-4.6-10.2-10.2
	C65.7,126.7,70.3,122.1,75.9,122.1L75.9,122.1z M60.4,160.2c5.1,0,9.3,4.2,9.3,9.3c0,5.1-4.2,9.3-9.3,9.3s-9.3-4.2-9.3-9.3
	C51.1,164.4,55.3,160.2,60.4,160.2L60.4,160.2z M105.5,160.2c5.1,0,9.3,4.2,9.3,9.3c0,5.1-4.2,9.3-9.3,9.3c-5.1,0-9.3-4.2-9.3-9.3
	C96.3,164.4,100.4,160.2,105.5,160.2L105.5,160.2z M124.1,122.1c5.6,0,10.2,4.6,10.2,10.2s-4.6,10.2-10.2,10.2
	c-5.6,0-10.2-4.6-10.2-10.2l0,0C113.9,126.7,118.4,122.1,124.1,122.1z"/>
</svg>
