<?xml version="1.0" standalone="no"?><!DOCTYPE svg PUBLIC "-//W3C//DTD SVG 1.1//EN" "http://www.w3.org/Graphics/SVG/1.1/DTD/svg11.dtd"><svg class="icon" width="200px" height="200.00px" viewBox="0 0 1024 1024" version="1.1" xmlns="http://www.w3.org/2000/svg"><path d="M661.944426 660.469781H337.16893a225.432403 225.432403 0 0 1-91.701317-430.668683 225.432403 225.432403 0 0 1 122.814264-168.664922 221.611515 221.611515 0 0 1 98.25141-22.925329 223.79488 223.79488 0 0 1 218.336468 175.760857 221.065674 221.065674 0 0 1 75.326082 28.929582 225.432403 225.432403 0 0 1 108.076551 192.681933q0 11.462665-1.091682 22.379488h2.729206a101.526458 101.526458 0 0 1 0 203.052915h-137.551975" fill="#D2F7FF" /><path d="M869.364071 652.828004a103.163981 103.163981 0 0 0-76.963605-171.394127h-2.729206q1.091682-11.462665 1.091682-22.925329A229.253291 229.253291 0 0 0 681.048867 262.551568a225.978244 225.978244 0 0 0-76.417764-29.475423 227.615768 227.615768 0 0 0-289.29582-168.664922 226.524086 226.524086 0 0 1 344.971619 139.73534 224.886562 224.886562 0 0 1 75.871923 28.929582 227.069927 227.069927 0 0 1 109.168234 194.319456q0 11.462665-1.091682 22.379488h2.729206a102.61814 102.61814 0 0 1 21.833646 202.507074z" fill="#9CEDFF" /><path d="M902.114541 630.994358a103.163981 103.163981 0 0 0-76.963605-171.394128h-2.729206q1.091682-11.462665 1.091682-22.925329A229.253291 229.253291 0 0 0 713.799337 240.717921a225.978244 225.978244 0 0 0-76.417764-29.475423A227.615768 227.615768 0 0 0 348.085753 42.577576a226.524086 226.524086 0 0 1 344.97162 139.73534 224.886562 224.886562 0 0 1 75.871922 28.929582 227.069927 227.069927 0 0 1 109.168234 194.319456q0 11.462665-1.091682 22.379488h2.729206a102.61814 102.61814 0 0 1 21.833647 202.507074z" fill="#32B7FF" /><path d="M830.063506 671.386604h-55.675799a21.833647 21.833647 0 0 1 0-43.667293h55.675799a80.511573 80.511573 0 0 0 0-161.023146h-2.183364a21.833647 21.833647 0 0 1-22.379488-24.017011c0.545841-6.550094 1.091682-13.646029 1.091682-20.196123a204.144598 204.144598 0 0 0-17.466917-83.513699 21.833647 21.833647 0 0 1 39.846405-17.466918 247.811891 247.811891 0 0 1 21.287806 100.980617v2.183364a123.905946 123.905946 0 0 1-20.196124 246.720209z m-479.248547 0h-60.042529a248.903574 248.903574 0 0 1-112.443281-471.06093 249.449415 249.449415 0 0 1 44.758976-100.434775 21.833647 21.833647 0 0 1 34.933835 26.200376 205.782121 205.782121 0 0 0-38.208882 92.247158 21.833647 21.833647 0 0 1-12.554347 16.375235 205.23628 205.23628 0 0 0 83.513699 393.005643h60.042529a21.833647 21.833647 0 0 1 0 43.667293z m408.289195-390.822278a21.833647 21.833647 0 0 1-15.283552-6.004252 205.782121 205.782121 0 0 0-36.025518-27.8379 21.833647 21.833647 0 0 1 22.925329-37.1172 249.449415 249.449415 0 0 1 44.213135 33.842153 21.833647 21.833647 0 0 1-15.283553 37.663041zM642.839985 221.067639a21.833647 21.833647 0 0 1-21.287806-16.921076A206.327962 206.327962 0 0 0 422.320152 43.669259a201.961233 201.961233 0 0 0-90.063793 20.741964 21.850022 21.850022 0 0 1-19.104441-39.300564 245.628527 245.628527 0 0 1 109.168234-25.108694A249.995256 249.995256 0 0 1 664.673632 194.321422a21.833647 21.833647 0 0 1-16.375235 26.200376z"  /><path d="M323.522901 319.319049m-24.562853 0a24.562853 24.562853 0 1 0 49.125705 0 24.562853 24.562853 0 1 0-49.125705 0Z"  /><path d="M552.776192 319.319049m-24.562853 0a24.562853 24.562853 0 1 0 49.125706 0 24.562853 24.562853 0 1 0-49.125706 0Z"  /><path d="M438.149546 444.862519m-62.771734 0a62.771735 62.771735 0 1 0 125.543469 0 62.771735 62.771735 0 1 0-125.543469 0Z" fill="#FF8472" /><path d="M438.149546 518.551077A73.688558 73.688558 0 1 1 511.838104 444.862519 73.688558 73.688558 0 0 1 438.149546 518.551077z m0-125.54347a51.854911 51.854911 0 1 0 51.854911 51.854912 51.854911 51.854911 0 0 0-51.854911-51.854912z"  /><path d="M211.625461 442.133313m-32.75047 0a32.75047 32.75047 0 1 0 65.50094 0 32.75047 32.75047 0 1 0-65.50094 0Z" fill="#FAD700" /><path d="M631.923162 442.133313m-32.750471 0a32.75047 32.75047 0 1 0 65.500941 0 32.75047 32.75047 0 1 0-65.500941 0Z" fill="#FAD700" /><path d="M623.189703 683.940951h-37.1172a4.912571 4.912571 0 0 1-4.366729-2.183365l-18.5586-32.204629a4.912571 4.912571 0 0 1 0-4.91257l18.5586-32.204629a4.912571 4.912571 0 0 1 4.366729-2.729206h37.1172a4.912571 4.912571 0 0 1 4.366729 2.729206l18.5586 32.204629a4.912571 4.912571 0 0 1 0 4.91257l-18.5586 32.204629a4.912571 4.912571 0 0 1-4.366729 2.183365z m-34.387994-9.825141h31.658788l15.829394-27.292058-15.829394-27.292059h-31.658788l-15.829394 27.292059 15.829394 27.292058z" fill="#32B7FF" /><path d="M623.189703 686.124316h-37.1172a7.641776 7.641776 0 0 1-6.550094-3.820888l-18.558599-31.658788a7.641776 7.641776 0 0 1 0-7.641777l18.558599-32.204629a7.641776 7.641776 0 0 1 6.550094-3.820888h37.1172a7.641776 7.641776 0 0 1 6.550094 3.820888l18.5586 32.204629a7.641776 7.641776 0 0 1 0 7.641777l-18.5586 32.204629a7.641776 7.641776 0 0 1-6.550094 3.275047z m-37.1172-73.688558l-1.637523 1.091682-18.5586 32.204629a2.183365 2.183365 0 0 0 0 2.183365l18.5586 32.204629 1.637523 1.091682h37.1172l1.637523-1.091682 18.5586-32.204629a2.183365 2.183365 0 0 0 0-2.183365l-18.5586-32.204629-1.637523-1.091682z m36.025518 63.863417h-34.933835l-17.466918-30.021265 17.466918-30.021264h34.387993l17.466918 30.021264z m-31.658788-5.458412h28.383741l14.19187-24.562853-14.19187-24.562852h-28.383741l-14.191871 24.562852z" fill="#32B7FF" /><path d="M678.865502 715.599739h-37.117199a4.912571 4.912571 0 0 1-4.36673-2.183365l-18.558599-32.204629a4.912571 4.912571 0 0 1 0-4.91257l18.558599-32.204629a4.912571 4.912571 0 0 1 4.36673-2.183365h37.117199a4.912571 4.912571 0 0 1 4.36673 2.183365l18.558599 32.204629a5.010822 5.010822 0 0 1-8.733458 4.91257l-16.921077-29.475423h-31.658787l-15.829394 27.292059 15.829394 27.292058h34.387993a4.912571 4.912571 0 1 1 0 9.825141" fill="#32B7FF" /><path d="M678.865502 718.328945h-37.117199a7.641776 7.641776 0 0 1-6.550094-3.820888l-18.5586-32.204629a7.641776 7.641776 0 0 1 0-7.641777l18.5586-32.204629a7.641776 7.641776 0 0 1 6.550094-3.820888h37.117199a7.641776 7.641776 0 0 1 6.550094 3.820888l18.5586 32.204629a7.641776 7.641776 0 0 1-2.729206 10.370982 7.641776 7.641776 0 0 1-10.370982-2.729205l-16.375235-28.383741h-28.383741l-14.19187 24.562852 14.19187 24.562853h32.75047a7.641776 7.641776 0 1 1 0 15.283553z m-37.117199-73.688558l-1.637524 1.091682-18.5586 32.204629a2.183365 2.183365 0 0 0 0 2.183365l18.5586 32.204629 1.637524 1.091682h37.117199a2.183365 2.183365 0 1 0 0-4.366729H642.839985l-17.466917-30.021264 17.466917-30.021265h34.387994l18.012758 31.112947a2.183365 2.183365 0 0 0 3.275047 0.545841l1.091683-1.091682a2.183365 2.183365 0 0 0 0-1.637524l-18.5586-32.204629-1.637524-1.091682zM567.513904 715.599739h-37.1172a4.912571 4.912571 0 1 1 0-9.825141h34.387994l15.829394-27.292059-15.829394-27.292058h-31.658788l-16.921076 29.475423a5.010822 5.010822 0 0 1-8.733459-4.91257l18.5586-32.20463a4.912571 4.912571 0 0 1 4.366729-2.183364h37.1172a4.912571 4.912571 0 0 1 4.366729 2.183364l18.5586 32.20463a4.912571 4.912571 0 0 1 0 4.91257l-18.5586 32.75047a4.912571 4.912571 0 0 1-4.366729 2.183365" fill="#32B7FF" /><path d="M567.513904 718.328945h-37.1172a7.641776 7.641776 0 1 1 0-15.283553h32.75047l14.191871-24.562853-14.191871-24.562852h-28.383741l-16.375235 28.383741a7.641776 7.641776 0 0 1-14.19187-1.637524 7.641776 7.641776 0 0 1 0.545841-6.004253l18.5586-32.204629a7.641776 7.641776 0 0 1 6.550094-3.820888h37.117199a7.641776 7.641776 0 0 1 6.550094 3.820888l18.5586 32.204629a7.641776 7.641776 0 0 1 0 7.641777l-18.5586 32.204629a7.641776 7.641776 0 0 1-6.004252 3.820888z m-37.1172-9.825141a2.183365 2.183365 0 1 0 0 4.366729h37.1172l1.637523-1.091682 18.5586-32.204629a2.183365 2.183365 0 0 0 0-2.183365l-18.5586-32.204629-1.637523-1.091682h-37.1172l-1.637523 1.091682-18.5586 32.204629a2.183365 2.183365 0 0 0 0 1.637524l1.091682 1.091682a2.183365 2.183365 0 0 0 3.275047-0.545841l18.012759-31.112947H566.422221l17.466918 30.021264-17.466918 30.021265z" fill="#32B7FF" /><path d="M623.189703 747.804368h-2.729206a4.912571 4.912571 0 0 1-1.637523-6.550094l16.921076-29.475423-15.829394-27.292059H588.255868l-15.829394 27.292059 16.921076 29.475423a5.010822 5.010822 0 0 1-8.733458 4.91257l-18.5586-32.204629a4.912571 4.912571 0 0 1 0-4.91257l18.5586-32.204629a4.912571 4.912571 0 0 1 4.366729-2.183365h37.1172a4.912571 4.912571 0 0 1 4.366729 2.183365l18.5586 32.204629a4.912571 4.912571 0 0 1 0 4.91257l-18.5586 32.204629a4.912571 4.912571 0 0 1-4.366729 2.183365" fill="#32B7FF" /><path d="M623.189703 750.533574l-3.820888-1.091683a7.641776 7.641776 0 0 1-2.729206-10.370982l16.375235-28.383741-14.19187-24.562852h-28.383741l-14.191871 24.562852 16.375235 28.383741a7.641776 7.641776 0 0 1-2.729205 10.370982 7.641776 7.641776 0 0 1-10.370983-2.729205l-18.558599-32.204629a7.641776 7.641776 0 0 1 0-7.641777l18.558599-32.204629a7.641776 7.641776 0 0 1 6.550094-3.820888h37.1172a7.641776 7.641776 0 0 1 6.550094 3.820888l18.5586 32.204629a7.641776 7.641776 0 0 1 0 7.641777l-18.5586 32.204629a7.641776 7.641776 0 0 1-6.550094 3.820888zM586.072503 676.845016l-1.637523 1.091682-19.104441 31.658788a2.183365 2.183365 0 0 0 0 2.183365l18.5586 32.204629a2.183365 2.183365 0 0 0 3.275047 0.545841l1.091682-1.091682a2.183365 2.183365 0 0 0 0-1.637524l-18.012759-31.112947 17.466918-30.021264h34.387994l17.466917 30.021264-18.012759 31.112947a2.183365 2.183365 0 0 0 0 1.637524l1.091683 1.091682a2.183365 2.183365 0 0 0 2.729206-0.545841l18.558599-32.204629a2.183365 2.183365 0 0 0 0-2.183365l-18.558599-32.204629-1.637524-1.091682z" fill="#32B7FF" /><path d="M678.865502 651.736322h-37.117199a4.912571 4.912571 0 0 1-4.36673-2.183365l-18.558599-32.204629a4.912571 4.912571 0 0 1 0-4.91257l18.558599-32.204629a4.912571 4.912571 0 0 1 4.36673-2.183365h37.117199a4.912571 4.912571 0 1 1 0 9.825141h-34.387993l-15.829394 27.292059 15.829394 27.292058h31.658787l16.921077-29.475423a5.010822 5.010822 0 0 1 8.733458 4.91257l-18.558599 32.20463a4.912571 4.912571 0 0 1-4.36673 2.183364" fill="#32B7FF" /><path d="M678.865502 654.465528h-37.117199a7.641776 7.641776 0 0 1-6.550094-3.820888l-18.5586-32.204629a7.641776 7.641776 0 0 1 0-7.641777l18.5586-32.204629a7.641776 7.641776 0 0 1 6.550094-3.820888h37.117199a7.641776 7.641776 0 1 1 0 15.283553h-32.75047l-14.19187 24.562852 14.19187 24.562853h28.383741l16.375235-28.383741a7.641776 7.641776 0 0 1 10.370982-2.729206 7.641776 7.641776 0 0 1 2.729206 10.370983l-18.5586 32.204629a7.641776 7.641776 0 0 1-6.550094 3.820888z m-37.117199-73.688558l-1.637524 1.091682-18.5586 32.204629a2.183365 2.183365 0 0 0 0 2.183365l18.5586 32.204629 1.637524 1.091682h37.117199l1.637524-1.091682 18.5586-32.204629a2.183365 2.183365 0 0 0 0-1.637524l-1.091683-1.091682a2.183365 2.183365 0 0 0-3.275047 0.545841l-18.012758 31.112947h-34.387994l-17.466918-30.021264 17.466918-30.021265h36.025517a2.183365 2.183365 0 1 0 0-4.366729z" fill="#32B7FF" /><path d="M623.735544 620.077534h-37.117199a4.912571 4.912571 0 0 1-4.36673-2.183365l-18.5586-32.204629a4.912571 4.912571 0 0 1 0-4.91257l18.5586-32.204629a5.010822 5.010822 0 0 1 8.733459 4.91257l-16.921076 29.475424 15.829394 27.292058h31.658787l15.829394-27.292058-16.921076-29.475424a5.010822 5.010822 0 0 1 8.733459-4.91257l18.5586 32.204629a4.912571 4.912571 0 0 1 0 4.91257l-18.5586 32.204629a4.912571 4.912571 0 0 1-4.36673 2.183365" fill="#32B7FF" /><path d="M623.735544 622.80674h-37.117199a7.641776 7.641776 0 0 1-6.550095-3.820888l-19.10444-32.204629a7.641776 7.641776 0 0 1 0-7.641777l18.558599-32.204629a7.641776 7.641776 0 1 1 13.100188 7.641777l-16.375235 28.383741 14.191871 24.562852h28.383741l14.19187-24.562852-16.375235-28.383741a7.641776 7.641776 0 0 1 13.100188-7.641777l18.5586 32.204629a7.641776 7.641776 0 0 1 0 7.641777l-18.5586 32.204629a7.641776 7.641776 0 0 1-6.004253 3.820888z m-37.117199-73.688558h-0.545842l-1.091682 1.091682-18.5586 32.204629a2.183365 2.183365 0 0 0 0 2.183365l18.5586 32.204629 1.637524 1.091682h37.117199l1.637524-1.091682 18.558599-32.204629a2.183365 2.183365 0 0 0 0-2.183365l-18.558599-32.204629a2.183365 2.183365 0 0 0-2.729206-0.545841l-1.091683 1.091683a2.183365 2.183365 0 0 0 0 1.637523l18.012759 31.112947-17.466917 30.021264h-34.387994l-17.466918-30.021264 18.012759-31.112947a2.183365 2.183365 0 0 0 0-1.637523l-1.091682-1.091683z" fill="#32B7FF" /><path d="M567.513904 651.736322h-37.1172a4.912571 4.912571 0 0 1-4.366729-2.183365l-18.5586-32.204629a5.010822 5.010822 0 0 1 8.733459-4.91257l16.921076 29.475423h31.658788l15.829394-27.292059-15.829394-27.292058h-34.387994a4.912571 4.912571 0 1 1 0-9.825141h37.1172a4.912571 4.912571 0 0 1 4.366729 2.183365l18.5586 32.204629a4.912571 4.912571 0 0 1 0 4.91257l-18.5586 32.75047a4.912571 4.912571 0 0 1-4.366729 2.183365" fill="#32B7FF" /><path d="M567.513904 654.465528h-37.1172a7.641776 7.641776 0 0 1-6.550094-3.820888l-18.5586-32.204629a7.641776 7.641776 0 0 1 2.729206-10.370983 7.641776 7.641776 0 0 1 10.370982 2.729206l16.375235 28.383741h28.383741l14.191871-24.562853-14.191871-24.562852h-32.75047a7.641776 7.641776 0 1 1 0-15.283553h37.1172a7.641776 7.641776 0 0 1 6.550094 3.820888l18.558599 32.204629a7.641776 7.641776 0 0 1 0 7.641777l-18.558599 32.204629a7.641776 7.641776 0 0 1-6.550094 3.820888zM511.838104 612.435758h-1.091682l-1.091682 1.091682a2.183365 2.183365 0 0 0 0 1.637524l18.558599 32.204629 1.637524 1.091682h37.117199l2.183365-1.091682 18.5586-32.204629a2.183365 2.183365 0 0 0 0-2.183365l-18.5586-32.204629-1.637523-1.091682h-37.1172a2.183365 2.183365 0 1 0 0 4.366729H566.422221l17.466918 30.021264L566.422221 644.094546h-34.933835l-18.012758-31.112947z" fill="#32B7FF" /><path d="M437.603705 798.567597h-37.117199a4.912571 4.912571 0 0 1-4.36673-2.183365l-18.5586-32.204629a4.912571 4.912571 0 0 1 0-4.91257l18.5586-32.204629a4.912571 4.912571 0 0 1 4.36673-2.729206h37.117199a4.912571 4.912571 0 0 1 4.366729 2.729206l18.5586 32.204629a4.912571 4.912571 0 0 1 0 4.91257l-18.5586 32.204629a4.912571 4.912571 0 0 1-4.366729 2.183365z m-34.387994-9.825141h31.658788l15.829394-27.292059-15.829394-27.292058h-31.658788l-15.829394 27.292058 15.829394 27.292059z" fill="#FAD700" /><path d="M437.603705 800.750961h-37.117199a7.641776 7.641776 0 0 1-6.550094-3.820888l-18.5586-31.658788a7.641776 7.641776 0 0 1 0-7.641776l18.5586-32.204629a7.641776 7.641776 0 0 1 6.550094-3.820888h37.117199a7.641776 7.641776 0 0 1 6.550094 3.820888l18.5586 32.204629a7.641776 7.641776 0 0 1 0 7.641776l-18.5586 32.204629a7.641776 7.641776 0 0 1-6.550094 3.275047z m-37.117199-73.688557l-1.637524 1.091682-18.5586 32.204629a2.183365 2.183365 0 0 0 0 2.183365l18.5586 32.204629 1.637524 1.091682h37.117199l1.637524-1.091682 18.558599-32.204629a2.183365 2.183365 0 0 0 0-2.183365l-18.558599-32.204629-1.637524-1.091682z m36.025517 64.409258h-34.933835l-17.466918-30.021265 17.466918-30.021264h34.387994l17.466917 30.021264z m-31.658788-5.458412h28.383741l14.19187-24.562853-14.19187-24.562852h-28.383741l-14.191871 24.562852z" fill="#FAD700" /><path d="M493.279504 830.226385h-37.117199a4.912571 4.912571 0 0 1-4.366729-2.183365l-18.5586-32.204629a4.912571 4.912571 0 0 1 0-4.912571L451.795576 758.721191a4.912571 4.912571 0 0 1 4.366729-2.183364h37.117199a4.912571 4.912571 0 0 1 4.36673 2.183364l18.5586 32.204629a5.010822 5.010822 0 0 1-8.733459 4.912571l-16.921076-29.475423h-31.112947l-15.829394 27.292058 15.829394 27.292059h34.387994a4.912571 4.912571 0 1 1 0 9.825141" fill="#FAD700" /><path d="M493.279504 832.95559h-37.117199a7.641776 7.641776 0 0 1-6.550094-3.820888l-18.5586-32.204629a7.641776 7.641776 0 0 1 0-7.641776l18.5586-32.204629a7.641776 7.641776 0 0 1 6.550094-3.820888h37.117199a7.641776 7.641776 0 0 1 6.550095 3.820888l18.558599 32.204629a7.641776 7.641776 0 0 1-13.100188 7.641776l-16.375235-28.383741h-28.383741l-14.19187 25.108694 14.19187 24.562853h32.75047a7.641776 7.641776 0 1 1 0 15.283553z m-37.117199-73.688557l-1.637524 1.091682-18.558599 32.204629a2.183365 2.183365 0 0 0 0 2.183365l18.558599 32.204629 1.637524 1.091682h37.117199a2.183365 2.183365 0 1 0 0-4.366729h-35.479676l-17.466917-30.021265 17.466917-30.021264h34.387994l18.012759 31.112947a2.183365 2.183365 0 0 0 3.275047 0.545841l1.091682-1.091683a2.183365 2.183365 0 0 0 0-1.637523l-19.104441-32.204629-1.637523-1.091682z" fill="#FAD700" /><path d="M381.927906 830.226385h-37.1172a4.912571 4.912571 0 1 1 0-9.825141h34.387994l15.829394-27.292059-15.829394-27.292058h-31.658788l-16.921076 29.475423a5.010822 5.010822 0 0 1-8.733459-4.912571l18.5586-32.204629a4.912571 4.912571 0 0 1 4.366729-2.183364h37.1172a4.912571 4.912571 0 0 1 4.366729 2.183364l18.5586 32.204629a4.912571 4.912571 0 0 1 0 4.912571l-18.5586 32.75047a4.912571 4.912571 0 0 1-4.366729 2.183365" fill="#FAD700" /><path d="M381.927906 832.95559h-37.1172a7.641776 7.641776 0 1 1 0-15.283552h32.75047l14.191871-24.562853-14.191871-24.562853h-28.38374l-16.375236 28.383741a7.641776 7.641776 0 0 1-14.19187-1.637523 7.641776 7.641776 0 0 1 0.545841-6.004253l18.5586-32.204629a7.641776 7.641776 0 0 1 6.550094-3.820888h37.1172a7.641776 7.641776 0 0 1 6.550094 3.820888l18.558599 32.204629a7.641776 7.641776 0 0 1 0 7.641776l-18.558599 32.204629a7.641776 7.641776 0 0 1-6.004253 3.820888z m-37.1172-9.825141a2.183365 2.183365 0 1 0 0 4.36673h37.1172l1.637523-1.091683 18.5586-32.204629a2.183365 2.183365 0 0 0 0-2.183364l-18.5586-32.204629-1.637523-1.091683h-37.1172l-1.637523 1.091683-18.5586 32.204629a2.183365 2.183365 0 0 0 0 1.637523l1.091682 1.091683a2.183365 2.183365 0 0 0 3.275047-0.545842l18.012759-31.112946H380.836223l17.466918 30.021264-17.466918 30.021264z" fill="#FAD700" /><path d="M437.603705 862.431014h-2.729206a4.912571 4.912571 0 0 1-1.637523-6.550094l16.921076-29.475424-15.829394-27.292058h-31.112947l-15.829394 27.292058 16.921077 29.475424a5.010822 5.010822 0 0 1-8.733459 4.91257l-18.5586-32.204629a4.912571 4.912571 0 0 1 0-4.91257l18.5586-32.204629a4.912571 4.912571 0 0 1 4.366729-2.183365h37.1172a4.912571 4.912571 0 0 1 4.366729 2.183365l18.5586 32.204629a4.912571 4.912571 0 0 1 0 4.91257l-18.5586 32.204629a4.912571 4.912571 0 0 1-4.366729 2.183365" fill="#FAD700" /><path d="M437.603705 865.16022l-3.820888-1.091683a7.641776 7.641776 0 0 1-2.729206-10.370982l16.375235-28.383741-14.19187-24.562853h-28.383741l-14.191871 24.562853 16.375236 28.383741a7.641776 7.641776 0 0 1-2.729206 10.370982 7.641776 7.641776 0 0 1-10.370982-2.729206l-18.5586-32.204629a7.641776 7.641776 0 0 1 0-7.641776l18.5586-32.204629a7.641776 7.641776 0 0 1 6.550094-3.820888h37.117199a7.641776 7.641776 0 0 1 6.550094 3.820888l18.5586 32.204629a7.641776 7.641776 0 0 1 0 7.641776l-18.5586 32.204629a7.641776 7.641776 0 0 1-6.550094 3.820889zM400.486506 791.471662l-1.637524 1.091682-19.104441 31.658788a2.183365 2.183365 0 0 0 0 2.183364l18.5586 32.204629a2.183365 2.183365 0 0 0 2.729206 0.545842l1.091682-1.091683a2.183365 2.183365 0 0 0 0-1.637523l-18.012759-31.112947 17.466918-30.021264h34.387994l17.466917 30.021264-18.012759 31.112947a2.183365 2.183365 0 0 0 0 1.637523l1.091683 1.091683a2.183365 2.183365 0 0 0 2.729206-0.545842l18.558599-32.204629a2.183365 2.183365 0 0 0 0-2.183364l-18.558599-32.204629-1.637524-1.091683z" fill="#FAD700" /><path d="M493.279504 766.362968h-37.117199a4.912571 4.912571 0 0 1-4.366729-2.183365l-18.5586-32.204629a4.912571 4.912571 0 0 1 0-4.91257l18.5586-32.20463a4.912571 4.912571 0 0 1 4.366729-2.183364h37.117199a4.912571 4.912571 0 1 1 0 9.825141h-33.842152l-15.829394 27.292058 15.829394 27.292059h31.658788l16.921076-29.475423a5.010822 5.010822 0 0 1 8.733459 4.91257l-18.5586 32.204629a4.912571 4.912571 0 0 1-4.366729 2.183365" fill="#FAD700" /><path d="M493.279504 769.092174h-37.117199a7.641776 7.641776 0 0 1-6.550094-3.820889l-18.5586-32.204629a7.641776 7.641776 0 0 1 0-7.641776l18.5586-32.204629a7.641776 7.641776 0 0 1 6.550094-3.820888h37.117199a7.641776 7.641776 0 1 1 0 15.283553h-32.75047l-14.19187 24.562852 14.19187 24.562853h28.383741l16.375235-28.383741a7.641776 7.641776 0 0 1 10.370982-2.729206 7.641776 7.641776 0 0 1 2.729206 10.370982l-18.558599 32.204629a7.641776 7.641776 0 0 1-6.550095 3.820889z m-37.117199-73.688558l-1.637524 1.091682-18.558599 32.204629a2.183365 2.183365 0 0 0 0 2.183365l18.558599 32.204629 1.637524 1.091682h37.117199l1.637524-1.091682 18.5586-32.204629a2.183365 2.183365 0 0 0 0-1.637524l-1.091683-1.091682a2.183365 2.183365 0 0 0-3.275047 0.545841l-18.012758 31.112947h-33.296312l-17.466917-30.021265 17.466917-30.021264h36.025518a2.183365 2.183365 0 1 0 0-4.366729z" fill="#FAD700" /><path d="M438.149546 734.70418h-37.117199a4.912571 4.912571 0 0 1-4.36673-2.183365l-18.558599-32.204629a4.912571 4.912571 0 0 1 0-4.91257l18.558599-32.204629a5.010822 5.010822 0 0 1 8.733459 4.91257l-16.921076 29.475423 15.829394 27.292059h31.658788l15.829394-27.292059-16.921077-29.475423a5.010822 5.010822 0 0 1 8.733459-4.91257l18.5586 32.204629a4.912571 4.912571 0 0 1 0 4.91257l-18.5586 32.204629a4.912571 4.912571 0 0 1-4.366729 2.183365" fill="#FAD700" /><path d="M438.149546 737.433386h-37.117199a7.641776 7.641776 0 0 1-6.550094-3.820888l-19.104441-32.204629a7.641776 7.641776 0 0 1 0-7.641777l18.5586-32.204629a7.641776 7.641776 0 0 1 10.370982-2.729206 7.641776 7.641776 0 0 1 2.729206 10.370982l-16.375236 28.383741 14.191871 24.562853h28.383741l14.19187-24.562853-16.375235-28.383741a7.641776 7.641776 0 0 1 2.729206-10.370982 7.641776 7.641776 0 0 1 10.370982 2.729206l18.5586 32.204629a7.641776 7.641776 0 0 1 0 7.641777l-18.5586 32.204629a7.641776 7.641776 0 0 1-6.004253 3.820888z m-37.117199-73.688558l-1.637524 1.091682-18.5586 32.204629a2.183365 2.183365 0 0 0 0 2.183365l18.5586 32.204629 1.637524 1.091682h37.117199l1.637524-1.091682 18.5586-32.204629a2.183365 2.183365 0 0 0 0-2.183365l-18.5586-32.204629a2.183365 2.183365 0 0 0-3.275047-0.545841l-1.091683 1.091682a2.183365 2.183365 0 0 0 0 1.637524l18.012759 31.112946-17.466917 30.021265h-33.842153l-17.466917-30.021265 18.012758-31.112946a2.183365 2.183365 0 0 0 0-1.637524l-1.091682-1.091682z" fill="#FAD700" /><path d="M381.927906 766.362968h-37.1172a4.912571 4.912571 0 0 1-4.366729-2.183365l-18.5586-32.204629a5.010822 5.010822 0 0 1 8.733459-4.91257l16.921076 29.475423h31.658788l15.829394-27.292059-15.829394-27.292058h-34.387994a4.912571 4.912571 0 1 1 0-9.825141h37.1172a4.912571 4.912571 0 0 1 4.366729 2.183364l18.5586 32.204629a4.912571 4.912571 0 0 1 0 4.912571l-18.5586 32.75047a4.912571 4.912571 0 0 1-4.366729 2.183365" fill="#FAD700" /><path d="M381.927906 769.092174h-37.1172a7.641776 7.641776 0 0 1-6.550094-3.820889l-18.5586-32.204629a7.641776 7.641776 0 0 1 2.729206-10.370982 7.641776 7.641776 0 0 1 10.370982 2.729206l16.375236 28.383741h28.38374l14.191871-24.562853-14.191871-24.562852h-32.75047a7.641776 7.641776 0 1 1 0-15.283553h37.1172a7.641776 7.641776 0 0 1 6.550094 3.820888l18.5586 32.204629a7.641776 7.641776 0 0 1 0 7.641776l-18.5586 32.204629a7.641776 7.641776 0 0 1-6.550094 3.820889zM326.252106 727.062404h-1.091682l-1.091682 1.091682a2.183365 2.183365 0 0 0 0 1.637523l18.5586 32.204629 1.637523 1.091683h37.1172l1.637523-1.091683 18.5586-32.204629a2.183365 2.183365 0 0 0 0-2.183364l-18.5586-32.204629-1.637523-1.091683h-36.571359a2.183365 2.183365 0 1 0 0 4.36673H380.836223l17.466918 30.021264L380.836223 758.721191h-34.933834l-18.012759-31.112946z" fill="#FAD700" /><path d="M617.731291 689.399363h-37.117199a4.912571 4.912571 0 0 1-4.36673-2.183365l-18.558599-32.204629a4.912571 4.912571 0 0 1 0-4.91257l18.558599-32.20463a4.912571 4.912571 0 0 1 4.36673-2.729205h37.117199a4.912571 4.912571 0 0 1 4.36673 2.729205l18.558599 32.20463a4.912571 4.912571 0 0 1 0 4.91257l-18.558599 32.204629a4.912571 4.912571 0 0 1-4.36673 2.183365z m-34.387993-9.825141h31.658787l15.829394-27.292059-15.829394-27.292058h-31.658787l-15.829394 27.292058 15.829394 27.292059z"  /><path d="M617.731291 691.582727h-37.117199a7.641776 7.641776 0 0 1-6.550094-3.820888l-18.5586-31.658788a7.641776 7.641776 0 0 1 0-7.641776l18.5586-32.204629a7.641776 7.641776 0 0 1 6.550094-3.820888h37.117199a7.641776 7.641776 0 0 1 6.550094 3.820888l18.5586 32.204629a7.641776 7.641776 0 0 1 0 7.641776l-18.5586 32.204629a7.641776 7.641776 0 0 1-6.550094 3.275047z m-37.117199-73.688558l-1.637524 1.091683-18.5586 32.204629a2.183365 2.183365 0 0 0 0 2.183365l18.5586 32.204629 1.637524 1.091682h37.117199l1.637524-1.091682 18.5586-32.204629a2.183365 2.183365 0 0 0 0-2.183365l-18.5586-32.204629-1.637524-1.091683z m36.025517 63.863417h-34.933835l-17.466917-30.021264 17.466917-30.021264h34.387994l17.466917 30.021264z m-31.658788-5.458411h28.383741l14.19187-24.562853-14.19187-24.562853h-28.383741l-14.19187 24.562853z"  /><path d="M673.407091 721.058151h-37.1172a4.912571 4.912571 0 0 1-4.366729-2.183365l-18.5586-32.204629a4.912571 4.912571 0 0 1 0-4.912571l18.5586-32.204629a4.912571 4.912571 0 0 1 4.366729-2.183364h37.1172a4.912571 4.912571 0 0 1 4.366729 2.183364l18.5586 32.204629a5.010822 5.010822 0 0 1-8.733459 4.912571l-16.921076-29.475423h-31.658788l-15.829394 27.292058 15.829394 27.292059h34.387994a4.912571 4.912571 0 1 1 0 9.825141"  /><path d="M673.407091 723.787356h-37.1172a7.641776 7.641776 0 0 1-6.550094-3.820888l-18.5586-32.204629a7.641776 7.641776 0 0 1 0-7.641776l18.5586-32.204629a7.641776 7.641776 0 0 1 6.550094-3.820888h37.1172a7.641776 7.641776 0 0 1 6.550094 3.820888l18.558599 32.204629a7.641776 7.641776 0 0 1-13.100188 7.641776l-16.375235-28.383741h-28.383741l-14.19187 24.562853 14.19187 24.562853h32.750471a7.641776 7.641776 0 1 1 0 15.283552z m-37.1172-73.688557l-1.637523 1.091682-18.5586 32.204629a2.183365 2.183365 0 0 0 0 2.183365l18.5586 32.204629 1.637523 1.091682h37.1172a2.183365 2.183365 0 1 0 0-4.366729H637.381573l-17.466917-30.021265 17.466917-30.021264h34.387994l18.012759 31.112947a2.183365 2.183365 0 0 0 3.275047 0.545841l1.091682-1.091683a2.183365 2.183365 0 0 0 0-1.637523l-18.5586-32.204629-1.637523-1.091682z"  /><path d="M562.055492 721.058151h-37.1172a4.912571 4.912571 0 1 1 0-9.825141h34.387994l15.829394-27.292059-15.829394-27.292058h-31.658788l-16.921076 29.475423a5.010822 5.010822 0 0 1-8.733459-4.912571l18.5586-32.204629a4.912571 4.912571 0 0 1 4.366729-2.183364h37.1172a4.912571 4.912571 0 0 1 4.366729 2.183364l18.5586 32.204629a4.912571 4.912571 0 0 1 0 4.912571l-18.5586 32.75047a4.912571 4.912571 0 0 1-4.366729 2.183365"  /><path d="M562.055492 723.787356h-37.1172a7.641776 7.641776 0 1 1 0-15.283552h32.750471l14.19187-24.562853-14.19187-24.562853h-28.383741l-16.375235 28.383741a7.641776 7.641776 0 0 1-14.191871-1.637523 7.641776 7.641776 0 0 1 0.545841-6.004253l18.5586-32.204629a7.641776 7.641776 0 0 1 6.550094-3.820888h37.1172a7.641776 7.641776 0 0 1 6.550094 3.820888l18.5586 32.204629a7.641776 7.641776 0 0 1 0 7.641776l-18.5586 32.204629a7.641776 7.641776 0 0 1-6.004253 3.820888z m-37.1172-9.825141a2.183365 2.183365 0 1 0 0 4.36673h37.1172l1.637523-1.091683 18.5586-32.204629a2.183365 2.183365 0 0 0 0-2.183364l-18.5586-32.204629-1.637523-1.091683h-37.1172l-1.637523 1.091683-18.5586 32.204629a2.183365 2.183365 0 0 0 0 1.637523l1.091682 1.091683a2.183365 2.183365 0 0 0 3.275047-0.545842l18.012759-31.112946H560.96381l17.466917 30.021264-17.466917 30.021264z"  /><path d="M617.731291 753.26278h-2.729206a4.912571 4.912571 0 0 1-1.637523-6.550094l16.921076-29.475424-15.829394-27.292058h-31.112946l-15.829394 27.292058 16.921076 29.475424a5.010822 5.010822 0 0 1-8.733459 4.91257l-18.5586-32.204629a4.912571 4.912571 0 0 1 0-4.91257l18.5586-32.204629a4.912571 4.912571 0 0 1 4.366729-2.183365h37.1172a4.912571 4.912571 0 0 1 4.366729 2.183365l18.5586 32.204629a4.912571 4.912571 0 0 1 0 4.91257l-18.5586 32.204629a4.912571 4.912571 0 0 1-4.366729 2.183365"  /><path d="M617.731291 755.991986l-3.820888-1.091683a7.641776 7.641776 0 0 1-2.729206-10.370982l16.375235-28.383741-14.19187-24.562853h-28.383741l-14.19187 24.562853 16.375235 28.383741a7.641776 7.641776 0 0 1-2.729206 10.370982 7.641776 7.641776 0 0 1-10.370982-2.729206l-18.5586-32.204629a7.641776 7.641776 0 0 1 0-7.641776l18.5586-32.204629a7.641776 7.641776 0 0 1 6.550094-3.820888h37.117199a7.641776 7.641776 0 0 1 6.550094 3.820888l18.5586 32.204629a7.641776 7.641776 0 0 1 0 7.641776l-18.5586 32.204629a7.641776 7.641776 0 0 1-6.550094 3.820889zM580.614092 682.303428l-1.637524 1.091682-19.104441 31.658788a2.183365 2.183365 0 0 0 0 2.183364l18.5586 32.204629a2.183365 2.183365 0 0 0 3.275047 0.545842l1.091682-1.091683a2.183365 2.183365 0 0 0 0-1.637523l-18.012758-31.112947 17.466917-30.021264h34.387994l17.466917 30.021264-18.012758 31.112947a2.183365 2.183365 0 0 0 0 1.637523l1.091682 1.091683a2.183365 2.183365 0 0 0 2.729206-0.545842l18.5586-32.204629a2.183365 2.183365 0 0 0 0-2.183364l-18.5586-32.204629-1.637524-1.091683z"  /><path d="M673.407091 657.194734h-37.1172a4.912571 4.912571 0 0 1-4.366729-2.183365l-18.5586-32.204629a4.912571 4.912571 0 0 1 0-4.912571l18.5586-32.204629a4.912571 4.912571 0 0 1 4.366729-2.183364h37.1172a4.912571 4.912571 0 1 1 0 9.825141h-34.387994l-15.829394 27.292058 15.829394 27.292059h31.658788l16.921076-29.475423a5.010822 5.010822 0 0 1 8.733459 4.91257l-18.5586 32.204629a4.912571 4.912571 0 0 1-4.366729 2.183365"  /><path d="M673.407091 659.92394h-37.1172a7.641776 7.641776 0 0 1-6.550094-3.820889l-18.5586-32.204629a7.641776 7.641776 0 0 1 0-7.641776l18.5586-32.204629a7.641776 7.641776 0 0 1 6.550094-3.820888h37.1172a7.641776 7.641776 0 1 1 0 15.283553h-32.750471l-14.19187 24.562852 14.19187 24.562853h28.383741l16.375235-28.383741a7.641776 7.641776 0 0 1 10.370983-2.729206 7.641776 7.641776 0 0 1 2.729205 10.370982l-18.558599 32.204629a7.641776 7.641776 0 0 1-6.550094 3.820889z m-37.1172-73.688558l-1.637523 1.091682-18.5586 32.204629a2.183365 2.183365 0 0 0 0 2.183365l18.5586 32.204629 1.637523 1.091682h37.1172l1.637523-1.091682 18.5586-32.204629a2.183365 2.183365 0 0 0 0-1.637524l-1.091682-1.091682a2.183365 2.183365 0 0 0-3.275047 0.545841l-18.012759 31.112947h-34.387994l-17.466917-30.021265 17.466917-30.021264h36.025517a2.183365 2.183365 0 1 0 0-4.366729z"  /><path d="M618.277132 625.535946h-37.117199a4.912571 4.912571 0 0 1-4.36673-2.183365l-18.558599-32.204629a4.912571 4.912571 0 0 1 0-4.91257l18.558599-32.204629a5.010822 5.010822 0 0 1 8.733459 4.91257l-16.921076 29.475423 15.829394 27.292059h31.658788l15.829394-27.292059-16.921077-29.475423a5.010822 5.010822 0 0 1 8.733459-4.91257l18.5586 32.204629a4.912571 4.912571 0 0 1 0 4.91257l-18.5586 32.204629a4.912571 4.912571 0 0 1-4.366729 2.183365"  /><path d="M618.277132 628.265152h-37.117199a7.641776 7.641776 0 0 1-6.550094-3.820888l-19.104441-32.204629a7.641776 7.641776 0 0 1 0-7.641777l18.5586-32.204629a7.641776 7.641776 0 1 1 13.100188 7.641776l-16.375235 28.383741 14.19187 24.562853h28.383741l14.19187-24.562853-16.375235-28.383741a7.641776 7.641776 0 0 1 13.100188-7.641776l18.5586 32.204629a7.641776 7.641776 0 0 1 0 7.641777l-18.5586 32.204629a7.641776 7.641776 0 0 1-6.004253 3.820888z m-37.117199-73.688558h-0.545841l-1.091683 1.091682-18.558599 32.204629a2.183365 2.183365 0 0 0 0 2.183365l18.558599 32.204629 1.637524 1.091682h37.117199l1.637524-1.091682 18.5586-32.204629a2.183365 2.183365 0 0 0 0-2.183365l-18.5586-32.204629a2.183365 2.183365 0 0 0-2.729206-0.545841l-1.091682 1.091682a2.183365 2.183365 0 0 0 0 1.637524l18.012758 31.112946-17.466917 30.021265h-34.387994l-17.466917-30.021265 18.012758-31.112946a2.183365 2.183365 0 0 0 0-1.637524l-1.091682-1.091682z"  /><path d="M562.055492 657.194734h-37.1172a4.912571 4.912571 0 0 1-4.366729-2.183365l-18.5586-32.204629a5.010822 5.010822 0 0 1 8.733459-4.912571l16.921076 29.475424h31.658788l15.829394-27.292059-15.829394-27.292058h-34.387994a4.912571 4.912571 0 1 1 0-9.825141h37.1172a4.912571 4.912571 0 0 1 4.366729 2.183364l18.5586 32.204629a4.912571 4.912571 0 0 1 0 4.912571l-18.5586 32.75047a4.912571 4.912571 0 0 1-4.366729 2.183365"  /><path d="M562.055492 659.92394h-37.1172a7.641776 7.641776 0 0 1-6.550094-3.820889l-18.558599-32.204629a7.641776 7.641776 0 0 1 2.729205-10.370982 7.641776 7.641776 0 0 1 10.370983 2.729206l16.375235 28.383741h28.383741l14.19187-24.562853-14.19187-24.562852h-32.750471a7.641776 7.641776 0 1 1 0-15.283553h37.1172a7.641776 7.641776 0 0 1 6.550094 3.820888l18.5586 32.204629a7.641776 7.641776 0 0 1 0 7.641776l-18.5586 32.204629a7.641776 7.641776 0 0 1-6.550094 3.820889zM506.379693 617.894169h-1.091683l-1.091682 1.091683a2.183365 2.183365 0 0 0 0 1.637523l18.5586 32.204629 1.637523 1.091683h37.1172l2.183364-1.091683 18.5586-32.204629a2.183365 2.183365 0 0 0 0-2.183364l-18.5586-32.204629-1.637523-1.091683h-37.1172a2.183365 2.183365 0 1 0 0 4.36673H560.96381l17.466917 30.021264L560.96381 649.552957h-34.933835l-18.012759-31.112946z"  /><path d="M432.145293 804.026008h-37.117199a4.912571 4.912571 0 0 1-4.36673-2.183364l-18.558599-32.204629a4.912571 4.912571 0 0 1 0-4.912571l18.558599-32.204629a4.912571 4.912571 0 0 1 4.36673-2.729206h37.117199a4.912571 4.912571 0 0 1 4.36673 2.729206l18.5586 32.204629a4.912571 4.912571 0 0 1 0 4.912571l-18.5586 32.204629a4.912571 4.912571 0 0 1-4.36673 2.183364z m-34.387993-9.825141h31.658788l15.829394-27.292058-15.829394-27.292059h-31.658788l-15.829394 27.292059 15.829394 27.292058z"  /><path d="M432.145293 806.209373h-37.117199a7.641776 7.641776 0 0 1-6.550094-3.820888l-18.5586-31.658788a7.641776 7.641776 0 0 1 0-7.641776l18.5586-32.204629a7.641776 7.641776 0 0 1 6.550094-3.820888h37.117199a7.641776 7.641776 0 0 1 6.550094 3.820888l18.5586 32.204629a7.641776 7.641776 0 0 1 0 7.641776l-18.5586 32.204629a7.641776 7.641776 0 0 1-6.550094 3.275047z m-37.117199-73.688558l-1.637524 1.091683-18.558599 32.204629a2.183365 2.183365 0 0 0 0 2.183364l18.558599 32.204629 1.637524 1.091683h37.117199l1.637524-1.091683 18.5586-32.204629a2.183365 2.183365 0 0 0 0-2.183364l-18.5586-32.204629-1.637524-1.091683z m36.025517 64.409258h-34.933835l-17.466917-30.021264 17.466917-30.021264h34.387994l17.466917 30.021264z m-31.658788-5.458411h28.383741l14.19187-24.562853-14.19187-24.562853h-28.383741l-14.19187 24.562853z"  /><path d="M487.821093 835.684796h-37.1172a4.912571 4.912571 0 0 1-4.366729-2.183364l-18.5586-32.204629a4.912571 4.912571 0 0 1 0-4.912571L446.337164 764.179603a4.912571 4.912571 0 0 1 4.366729-2.183365h37.1172a4.912571 4.912571 0 0 1 4.366729 2.183365l18.5586 32.204629a5.010822 5.010822 0 0 1-8.733459 4.912571l-16.921076-29.475424h-31.112947l-15.829394 27.292059 15.829394 27.292058h34.387994a4.912571 4.912571 0 1 1 0 9.825142"  /><path d="M487.821093 838.414002h-37.1172a7.641776 7.641776 0 0 1-6.550094-3.820888l-18.5586-32.204629a7.641776 7.641776 0 0 1 0-7.641776l18.5586-32.204629a7.641776 7.641776 0 0 1 6.550094-3.820889h37.1172a7.641776 7.641776 0 0 1 6.550094 3.820889l18.5586 32.204629a7.641776 7.641776 0 0 1-13.100188 7.641776l-16.375236-28.383741h-28.38374l-14.191871 25.108694 14.191871 24.562853h32.75047a7.641776 7.641776 0 1 1 0 15.283552z m-37.1172-73.688558l-1.637523 1.091683-18.5586 32.204629a2.183365 2.183365 0 0 0 0 2.183364l18.5586 32.204629 1.637523 1.091683h37.1172a2.183365 2.183365 0 1 0 0-4.36673h-35.479676l-17.466918-30.021264 17.466918-30.021264h34.387993l18.012759 31.112946a2.183365 2.183365 0 0 0 3.275047 0.545841l1.091682-1.091682a2.183365 2.183365 0 0 0 0-1.637523l-19.104441-32.204629-1.637523-1.091683z"  /><path d="M376.469494 835.684796h-37.117199a4.912571 4.912571 0 1 1 0-9.825141h34.387993l15.829394-27.292058-15.829394-27.292059h-31.658788l-16.921076 29.475423a5.010822 5.010822 0 0 1-8.733459-4.91257l18.5586-32.204629a4.912571 4.912571 0 0 1 4.36673-2.183365h37.117199a4.912571 4.912571 0 0 1 4.366729 2.183365l18.5586 32.204629a4.912571 4.912571 0 0 1 0 4.91257l-18.5586 32.750471a4.912571 4.912571 0 0 1-4.366729 2.183364"  /><path d="M376.469494 838.414002h-37.117199a7.641776 7.641776 0 1 1 0-15.283553h32.75047l14.19187-24.562852-14.19187-24.562853h-28.383741l-16.375235 28.383741a7.641776 7.641776 0 0 1-14.191871-1.637524 7.641776 7.641776 0 0 1 0.545842-6.004252l18.558599-32.204629a7.641776 7.641776 0 0 1 6.550094-3.820889h37.1172a7.641776 7.641776 0 0 1 6.550094 3.820889l18.5586 32.204629a7.641776 7.641776 0 0 1 0 7.641776l-18.5586 32.204629a7.641776 7.641776 0 0 1-6.004253 3.820888z m-37.117199-9.825141a2.183365 2.183365 0 1 0 0 4.366729h37.117199l1.637524-1.091682 18.558599-32.204629a2.183365 2.183365 0 0 0 0-2.183365l-18.558599-32.204629-1.637524-1.091682h-37.117199l-1.637524 1.091682-18.5586 32.204629a2.183365 2.183365 0 0 0 0 1.637524l1.091683 1.091682a2.183365 2.183365 0 0 0 3.275047-0.545841l18.012758-31.112947H375.377812l17.466917 30.021265-17.466917 30.021264z"  /><path d="M432.145293 867.889425h-2.729205a4.912571 4.912571 0 0 1-1.637524-6.550094l16.921076-29.475423-15.829394-27.292058h-31.112946l-15.829394 27.292058 16.921076 29.475423a5.010822 5.010822 0 0 1-8.733459 4.912571l-18.558599-32.204629a4.912571 4.912571 0 0 1 0-4.912571l18.558599-32.204629a4.912571 4.912571 0 0 1 4.36673-2.183364h37.117199a4.912571 4.912571 0 0 1 4.36673 2.183364l18.558599 32.204629a4.912571 4.912571 0 0 1 0 4.912571l-18.558599 32.204629a4.912571 4.912571 0 0 1-4.36673 2.183365"  /><path d="M432.145293 870.618631l-3.820888-1.091682a7.641776 7.641776 0 0 1-2.729206-10.370982l16.375235-28.383741-14.19187-24.562853h-28.383741l-14.19187 24.562853 16.375235 28.383741a7.641776 7.641776 0 0 1-2.729206 10.370982 7.641776 7.641776 0 0 1-10.370982-2.729206l-18.5586-32.204629a7.641776 7.641776 0 0 1 0-7.641776l18.5586-32.204629a7.641776 7.641776 0 0 1 6.550094-3.820889h37.117199a7.641776 7.641776 0 0 1 6.550094 3.820889l18.5586 32.204629a7.641776 7.641776 0 0 1 0 7.641776l-18.5586 32.204629a7.641776 7.641776 0 0 1-6.550094 3.820888zM395.028094 796.930073l-1.637524 1.091683-19.104441 31.658787a2.183365 2.183365 0 0 0 0 2.183365l18.5586 32.204629a2.183365 2.183365 0 0 0 2.729206 0.545841l1.091682-1.091682a2.183365 2.183365 0 0 0 0-1.637523l-18.012758-31.112947 17.466917-30.021265h34.387994l17.466917 30.021265-18.012758 31.112947a2.183365 2.183365 0 0 0 0 1.637523l1.091682 1.091682a2.183365 2.183365 0 0 0 2.729206-0.545841l18.5586-32.204629a2.183365 2.183365 0 0 0 0-2.183365l-18.5586-32.204629-1.637524-1.091682z"  /><path d="M487.821093 771.821379h-37.1172a4.912571 4.912571 0 0 1-4.366729-2.183364l-18.5586-32.204629a4.912571 4.912571 0 0 1 0-4.912571l18.5586-32.204629a4.912571 4.912571 0 0 1 4.366729-2.183365h37.1172a4.912571 4.912571 0 1 1 0 9.825142h-33.842153l-15.829394 27.292058 15.829394 27.292059h31.658788l16.921076-29.475424a5.010822 5.010822 0 0 1 8.733459 4.912571l-18.5586 32.204629a4.912571 4.912571 0 0 1-4.366729 2.183365"  /><path d="M487.821093 774.550585h-37.1172a7.641776 7.641776 0 0 1-6.550094-3.820888l-18.5586-32.204629a7.641776 7.641776 0 0 1 0-7.641776l18.5586-32.204629a7.641776 7.641776 0 0 1 6.550094-3.820889h37.1172a7.641776 7.641776 0 1 1 0 15.283553h-32.75047l-14.191871 24.562853 14.191871 24.562853h28.38374l16.375236-28.383741a7.641776 7.641776 0 0 1 14.19187 1.637523 7.641776 7.641776 0 0 1-0.545841 6.004253l-18.5586 32.204629a7.641776 7.641776 0 0 1-7.095935 3.820888z m-37.1172-73.688558l-1.637523 1.091683-18.5586 32.204629a2.183365 2.183365 0 0 0 0 2.183364l18.5586 32.204629 1.637523 1.091683h37.1172l1.637523-1.091683 18.5586-32.204629a2.183365 2.183365 0 0 0 0-1.637523l-1.091682-1.091682a2.183365 2.183365 0 0 0-3.275047 0.545841l-18.012759 31.112946h-33.296311l-17.466918-30.021264 17.466918-30.021264h36.025517a2.183365 2.183365 0 1 0 0-4.36673z"  /><path d="M432.691135 740.162592h-37.1172a4.912571 4.912571 0 0 1-4.366729-2.183365l-18.5586-32.204629a4.912571 4.912571 0 0 1 0-4.912571l18.5586-32.204629a5.010822 5.010822 0 0 1 8.733458 4.912571l-16.921076 29.475423 15.829394 27.292059h31.658788l15.829394-27.292059-16.921076-29.475423a5.010822 5.010822 0 0 1 8.733458-4.912571l18.5586 32.204629a4.912571 4.912571 0 0 1 0 4.912571l-18.5586 32.204629a4.912571 4.912571 0 0 1-4.366729 2.183365"  /><path d="M432.691135 742.891797h-37.1172a7.641776 7.641776 0 0 1-6.550094-3.820888l-19.104441-32.204629a7.641776 7.641776 0 0 1 0-7.641776l18.5586-32.204629a7.641776 7.641776 0 0 1 10.370982-2.729206 7.641776 7.641776 0 0 1 2.729206 10.370982l-16.375235 28.383741 14.19187 24.562853h28.383741l14.19187-24.562853-16.375235-28.383741a7.641776 7.641776 0 0 1 2.729206-10.370982 7.641776 7.641776 0 0 1 10.370982 2.729206l18.5586 32.204629a7.641776 7.641776 0 0 1 0 7.641776l-18.5586 32.204629a7.641776 7.641776 0 0 1-6.004252 3.820888z m-37.1172-73.688558l-1.637523 1.091683-18.5586 32.204629a2.183365 2.183365 0 0 0 0 2.183365l18.5586 32.204629 1.637523 1.091682h37.1172l1.637523-1.091682 18.5586-32.204629a2.183365 2.183365 0 0 0 0-2.183365l-18.5586-32.204629a2.183365 2.183365 0 0 0-3.275047-0.545841l-1.091682 1.091682a2.183365 2.183365 0 0 0 0 1.637524l18.012758 31.112946-17.466917 30.021265h-33.842153l-17.466917-30.021265 18.012759-31.112946a2.183365 2.183365 0 0 0 0-1.637524l-1.091683-1.091682z"  /><path d="M376.469494 771.821379h-37.117199a4.912571 4.912571 0 0 1-4.36673-2.183364l-18.5586-32.204629a5.010822 5.010822 0 0 1 8.733459-4.912571l16.921076 29.475423h31.658788l15.829394-27.292058-15.829394-27.292059h-34.387993a4.912571 4.912571 0 1 1 0-9.825141h37.117199a4.912571 4.912571 0 0 1 4.366729 2.183365l18.5586 32.204629a4.912571 4.912571 0 0 1 0 4.912571l-18.5586 32.75047a4.912571 4.912571 0 0 1-4.366729 2.183364"  /><path d="M376.469494 774.550585h-37.117199a7.641776 7.641776 0 0 1-6.550095-3.820888l-18.558599-32.204629a7.641776 7.641776 0 0 1 2.729206-10.370982 7.641776 7.641776 0 0 1 10.370982 2.729206l16.375235 28.383741h28.383741l14.19187-24.562853-14.19187-24.562853h-32.75047a7.641776 7.641776 0 1 1 0-15.283553h37.117199a7.641776 7.641776 0 0 1 6.550094 3.820889l18.5586 32.204629a7.641776 7.641776 0 0 1 0 7.641776l-18.5586 32.204629a7.641776 7.641776 0 0 1-6.550094 3.820888zM320.793695 732.520815h-1.091683l-1.091682 1.091683a2.183365 2.183365 0 0 0 0 1.637523l18.5586 32.204629 1.637523 1.091682h37.1172l1.637523-1.091682 18.5586-32.204629a2.183365 2.183365 0 0 0 0-2.183365l-18.5586-32.204629-1.637523-1.091682h-36.571358a2.183365 2.183365 0 1 0 0 4.366729H375.377812l17.466917 30.021265L375.377812 764.179603h-34.933835l-18.012759-31.112947z"  /><path d="M564.784698 921.927701h-26.200376a3.275047 3.275047 0 0 1-2.729206-1.637523l-13.100188-22.925329a3.275047 3.275047 0 0 1 0-3.275047l13.100188-22.92533a3.275047 3.275047 0 0 1 2.729206-1.637523h26.200376a3.275047 3.275047 0 0 1 2.729206 1.637523l13.100188 22.92533a3.275047 3.275047 0 0 1 0 3.275047l-13.100188 22.925329a3.275047 3.275047 0 0 1-2.729206 1.637523z m-24.017012-7.095935h22.379488l10.916824-19.104441-10.916824-19.104441h-22.379488l-10.916823 19.104441 10.916823 19.104441z" fill="#FAD700" /><path d="M564.784698 924.656907h-26.200376a6.004253 6.004253 0 0 1-5.458412-3.275047l-13.100188-22.925329a6.004253 6.004253 0 0 1 0-6.004253l13.100188-22.925329a6.004253 6.004253 0 0 1 5.458412-3.275047h26.200376a6.004253 6.004253 0 0 1 5.458411 3.275047l13.100189 22.925329a6.004253 6.004253 0 0 1 0 6.004253l-13.100189 22.925329a6.004253 6.004253 0 0 1-5.458411 3.275047z m-26.200376-52.400752h-0.545842l-13.100188 22.925329a0.545841 0.545841 0 0 0 0 0.545841l13.100188 22.925329h27.292059l13.100188-22.925329a0.545841 0.545841 0 0 0 0-0.545841l-13.100188-22.925329h-26.746217z m25.654535 45.304817H539.130163l-12.554347-21.833647 12.554347-21.833647h25.108694l12.554346 21.833647z m-22.379488-5.458412H560.96381l9.279299-16.375235-9.279299-16.375235h-18.5586l-9.2793 16.375235z" fill="#FAD700" /><path d="M604.085262 944.85303h-25.654535a3.275047 3.275047 0 0 1-2.729206-1.637523l-13.100188-22.925329a3.275047 3.275047 0 0 1 0-3.275047l13.100188-22.925329a3.275047 3.275047 0 0 1 2.729206-1.637524h26.200376a3.275047 3.275047 0 0 1 2.729206 1.637524l13.100188 22.925329a3.275047 3.275047 0 0 1-1.091682 4.91257 3.275047 3.275047 0 0 1-4.912571-1.091682l-12.008506-21.287806h-22.379488l-10.916823 19.104441 10.916823 19.104441h24.017012a3.547968 3.547968 0 0 1 0 7.095935" fill="#FAD700" /><path d="M604.085262 947.582236h-25.654535a6.004253 6.004253 0 0 1-5.458412-3.275047l-13.100188-22.925329a6.004253 6.004253 0 0 1 0-6.004253l13.100188-22.925329a6.004253 6.004253 0 0 1 5.458412-3.275047h26.200376a6.004253 6.004253 0 0 1 5.458412 3.275047l13.100188 22.925329a6.004253 6.004253 0 0 1-7.095935 9.2793 6.004253 6.004253 0 0 1-3.820888-2.729206l-11.462665-19.650282h-19.104441l-9.2793 16.375235 9.2793 16.375235h22.379488a6.277173 6.277173 0 0 1 0 12.554347z m-25.654535-52.400752H577.339045l-13.100188 22.925329a0.545841 0.545841 0 0 0 0 0.545841l13.100188 22.925329h1.091682l-12.554347-21.833646 12.554347-21.833647h25.108694l13.100188 22.379488h1.091682a0.611342 0.611342 0 0 0 0.545841-1.091683l-13.100188-22.925329h-26.746217z" fill="#FAD700" /><path d="M526.029975 944.85303h-26.200376a3.547968 3.547968 0 0 1 0-7.095935h24.017011l10.916823-19.104441-10.916823-19.104441h-21.833647l-12.008506 20.741965a3.275047 3.275047 0 0 1-4.91257 1.091682 3.275047 3.275047 0 0 1-1.091682-4.91257l13.100188-22.92533a3.275047 3.275047 0 0 1 2.729206-1.637523h26.200376a3.275047 3.275047 0 0 1 2.729206 1.637523l13.100188 22.92533a3.275047 3.275047 0 0 1 0 3.275047l-13.100188 22.925329a3.275047 3.275047 0 0 1-2.729206 1.637523" fill="#FAD700" /><path d="M526.029975 947.582236h-26.200376a6.277173 6.277173 0 0 1 0-12.554347h22.379487l9.2793-16.375235-9.2793-16.375235h-18.558599l-11.462665 19.650282a6.004253 6.004253 0 0 1-8.733459 2.183365 6.004253 6.004253 0 0 1-2.183364-8.733459l13.100188-22.925329a6.004253 6.004253 0 0 1 5.458412-3.275047h26.200376a6.004253 6.004253 0 0 1 5.458411 3.275047l13.100188 22.925329a6.004253 6.004253 0 0 1 0 6.004253l-13.100188 22.925329a6.004253 6.004253 0 0 1-5.458411 3.275047z m-26.200376-7.095935h26.746217l13.100188-22.925329a0.545841 0.545841 0 0 0 0-0.545841l-13.100188-22.925329h-27.292059l-13.100188 22.925329a0.611342 0.611342 0 0 0 0.545841 1.091682h1.091683l13.100188-22.379488h25.108694l12.554347 21.833647-12.554347 21.833647z" fill="#FAD700" /><path d="M564.784698 967.778359h-1.637524a3.275047 3.275047 0 0 1-1.091682-4.91257l12.008506-21.287806-10.916824-19.104441h-22.379488l-10.916823 19.104441 12.008506 21.287806a3.275047 3.275047 0 0 1-1.091683 4.91257 3.275047 3.275047 0 0 1-4.91257-1.091682l-13.100188-23.47117a3.275047 3.275047 0 0 1 0-3.275047l13.100188-22.925329a3.275047 3.275047 0 0 1 2.729206-1.637524h26.200376a3.275047 3.275047 0 0 1 2.729206 1.637524l13.100188 22.925329a3.275047 3.275047 0 0 1 0 3.275047l-12.554347 22.925329a3.275047 3.275047 0 0 1-2.729206 1.637523" fill="#FAD700" /><path d="M538.584322 970.507565h-1.637524a6.004253 6.004253 0 0 1-3.820888-2.729206l-12.554347-23.47117a6.004253 6.004253 0 0 1 0-6.004253l13.100188-22.925329a6.004253 6.004253 0 0 1 5.458412-3.275047h26.200376a6.004253 6.004253 0 0 1 5.458412 3.275047l13.100188 22.925329a6.004253 6.004253 0 0 1 0 6.004253l-13.100188 22.925329a6.550094 6.550094 0 0 1-8.187618 2.183365 6.004253 6.004253 0 0 1-2.183365-8.733459l11.462665-19.650282-9.2793-16.375235h-20.196123l-9.2793 16.375235L544.588574 960.682424a6.004253 6.004253 0 0 1-2.183364 8.733459z m0-52.400752h-0.545842l-13.100188 22.925329a0.545841 0.545841 0 0 0 0 0.545841l13.100188 22.925329h1.091683a0.545841 0.545841 0 0 0 0-1.091682l-13.100188-22.379488 12.554347-21.833647h25.108693l12.554347 21.833647-12.554347 22.379488a0.545841 0.545841 0 0 0 0 1.091682h1.091683l13.100188-22.925329a0.545841 0.545841 0 0 0 0-0.545841l-13.100188-22.925329h-26.200376z" fill="#FAD700" /><path d="M604.085262 899.548213h-25.654535a3.275047 3.275047 0 0 1-2.729206-1.637523l-13.100188-22.925329a3.275047 3.275047 0 0 1 0-3.275047l13.100188-22.92533a3.275047 3.275047 0 0 1 2.729206-1.637523h26.200376a3.547968 3.547968 0 0 1 0 7.095935h-24.562853l-10.916823 19.104441 10.916823 19.104441h22.379488l12.008506-21.287806a3.275047 3.275047 0 0 1 4.912571-1.091682 3.275047 3.275047 0 0 1 1.091682 4.912571l-13.100188 22.925329a3.275047 3.275047 0 0 1-2.729206 1.637523" fill="#FAD700" /><path d="M604.085262 902.277419h-25.654535a6.004253 6.004253 0 0 1-5.458412-3.275047l-13.100188-22.925329a6.004253 6.004253 0 0 1 0-6.004253l13.100188-22.925329a6.004253 6.004253 0 0 1 5.458412-3.275047h26.200376a6.277173 6.277173 0 0 1 0 12.554347h-22.925329l-9.2793 16.375235 9.2793 16.375235h19.104441l11.462665-19.650282a6.228048 6.228048 0 1 1 10.916823 6.004253l-13.100188 22.925329a6.004253 6.004253 0 0 1-6.004253 3.820888z m-26.200376-52.400752H577.339045l-13.100188 22.925329a0.545841 0.545841 0 0 0 0 0.545841l13.100188 22.925329h27.292058l13.100188-22.925329a0.545841 0.545841 0 0 0 0-1.091682h-1.091682l-13.100188 22.379488h-25.108694l-12.554347-21.833647 12.554347-21.833647h-0.545841z" fill="#FAD700" /><path d="M565.330539 876.622884H539.130163a3.275047 3.275047 0 0 1-2.729206-1.637523l-13.100188-22.92533a3.275047 3.275047 0 0 1 0-3.275047l13.100188-22.925329a3.275047 3.275047 0 0 1 4.91257-1.091682 3.275047 3.275047 0 0 1 1.091683 4.91257l-12.008506 21.287806 10.916823 19.104441h22.379488l10.916824-19.104441-12.554347-21.287806a3.275047 3.275047 0 0 1 1.091682-4.91257 3.275047 3.275047 0 0 1 4.912571 1.091682l13.100188 22.925329a3.275047 3.275047 0 0 1 0 3.275047l-13.100188 22.92533a3.275047 3.275047 0 0 1-2.729206 1.637523" fill="#FAD700" /><path d="M565.330539 879.35209H539.130163a6.004253 6.004253 0 0 1-5.458412-3.275047l-13.100188-22.925329a6.004253 6.004253 0 0 1 0-6.004253L533.671751 824.222132a6.004253 6.004253 0 0 1 8.733459-2.183365 6.004253 6.004253 0 0 1 2.183364 8.733459l-11.462664 19.650282 9.2793 16.375235h19.104441l9.2793-16.375235-11.462665-19.650282a6.004253 6.004253 0 0 1 2.183365-8.733459 6.004253 6.004253 0 0 1 8.187617 2.183365l13.100188 22.925329a6.004253 6.004253 0 0 1 0 6.004253l-13.100188 22.925329a6.004253 6.004253 0 0 1-4.366729 3.275047z m-26.200376-52.400752h-0.545841l-13.100189 22.925329a0.545841 0.545841 0 0 0 0 0.545841l13.100189 22.925329h27.292058l13.100188-22.925329a0.545841 0.545841 0 0 0 0-0.545841l-13.100188-22.925329h-1.091682a0.545841 0.545841 0 0 0 0 1.091682l13.100188 22.379488-12.554347 21.833647h-25.654535l-12.554347-21.833647 13.100188-22.379488a0.545841 0.545841 0 0 0 0-1.091682z" fill="#FAD700" /><path d="M526.029975 899.548213h-26.200376a3.275047 3.275047 0 0 1-2.729206-1.637523l-13.100188-22.925329a3.275047 3.275047 0 0 1 1.091682-4.912571 3.275047 3.275047 0 0 1 4.91257 1.091682l12.008506 21.287806h22.379488l10.916824-19.104441-10.916824-19.104441h-24.562852a3.547968 3.547968 0 0 1 0-7.095935h26.200376a3.275047 3.275047 0 0 1 2.729206 1.637523l13.100188 22.92533a3.275047 3.275047 0 0 1 0 3.275047l-13.100188 22.925329a3.275047 3.275047 0 0 1-2.729206 1.637523" fill="#FAD700" /><path d="M526.029975 902.277419h-26.200376a6.004253 6.004253 0 0 1-5.458412-3.275047l-13.100188-22.925329a6.004253 6.004253 0 0 1 7.095935-9.2793 6.004253 6.004253 0 0 1 3.820888 2.729206l11.462665 19.650282H522.754928l9.2793-16.375235-9.2793-16.375235h-22.925329a6.277173 6.277173 0 0 1 0-12.554347h26.200376a6.004253 6.004253 0 0 1 5.458411 3.275047l13.100188 22.925329a6.004253 6.004253 0 0 1 0 6.004253l-13.100188 22.925329a6.004253 6.004253 0 0 1-5.458411 3.275047z m-39.300565-30.021264h-0.545841a0.545841 0.545841 0 0 0 0 1.091682l13.100188 22.925329h27.292059l13.100188-22.925329a0.545841 0.545841 0 0 0 0-0.545841l-13.100188-22.925329h-1.091683l12.554347 21.833647-12.554347 21.833646h-25.108693l-13.100188-22.379488h-0.545842z" fill="#FAD700" /><path d="M560.96381 926.294431h-26.200377a3.275047 3.275047 0 0 1-2.729205-1.637524l-13.100189-22.925329a3.275047 3.275047 0 0 1 0-3.275047l13.100189-22.925329a3.275047 3.275047 0 0 1 2.729205-1.637524H560.96381a3.275047 3.275047 0 0 1 2.729205 1.637524l13.100188 22.925329a3.275047 3.275047 0 0 1 0 3.275047l-13.100188 22.925329a3.275047 3.275047 0 0 1-2.729205 1.637524z m-24.017012-7.095936h22.379488l10.916823-19.104441-10.916823-19.104441h-22.379488l-10.916823 19.104441 10.916823 19.104441z"  /><path d="M560.96381 929.023636h-26.200377a6.004253 6.004253 0 0 1-5.458411-3.275047l-13.100188-22.925329a6.004253 6.004253 0 0 1 0-6.004253l13.100188-22.925329a6.004253 6.004253 0 0 1 5.458411-3.275047H560.96381a6.004253 6.004253 0 0 1 5.458411 3.275047l13.100188 22.925329a6.004253 6.004253 0 0 1 0 6.004253l-13.100188 22.925329a6.004253 6.004253 0 0 1-5.458411 3.275047z m-26.200377-52.400752h-0.545841l-13.100188 22.925329a0.545841 0.545841 0 0 0 0 0.545841l13.100188 22.92533h27.292059l13.100188-22.92533a0.545841 0.545841 0 0 0 0-0.545841l-13.100188-22.925329h-26.746218z m25.654535 45.304817h-25.108693l-12.554347-21.833647 12.554347-21.833646H560.96381l12.554346 21.833646z m-21.833646-5.458411h19.104441l9.279299-16.375236-9.279299-16.375235h-19.104441l-9.2793 16.375235z"  /><path d="M600.264374 948.673919h-26.200376a3.275047 3.275047 0 0 1-2.729206-1.637524l-13.100188-22.925329a3.275047 3.275047 0 0 1 0-3.275047l13.100188-22.925329a3.275047 3.275047 0 0 1 2.729206-1.637524h26.200376a3.275047 3.275047 0 0 1 2.729206 1.637524l13.100188 22.925329a3.275047 3.275047 0 0 1-1.091683 4.91257 3.275047 3.275047 0 0 1-4.91257-1.091682l-12.008506-21.287806h-21.833647l-10.916823 19.104441 10.916823 19.104441h24.017012a3.547968 3.547968 0 0 1 0 7.095936"  /><path d="M600.264374 951.403124h-26.200376a6.004253 6.004253 0 0 1-5.458412-3.275047l-13.100188-22.925329a6.004253 6.004253 0 0 1 0-6.004253l13.100188-22.925329a6.004253 6.004253 0 0 1 5.458412-3.275047h26.200376a6.004253 6.004253 0 0 1 5.458411 3.275047l13.100189 22.925329a6.004253 6.004253 0 0 1-2.183365 8.733459 6.004253 6.004253 0 0 1-8.187618-2.183365l-11.462664-19.650282h-19.104441l-9.2793 16.375235 9.2793 16.375235h22.379488a6.277173 6.277173 0 0 1 0 12.554347z m-26.200376-52.400752h-0.545842l-13.100188 22.925329a0.545841 0.545841 0 0 0 0 0.545841l13.100188 22.92533h1.091683l-12.554347-21.833647 12.554347-21.833647h25.108694l13.100188 22.379488h1.091682a0.545841 0.545841 0 0 0 0-1.091682l-13.100188-22.92533h-26.746217z"  /><path d="M522.209086 948.673919h-26.200376a3.547968 3.547968 0 0 1 0-7.095936h24.017012l10.916823-19.104441-10.916823-19.104441h-21.833647l-12.008506 21.287806a3.275047 3.275047 0 0 1-4.91257 1.091682 3.275047 3.275047 0 0 1-1.091683-4.91257l13.100188-22.925329a3.275047 3.275047 0 0 1 2.729206-1.637524h26.200376a3.275047 3.275047 0 0 1 2.729206 1.637524l13.100188 22.925329a3.275047 3.275047 0 0 1 0 3.275047l-13.100188 22.925329a3.275047 3.275047 0 0 1-2.729206 1.637524"  /><path d="M522.209086 951.403124h-26.200376a6.277173 6.277173 0 0 1 0-12.554347h22.379488l9.2793-16.375235-9.2793-16.375235h-18.558599l-11.462665 19.650282a6.004253 6.004253 0 0 1-8.733459 2.183365 6.004253 6.004253 0 0 1-2.183364-8.733459l13.100188-22.925329a6.004253 6.004253 0 0 1 5.458411-3.275047h26.200376a6.004253 6.004253 0 0 1 5.458412 3.275047l13.100188 22.925329a6.004253 6.004253 0 0 1 0 6.004253l-13.100188 22.925329a6.004253 6.004253 0 0 1-5.458412 3.275047z m-26.200376-7.095935H522.754928l13.100188-22.925329a0.545841 0.545841 0 0 0 0-0.545841l-13.100188-21.287806h-27.292059l-13.100188 22.925329a0.545841 0.545841 0 0 0 0 1.091683h1.091682l13.100188-22.379488h25.108694l12.554347 21.833647-12.554347 21.833646z"  /><path d="M560.96381 971.599248h-1.637524a3.275047 3.275047 0 0 1-1.091682-4.912571l12.008505-21.287805-10.916823-19.104441h-22.379488l-10.916823 19.104441 12.008505 21.287805a3.275047 3.275047 0 0 1-1.091682 4.912571 3.275047 3.275047 0 0 1-4.91257-1.091683l-13.100189-22.925329a3.275047 3.275047 0 0 1 0-3.275047l13.100189-22.925329a3.275047 3.275047 0 0 1 2.729205-1.637523H560.96381a3.275047 3.275047 0 0 1 2.729205 1.637523l13.100188 22.925329a3.275047 3.275047 0 0 1 0 3.275047l-13.100188 22.925329a3.275047 3.275047 0 0 1-2.729205 1.637524"  /><path d="M534.763433 974.328454H533.671751a6.004253 6.004253 0 0 1-3.820888-2.729206l-13.100188-22.925329a6.004253 6.004253 0 0 1 0-6.004253l13.100188-22.925329a6.004253 6.004253 0 0 1 5.458412-3.275047H560.96381a6.004253 6.004253 0 0 1 5.458411 3.275047l13.100188 22.925329a6.004253 6.004253 0 0 1 0 6.004253l-13.100188 22.379488a6.550094 6.550094 0 0 1-8.733458 2.183364 6.004253 6.004253 0 0 1-2.183365-8.733459l11.462664-19.650282-9.279299-16.375235h-19.104441l-9.2793 16.375235 11.462664 19.650282a6.004253 6.004253 0 0 1-2.183364 8.733459z m0.545842-50.763229H560.96381l12.554346 21.833647-13.100188 22.379487a0.611342 0.611342 0 0 0 0.545842 1.091683h1.091682l13.100188-22.925329a0.545841 0.545841 0 0 0 0-0.545841l-13.100188-22.92533h-27.292059l-13.100188 22.92533a0.545841 0.545841 0 0 0 0 0.545841l13.100188 22.925329h0.545842c1.091682-0.545841 1.091682-0.545841 0.545841-1.091683l-13.100188-22.379487z"  /><path d="M600.264374 903.369101h-26.200376a3.275047 3.275047 0 0 1-2.729206-1.637523l-13.100188-22.925329a3.275047 3.275047 0 0 1 0-3.275047l13.100188-22.925329a3.275047 3.275047 0 0 1 2.729206-1.637524h26.200376a3.547968 3.547968 0 0 1 0 7.095935h-24.017012l-10.916823 19.104441 10.916823 19.104441h22.379488l12.008506-21.287805a3.275047 3.275047 0 0 1 4.912571-1.091683 3.275047 3.275047 0 0 1 1.091682 4.912571l-13.100188 22.925329a3.275047 3.275047 0 0 1-2.729206 1.637523"  /><path d="M600.264374 906.098307h-26.200376a6.004253 6.004253 0 0 1-5.458412-3.275047l-13.100188-22.925329a6.004253 6.004253 0 0 1 0-6.004253l13.100188-22.925329a6.004253 6.004253 0 0 1 5.458412-3.275047h26.200376a6.277173 6.277173 0 0 1 0 12.554347h-22.379488l-9.2793 16.375235 9.2793 16.375235h19.104441l11.462664-19.650282a6.004253 6.004253 0 0 1 8.733459-2.183365 6.004253 6.004253 0 0 1 2.183365 8.733459l-13.100188 22.925329a6.004253 6.004253 0 0 1-6.004253 3.275047z m-26.200376-52.400752h-0.545842l-13.100188 22.925329a0.545841 0.545841 0 0 0 0 0.545841l13.100188 22.925329h27.292059l13.100188-22.925329a0.611342 0.611342 0 0 0-0.545841-1.091682h-1.091682l-13.100189 22.379488h-24.562852l-12.554347-21.833647 12.554347-21.833647h-0.545841z"  /><path d="M561.509651 880.443772h-26.200376a3.275047 3.275047 0 0 1-2.729206-1.637523l-13.100188-22.925329a3.275047 3.275047 0 0 1 0-3.275047l13.100188-22.92533a3.275047 3.275047 0 0 1 4.91257-1.091682 3.275047 3.275047 0 0 1 1.091683 4.912571l-12.008506 21.287805 10.916823 19.104441h22.379488l10.916824-19.104441-12.008506-21.287805a3.275047 3.275047 0 0 1 1.091682-4.912571 3.275047 3.275047 0 0 1 4.912571 1.091682l13.100188 22.92533a3.275047 3.275047 0 0 1 0 3.275047l-13.646029 22.925329a3.275047 3.275047 0 0 1-2.729206 1.637523"  /><path d="M561.509651 883.172978h-26.200376a6.004253 6.004253 0 0 1-5.458412-3.275047l-13.100188-22.925329a6.004253 6.004253 0 0 1 0-6.004253l13.100188-22.925329a6.004253 6.004253 0 0 1 8.733459-2.183365 6.004253 6.004253 0 0 1 2.183364 8.733459l-11.462664 19.650282 9.2793 16.375235h19.104441l9.279299-16.375235-11.462664-19.650282a6.004253 6.004253 0 0 1 2.183365-8.733459 6.004253 6.004253 0 0 1 8.733458 2.183365l13.100188 22.925329a6.004253 6.004253 0 0 1 0 6.004253l-13.100188 22.925329a6.004253 6.004253 0 0 1-4.91257 3.275047z m-26.200376-52.400752h-0.545842l-13.100188 22.925329a0.545841 0.545841 0 0 0 0 0.545841l13.100188 22.925329h27.292059l13.100188-22.925329a0.545841 0.545841 0 0 0 0-0.545841l-13.100188-22.925329h-0.545841c-1.091682 0.545841-1.091682 0.545841-0.545841 1.091682l13.100188 22.379488-12.554347 21.833647h-25.654535l-12.554347-21.833647 12.554347-22.379488a0.545841 0.545841 0 0 0 0-1.091682z"  /><path d="M522.209086 903.369101h-26.200376a3.275047 3.275047 0 0 1-2.729206-1.637523l-13.646029-22.925329a3.275047 3.275047 0 0 1 1.091683-4.912571 3.275047 3.275047 0 0 1 4.91257 1.091683l12.008506 21.287805h22.379488l10.916823-19.104441-10.916823-19.104441h-24.017012a3.547968 3.547968 0 0 1 0-7.095935h26.200376a3.275047 3.275047 0 0 1 2.729206 1.637524l13.100188 22.925329a3.275047 3.275047 0 0 1 0 3.275047l-13.100188 22.925329a3.275047 3.275047 0 0 1-2.729206 1.637523"  /><path d="M522.209086 906.098307h-26.200376a6.004253 6.004253 0 0 1-5.458411-3.275047l-13.100188-22.925329a6.004253 6.004253 0 0 1 7.095935-9.2793 6.004253 6.004253 0 0 1 3.820888 2.729206l11.462665 19.650282h19.10444l9.2793-16.375235-9.2793-16.375235h-22.925329a6.277173 6.277173 0 0 1 0-12.554347h26.200376a6.004253 6.004253 0 0 1 5.458412 3.275047l13.100188 22.925329a6.004253 6.004253 0 0 1 0 6.004253l-13.100188 22.925329a6.004253 6.004253 0 0 1-5.458412 3.275047z m-39.300564-30.021264h-0.545841a0.545841 0.545841 0 0 0 0 1.091682l13.100188 22.925329h27.292059l13.100188-22.925329a0.545841 0.545841 0 0 0 0-0.545841l-13.100188-22.925329h-1.091683l12.554347 21.833647-12.554347 21.833647h-25.108694l-13.100188-22.379488h-0.545841z"  /><path d="M389.023841 979.241024h-21.833647a2.729206 2.729206 0 0 1-2.729206-1.637523l-10.916823-18.5586a2.729206 2.729206 0 0 1 0-2.729206l10.916823-18.5586a2.729206 2.729206 0 0 1 2.729206-1.637523h21.833647a2.729206 2.729206 0 0 1 2.729206 1.637523l10.916823 18.5586a2.729206 2.729206 0 0 1 0 2.729206l-10.916823 18.5586a2.729206 2.729206 0 0 1-2.729206 1.637523z m-20.196123-5.458412h18.558599l9.2793-15.283552-9.2793-15.283553h-18.558599l-9.2793 15.283553 9.2793 15.283552z" fill="#32B7FF" /><path d="M389.023841 981.97023h-21.833647a5.458412 5.458412 0 0 1-4.91257-2.729206l-10.916824-18.5586a5.458412 5.458412 0 0 1 0-5.458411l10.916824-18.5586a5.458412 5.458412 0 0 1 4.91257-2.729206h21.833647a5.458412 5.458412 0 0 1 4.912571 2.729206l10.916823 18.5586a5.458412 5.458412 0 0 1 0 5.458411l-10.916823 18.5586a5.458412 5.458412 0 0 1-4.912571 2.729206z m-21.833647-42.02977l-10.916823 18.5586 10.916823 18.558599h22.379488l10.916824-18.558599-10.916824-18.5586z m21.833647 36.571358h-21.833647l-10.916823-18.012758 10.916823-18.012759h21.287806l10.916823 18.012759z m-18.5586-5.458411h15.283553l7.641776-12.554347-7.641776-12.554347h-15.283553l-7.641776 12.554347z" fill="#32B7FF" /><path d="M421.774311 997.799624h-21.833647a2.729206 2.729206 0 0 1-2.729205-1.637524l-10.916824-18.558599a2.729206 2.729206 0 0 1 0-2.729206l10.916824-18.5586a2.729206 2.729206 0 0 1 2.729205-1.637524h21.833647a2.729206 2.729206 0 0 1 2.729206 1.637524l10.916823 18.5586a2.729206 2.729206 0 0 1-1.091682 3.820888 2.729206 2.729206 0 0 1-3.820888-1.091682l-9.825141-16.921077h-19.104441l-9.2793 15.283553 9.2793 15.283553h20.196123a2.729206 2.729206 0 1 1 0 5.458411" fill="#32B7FF" /><path d="M421.774311 1000.52883h-21.833647a5.458412 5.458412 0 0 1-4.91257-2.729206l-10.916824-18.5586a5.458412 5.458412 0 0 1 0-5.458412l10.916824-18.558599a5.458412 5.458412 0 0 1 4.91257-2.729206h21.833647a5.458412 5.458412 0 0 1 4.912571 2.729206l10.916823 18.558599a5.458412 5.458412 0 0 1 0.545841 4.36673 5.458412 5.458412 0 0 1-2.729206 3.275047 5.458412 5.458412 0 0 1-7.641776-2.183365l-9.2793-15.829394h-15.283553l-7.641776 12.554347 7.641776 12.554347h18.5586a5.458412 5.458412 0 1 1 0 10.916823z m-21.833647-42.02977l-10.916823 18.558599 10.916823 18.5586h0.545842l-10.916824-18.012758 10.916824-18.012759h21.833646l10.916824 18.012759-10.370982-18.5586z" fill="#32B7FF" /><path d="M356.273371 997.799624h-21.833647a2.729206 2.729206 0 1 1 0-5.458412h20.196123l9.2793-15.283553-9.2793-15.283552h-18.012758l-10.370983 16.375235a2.729206 2.729206 0 0 1-3.820888 1.091682 2.729206 2.729206 0 0 1-1.091682-3.820888l10.916823-18.5586a2.729206 2.729206 0 0 1 2.729206-1.637523h21.833647a2.729206 2.729206 0 0 1 2.729206 1.637523l10.916823 18.5586a2.729206 2.729206 0 0 1 0 2.729206l-10.916823 18.558599a2.729206 2.729206 0 0 1-2.729206 1.637524" fill="#32B7FF" /><path d="M356.273371 1000.52883h-21.833647a5.458412 5.458412 0 1 1 0-10.916824H353.544165l7.641776-12.554347-7.641776-13.100188h-15.829394l-9.2793 15.829394a5.458412 5.458412 0 0 1-7.641776 2.183365 5.458412 5.458412 0 0 1-2.729206-3.275047 5.458412 5.458412 0 0 1 0.545841-4.366729l10.916823-18.5586a5.458412 5.458412 0 0 1 4.912571-2.729206h21.833647a5.458412 5.458412 0 0 1 4.91257 2.729206l10.916824 18.5586a5.458412 5.458412 0 0 1 0 5.458411l-10.916824 18.5586a5.458412 5.458412 0 0 1-4.91257 2.183365z m-21.833647-5.458412h21.833647l10.916823-18.5586-10.916823-18.5586h-21.833647l-10.916823 18.5586 10.916823-18.012758h21.833647l10.916823 18.012758-10.916823 18.012759z" fill="#32B7FF" /><path d="M389.023841 1015.812382h-1.637524a2.729206 2.729206 0 0 1-1.091682-3.820888l9.825141-16.921076-9.2793-15.283553h-18.012758l-9.2793 15.283553 9.825141 16.921076a2.729206 2.729206 0 0 1-1.091682 3.820888 2.729206 2.729206 0 0 1-3.820889-1.091682l-10.916823-18.5586a2.729206 2.729206 0 0 1 0-2.729206l10.916823-18.558599a2.729206 2.729206 0 0 1 2.729206-1.637524h21.833647a2.729206 2.729206 0 0 1 2.729206 1.637524l10.916823 18.558599a2.729206 2.729206 0 0 1 0 2.729206l-10.916823 18.5586a2.729206 2.729206 0 0 1-2.729206 1.637524" fill="#32B7FF" /><path d="M389.023841 1018.541588H386.294635a5.458412 5.458412 0 0 1-2.729206-3.275047 5.458412 5.458412 0 0 1 0.545841-4.366729l9.2793-15.283553-7.641776-12.554347h-15.283553l-7.641776 12.554347 9.2793 15.283553a5.458412 5.458412 0 0 1 0.545841 4.366729 5.458412 5.458412 0 0 1-2.729206 3.275047 5.458412 5.458412 0 0 1-7.641776-2.183364l-10.916824-18.5586a5.458412 5.458412 0 0 1 0-5.458412l10.916824-18.5586a5.458412 5.458412 0 0 1 4.91257-2.729205h21.833647a5.458412 5.458412 0 0 1 4.912571 2.729205l10.916823 18.5586a5.458412 5.458412 0 0 1 0 5.458412l-10.916823 18.5586a5.458412 5.458412 0 0 1-4.912571 2.183364z m-21.833647-42.02977h21.287806l10.916823 18.012759-10.916823 18.5586h0.545841l10.916823-18.5586-10.916823-18.5586h-21.833647l-10.916823 18.5586 10.916823 18.5586-10.370982-18.5586z" fill="#32B7FF" /><path d="M421.774311 961.228265h-21.833647a2.729206 2.729206 0 0 1-2.729205-1.637523l-10.916824-18.5586a2.729206 2.729206 0 0 1 0-2.729206l10.916824-18.558599a2.729206 2.729206 0 0 1 2.729205-1.637524h21.833647a2.729206 2.729206 0 1 1 0 5.458412h-20.196123l-9.2793 15.283552 9.2793 15.283553h18.5586l9.825141-16.921076a2.729206 2.729206 0 0 1 3.820888-1.091682 2.729206 2.729206 0 0 1 1.091682 3.820888l-10.916823 18.5586a2.729206 2.729206 0 0 1-2.729206 1.637523" fill="#32B7FF" /><path d="M421.774311 963.957471h-21.833647a5.458412 5.458412 0 0 1-4.91257-2.729206l-10.916824-18.558599a5.458412 5.458412 0 0 1 0-5.458412l10.916824-18.5586a5.458412 5.458412 0 0 1 4.91257-2.729206h21.833647a5.458412 5.458412 0 1 1 0 10.916824h-18.5586l-7.641776 12.554347 7.641776 12.554347h15.283553l9.2793-15.829394a5.458412 5.458412 0 0 1 7.641776-2.183365 5.458412 5.458412 0 0 1 2.729206 3.275047 5.458412 5.458412 0 0 1-0.545841 4.366729l-10.916823 18.5586a5.458412 5.458412 0 0 1-4.912571 3.820888z m-21.833647-42.02977l-10.916823 18.5586 10.916823 18.5586h22.379488l10.916824-18.5586-10.916824 18.012759h-21.833646l-10.916824-18.012759 10.916824-18.012759z" fill="#32B7FF" /><path d="M389.023841 942.669666h-21.833647a2.729206 2.729206 0 0 1-2.729206-1.637524l-10.916823-18.5586a2.729206 2.729206 0 0 1 0-2.729205l10.916823-18.5586a2.729206 2.729206 0 0 1 3.820889-1.091683 2.729206 2.729206 0 0 1 1.091682 3.820889l-9.825141 16.921076 9.2793 15.283553h18.558599l9.2793-15.283553-9.825141-16.921076a2.729206 2.729206 0 0 1 1.091683-3.820889 2.729206 2.729206 0 0 1 3.820888 1.091683l10.916823 18.5586a2.729206 2.729206 0 0 1 0 2.729205l-10.916823 18.5586a2.729206 2.729206 0 0 1-2.729206 1.637524" fill="#32B7FF" /><path d="M389.023841 945.398872h-21.833647a5.458412 5.458412 0 0 1-4.91257-2.729206l-10.916824-18.5586a5.458412 5.458412 0 0 1 0-5.458412l10.916824-18.5586a5.458412 5.458412 0 0 1 7.641776-2.183364 5.458412 5.458412 0 0 1 2.729206 3.275047 5.458412 5.458412 0 0 1-0.545841 4.366729l-9.2793 15.283553 7.641776 12.554347H386.294635l7.641777-12.554347-9.2793-14.737712a5.458412 5.458412 0 0 1-0.545842-4.366729 5.458412 5.458412 0 0 1 2.729206-3.275047 5.458412 5.458412 0 0 1 7.641777 2.183365l10.916823 18.558599a5.458412 5.458412 0 0 1 0 5.458412l-10.916823 18.5586a5.458412 5.458412 0 0 1-5.458412 2.183365z m-21.833647-42.029771l-11.462664 18.5586 10.916823 18.5586h22.379488l10.916823-18.5586-10.916823-18.5586 10.370982 18.5586-10.916823 18.012759h-21.833647l-10.916823-18.012759z" fill="#32B7FF" /><path d="M356.273371 961.228265h-21.833647a2.729206 2.729206 0 0 1-2.729206-1.637523l-10.916823-18.5586a2.729206 2.729206 0 0 1 1.091682-3.820888 2.729206 2.729206 0 0 1 3.820888 1.091682l9.825141 16.921077h18.5586l9.279" fill="#32B7FF" /></svg>