<?xml version="1.0" standalone="no"?><!DOCTYPE svg PUBLIC "-//W3C//DTD SVG 1.1//EN" "http://www.w3.org/Graphics/SVG/1.1/DTD/svg11.dtd"><svg class="icon" width="200px" height="200.00px" viewBox="0 0 1024 1024" version="1.1" xmlns="http://www.w3.org/2000/svg"><path d="M419.513211 311.976457a207.175806 206.790721 0 1 0 414.351612 0 207.175806 206.790721 0 1 0-414.351612 0Z" fill="#FAD700" /><path d="M487.673281 159.482742a207.175806 207.175806 0 1 1 232.20634 338.104753 207.175806 207.175806 0 0 0-232.20634-338.104753z" fill="#FFBE34" /><path d="M514.244156 139.073229a207.175806 207.175806 0 1 1 200.244273 361.209862 207.175806 207.175806 0 0 0-200.244273-361.209862z" fill="#FF9019" /><path d="M544.665882 286.175753m-15.403406 0a15.403406 15.403406 0 1 0 30.806812 0 15.403406 15.403406 0 1 0-30.806812 0Z"  /><path d="M671.743979 286.175753m-15.403406 0a15.403406 15.403406 0 1 0 30.806811 0 15.403406 15.403406 0 1 0-30.806811 0Z"  /><path d="M565.46048 361.267356a39.66377 39.66377 0 1 0 79.327539 0 39.66377 39.66377 0 1 0-79.327539 0Z" fill="#FF8472" /><path d="M605.124249 408.632828a47.365472 47.365472 0 1 1 47.365473-47.365472 47.365472 47.365472 0 0 1-47.365473 47.365472z m0-78.942454a31.962067 31.962067 0 1 0 31.962067 31.962067 31.962067 31.962067 0 0 0-31.962067-31.962067z"  /><path d="M694.849087 350.484972a17.713916 17.713916 0 1 0 35.427833 0 17.713916 17.713916 0 1 0-35.427833 0Z" fill="#FF9218" /><path d="M597.037461 543.412627a222.579212 222.579212 0 0 1-222.579211-222.194126A220.268701 220.268701 0 0 1 394.867762 228.027897a15.503528 15.503528 0 0 1 28.111215 13.092895 189.846975 189.846975 0 0 0-17.713916 80.097709 191.7724 191.7724 0 0 0 330.017966 132.469288 15.403406 15.403406 0 0 1 22.334938 21.179683 220.653786 220.653786 0 0 1-160.580504 68.545155z m174.443569-95.501115a15.403406 15.403406 0 0 1-13.092895-23.875278 190.617145 190.617145 0 0 0 20.794598-43.514621 15.403406 15.403406 0 0 1 29.266471 9.627128 221.809041 221.809041 0 0 1-23.875279 50.446154 15.403406 15.403406 0 0 1-13.092895 7.316617z m32.732237-111.674691a15.403406 15.403406 0 0 1-15.403406-15.403405 191.7724 191.7724 0 0 0-191.7724-191.387315l-18.484087 0.77017a15.480423 15.480423 0 0 1-3.080681-30.806811l21.564768-1.155256A222.579212 222.579212 0 0 1 819.616673 320.448331a15.403406 15.403406 0 0 1-15.403406 16.173575zM439.152553 202.612277a15.403406 15.403406 0 0 1-11.552554-25.415619 223.734467 223.734467 0 0 1 40.43394-36.968173 15.441914 15.441914 0 0 1 18.099002 25.030534 192.927656 192.927656 0 0 0-34.657663 31.962066 15.403406 15.403406 0 0 1-12.322725 5.391192zM513.473986 147.160017a15.403406 15.403406 0 0 1-6.161363-29.651556l18.869172-7.316617a15.465019 15.465019 0 0 1 10.012214 29.26647l-16.558661 6.161363a15.403406 15.403406 0 0 1-6.161362 1.54034z"  /><path d="M466.878684 350.484972a17.713916 17.713916 0 1 0 35.427833 0 17.713916 17.713916 0 1 0-35.427833 0Z" fill="#FF9218" /><path d="M640.166997 631.212039a11.552554 11.552554 0 0 1-11.552554-9.627128l-5.391192-31.191897a11.552554 11.552554 0 1 1 22.720023-3.850851l5.391192 31.191896a11.552554 11.552554 0 0 1-9.242043 13.47798z m-205.25038-51.216323a11.552554 11.552554 0 0 1-10.012214-17.328832l15.788491-27.341045a11.560256 11.560256 0 0 1 20.024427 11.552554l-15.78849 27.341046a11.552554 11.552554 0 0 1-10.012214 5.776277z m395.097355-41.20411a11.552554 11.552554 0 0 1-7.316618-2.695596l-24.260364-20.409513a11.610317 11.610317 0 1 1 15.018321-17.713916l24.260363 20.409512a11.552554 11.552554 0 0 1-7.316617 20.409513zM310.919201 409.017913a11.552554 11.552554 0 0 1-3.850851-22.334938l29.651556-10.782384a11.552554 11.552554 0 1 1 8.086788 21.564768l-30.036641 10.782384z m574.161946-63.539048a11.552554 11.552554 0 0 1 0-23.105109h31.576981a11.552554 11.552554 0 0 1 0 23.105109h-31.576981zM355.589078 208.77364l-3.850852-0.770171-30.036641-10.782384a11.552554 11.552554 0 1 1 7.701703-21.564767l29.651556 10.782383a11.552554 11.552554 0 0 1-3.850851 22.334939z m478.66083-46.210217a11.552554 11.552554 0 0 1-7.316618-20.409513l24.260364-20.409512a11.610317 11.610317 0 0 1 15.018321 17.713916l-24.260364 20.409513a11.552554 11.552554 0 0 1-7.701703 2.695596z m-345.806457-89.339753a11.552554 11.552554 0 0 1-10.012213-5.776277l-15.788491-27.341045a11.560256 11.560256 0 0 1 20.024427-11.552554l15.788491 27.341045a11.552554 11.552554 0 0 1-10.012214 17.328831z m189.076805-18.099002h-1.925426a11.552554 11.552554 0 0 1-9.242043-13.47798l5.391192-31.191896a11.552554 11.552554 0 1 1 22.720023 3.850851l-5.391192 31.191897a11.552554 11.552554 0 0 1-11.552554 9.627128z"  /><path d="M532.343158 728.63858H303.217499a159.040163 159.040163 0 0 1-64.309219-303.832176 159.040163 159.040163 0 0 1 86.259072-118.991309 156.344567 156.344567 0 0 1 69.315325-16.173576 157.884908 157.884908 0 0 1 154.034056 123.997416 155.959482 155.959482 0 0 1 53.14175 20.409512 159.040163 159.040163 0 0 1 76.246858 135.935055q0 8.086788-0.77017 15.788491h1.925425a71.625836 71.625836 0 0 1 0 143.251672h-97.041455" fill="#D2F7FF" /><path d="M678.675511 723.247388a72.781092 72.781092 0 0 0-54.297005-120.916734h-1.925425q0.77017-8.086788 0.77017-16.173576a161.735759 161.735759 0 0 0-77.402114-138.245566 159.425248 159.425248 0 0 0-53.911919-20.794597 160.580504 160.580504 0 0 0-204.095125-118.991309 159.810334 159.810334 0 0 1 243.373809 98.581796 158.655078 158.655078 0 0 1 53.526835 20.409513 160.195419 160.195419 0 0 1 77.017028 137.09031q0 8.086788-0.77017 15.788491h1.925425a72.396007 72.396007 0 0 1 15.403406 142.866587z" fill="#9CEDFF" /><path d="M701.78062 707.843982a72.781092 72.781092 0 0 0-54.297005-120.916734h-1.925426q0.77017-8.086788 0.77017-16.173576a161.735759 161.735759 0 0 0-77.402113-138.245565 159.425248 159.425248 0 0 0-53.91192-20.794598 160.580504 160.580504 0 0 0-204.095125-118.991309 159.810334 159.810334 0 0 1 243.37381 98.581797 158.655078 158.655078 0 0 1 53.526834 20.409512 160.195419 160.195419 0 0 1 77.017028 137.09031q0 8.086788-0.77017 15.788491h1.925426a72.396007 72.396007 0 0 1 15.403405 142.866587z" fill="#32B7FF" /><path d="M650.949381 736.340283h-39.278684a15.403406 15.403406 0 0 1 0-30.806811h39.278684a56.800058 56.800058 0 0 0 0-113.600117h-1.540341a15.788491 15.788491 0 0 1-11.552554-5.006107 15.403406 15.403406 0 0 1-4.235936-11.937639c0.385085-4.621022 0.77017-9.627129 0.77017-14.24815a144.021843 144.021843 0 0 0-12.322725-58.918027 15.403406 15.403406 0 0 1 28.111216-12.322725 174.828654 174.828654 0 0 1 15.01832 71.240752v1.54034a87.414327 87.414327 0 0 1-14.24815 174.058484z m-338.104754 0h-42.359365A175.598824 175.598824 0 0 1 191.542808 404.011806a175.983909 175.983909 0 0 1 31.576981-70.855666 15.403406 15.403406 0 1 1 24.645449 18.484087 145.177098 145.177098 0 0 0-26.95596 65.079389 15.403406 15.403406 0 0 1-8.856958 11.937639 144.792013 144.792013 0 0 0 58.918027 277.261302h42.359365a15.403406 15.403406 0 0 1 0 30.806811z m288.043686-275.720961a15.403406 15.403406 0 0 1-10.782384-4.235937 145.177098 145.177098 0 0 0-25.41562-19.639342 15.403406 15.403406 0 0 1 16.173576-26.185789 175.983909 175.983909 0 0 1 31.191897 23.875278 15.403406 15.403406 0 0 1-10.782384 26.570875z m-82.023135-42.359366a15.403406 15.403406 0 0 1-15.018321-11.937639A145.562183 145.562183 0 0 0 363.290781 293.492371a142.481502 142.481502 0 0 0-63.539049 14.633235 15.414958 15.414958 0 0 1-13.47798-27.72613 173.288313 173.288313 0 0 1 77.017029-17.713917 176.368995 176.368995 0 0 1 170.977802 137.090311 15.403406 15.403406 0 0 1-11.552554 18.484086z"  /><path d="M289.739519 487.960367m-17.328832 0a17.328831 17.328831 0 1 0 34.657663 0 17.328831 17.328831 0 1 0-34.657663 0Z"  /><path d="M451.475278 487.960367m-17.328831 0a17.328831 17.328831 0 1 0 34.657662 0 17.328831 17.328831 0 1 0-34.657662 0Z"  /><path d="M370.607398 576.529949m-44.284791 0a44.284791 44.284791 0 1 0 88.569583 0 44.284791 44.284791 0 1 0-88.569583 0Z" fill="#FF8472" /><path d="M370.607398 628.516443A51.986494 51.986494 0 1 1 422.593892 576.529949 51.986494 51.986494 0 0 1 370.607398 628.516443z m0-88.569582a36.583088 36.583088 0 1 0 36.583089 36.583088 36.583088 36.583088 0 0 0-36.583089-36.583088z"  /><path d="M230.051322 574.604524m-23.105109 0a23.105108 23.105108 0 1 0 46.210217 0 23.105108 23.105108 0 1 0-46.210217 0Z" fill="#FAD700" /><path d="M511.163475 574.604524m-23.105109 0a23.105108 23.105108 0 1 0 46.210217 0 23.105108 23.105108 0 1 0-46.210217 0Z" fill="#FAD700" /><path d="M395.637932 1023.998883a15.403406 15.403406 0 0 1-11.167469-25.800704l16.558661-18.099002a15.403406 15.403406 0 0 1 22.720024 20.794598l-16.558661 18.099001a15.403406 15.403406 0 0 1-11.552555 5.006107z m40.048855-43.514621a15.403406 15.403406 0 0 1-11.167469-25.800704l43.899706-47.750558a15.403406 15.403406 0 0 1 22.720023 20.794598l-44.284791 47.750557a15.403406 15.403406 0 0 1-11.167469 5.006107zM384.085378 776.389138a15.403406 15.403406 0 0 1-10.782384-26.18579l24.260364-24.260364a15.403406 15.403406 0 0 1 17.713917-2.695596 15.403406 15.403406 0 0 1 2.695596-17.713916l10.397298-10.397299a15.518931 15.518931 0 0 1 21.949854 21.949853l-10.397299 10.397299a15.403406 15.403406 0 0 1-17.713917 2.695596 15.403406 15.403406 0 0 1-2.695596 17.713916l-24.260364 24.260364a15.403406 15.403406 0 0 1-11.167469 4.235937zM453.400704 803.345097a15.403406 15.403406 0 0 1-10.782384-26.185789l55.45226-55.45226a15.518931 15.518931 0 1 1 21.949853 21.949853l-55.837345 55.067175a15.403406 15.403406 0 0 1-10.782384 4.621021zM307.06835 912.324192a15.403406 15.403406 0 0 1-11.167469-25.800704l16.558661-18.099002a15.403406 15.403406 0 0 1 22.720023 20.794598l-16.558661 18.099002a15.403406 15.403406 0 0 1-11.552554 5.006106z m40.048855-43.514621a15.403406 15.403406 0 0 1-11.167469-25.800704l43.899706-47.750558a15.403406 15.403406 0 0 1 22.720023 20.794598l-44.284791 47.750558a15.403406 15.403406 0 0 1-11.167469 5.006106z" fill="#32B7FF" /><path d="M376.383675 772.538286a15.403406 15.403406 0 0 1-10.782384-26.185789l24.260364-24.260364a15.403406 15.403406 0 0 1 17.713917-2.695596 15.403406 15.403406 0 0 1 2.695596-17.713917l10.397299-10.397299a15.518931 15.518931 0 0 1 21.949853 21.949853l-10.397299 10.397299a15.403406 15.403406 0 0 1-17.713917 2.695596 15.403406 15.403406 0 0 1-2.695596 17.713917l-24.260363 24.260364a15.403406 15.403406 0 0 1-11.16747 4.235936z"  /><path d="M291.664944 1023.998883a15.403406 15.403406 0 0 1-11.167469-25.800704l16.558661-18.099002a15.403406 15.403406 0 0 1 22.720024 20.794598l-16.558661 18.099001a15.403406 15.403406 0 0 1-11.552555 5.006107z m40.048855-43.514621a15.403406 15.403406 0 0 1-11.167469-25.800704l43.899706-47.750558a15.403406 15.403406 0 0 1 22.720023 20.794598l-44.284791 47.750557a15.403406 15.403406 0 0 1-11.167469 5.006107z" fill="#FAD700" /><path d="M297.826307 912.324192a15.403406 15.403406 0 0 1-11.167469-25.800704l16.558661-18.099002a15.403406 15.403406 0 0 1 22.720023 20.794598l-16.558661 18.099002a15.403406 15.403406 0 0 1-11.552554 5.006106zM337.875161 868.809571a15.403406 15.403406 0 0 1-11.167469-25.800704l43.899706-47.750558a15.403406 15.403406 0 1 1 22.720024 20.794598l-44.284792 47.750558a15.403406 15.403406 0 0 1-11.167469 5.006106z"  /><path d="M437.997298 884.212977a15.403406 15.403406 0 0 1-10.782384-26.18579l12.70781-12.707809a15.518931 15.518931 0 0 1 21.949853 21.949853l-12.70781 12.70781a15.403406 15.403406 0 0 1-11.167469 4.235936z m46.210217-46.210217a15.403406 15.403406 0 0 1-10.782384-26.185789l9.242043-9.242044a15.518931 15.518931 0 0 1 21.949853 21.949853l-9.242043 9.242044a15.403406 15.403406 0 0 1-11.167469 4.235936z" fill="#FAD700" /><path d="M280.11239 1023.998883a15.403406 15.403406 0 0 1-11.167469-25.800704l16.558661-18.099002a15.403406 15.403406 0 0 1 22.720023 20.794598l-16.558661 18.099001a15.403406 15.403406 0 0 1-11.552554 5.006107z m40.048855-43.514621a15.403406 15.403406 0 0 1-11.167469-25.800704l43.899706-47.750558a15.403406 15.403406 0 0 1 22.720023 20.794598l-44.284791 47.750557a15.403406 15.403406 0 0 1-11.167469 5.006107z"  /><path d="M495.760069 691.670407a15.403406 15.403406 0 0 1-10.782384-26.18579l7.701703-7.701703a15.518931 15.518931 0 0 1 21.949853 21.949853l-7.701703 7.701703a15.403406 15.403406 0 0 1-11.167469 4.235937z m45.440047-45.440047a15.403406 15.403406 0 0 1-10.782384-26.18579l10.012214-10.012213a15.518931 15.518931 0 0 1 21.949853 21.949853l-10.012214 10.012213a15.403406 15.403406 0 0 1-11.167469 4.235937z" fill="#32B7FF" /><path d="M387.93623 1023.998883a15.403406 15.403406 0 0 1-11.167469-25.800704l16.558661-18.099002a15.403406 15.403406 0 0 1 22.720023 20.794598l-16.558661 18.099001a15.403406 15.403406 0 0 1-11.552554 5.006107z m40.048854-43.514621a15.403406 15.403406 0 0 1-11.167469-25.800704l43.899706-47.750558a15.403406 15.403406 0 0 1 22.720024 20.794598l-44.284792 47.750557a15.403406 15.403406 0 0 1-11.167469 5.006107zM437.997298 803.345097a15.403406 15.403406 0 0 1-10.782384-26.185789l55.45226-55.45226a15.518931 15.518931 0 1 1 21.949853 21.949853l-55.837345 55.067175a15.403406 15.403406 0 0 1-10.782384 4.621021zM488.058366 691.670407a15.403406 15.403406 0 0 1-10.782384-26.18579l7.701703-7.701703a15.518931 15.518931 0 0 1 21.949853 21.949853l-7.701703 7.701703a15.403406 15.403406 0 0 1-11.167469 4.235937z m45.440047-45.440047a15.403406 15.403406 0 0 1-10.782384-26.18579l10.012214-10.012213a15.518931 15.518931 0 0 1 21.949853 21.949853l-10.012214 10.012213a15.403406 15.403406 0 0 1-11.167469 4.235937zM430.295595 884.212977a15.403406 15.403406 0 0 1-10.782384-26.18579l12.70781-12.707809a15.518931 15.518931 0 0 1 21.949853 21.949853l-12.70781 12.70781a15.403406 15.403406 0 0 1-11.167469 4.235936z m46.210217-46.210217a15.403406 15.403406 0 0 1-10.782384-26.185789l9.242044-9.242044a15.518931 15.518931 0 0 1 21.949853 21.949853l-9.242044 9.242044a15.403406 15.403406 0 0 1-11.167469 4.235936z"  /></svg>