<?xml version="1.0" standalone="no"?><!DOCTYPE svg PUBLIC "-//W3C//DTD SVG 1.1//EN" "http://www.w3.org/Graphics/SVG/1.1/DTD/svg11.dtd"><svg class="icon" width="200px" height="200.00px" viewBox="0 0 1024 1024" version="1.1" xmlns="http://www.w3.org/2000/svg"><path d="M402.345548 354.655368a235.517809 235.080043 0 1 0 471.035617 0 235.517809 235.080043 0 1 0-471.035617 0Z" fill="#FAD700" /><path d="M479.830031 181.300252a235.517809 235.517809 0 1 1 263.972563 384.358059 235.517809 235.517809 0 0 0-263.972563-384.358059z" fill="#FFBE34" /><path d="M510.035847 158.098683a235.517809 235.517809 0 1 1 227.638031 410.623986 235.517809 235.517809 0 0 0-227.638031-410.623986z" fill="#FF9019" /><path d="M544.619317 325.325083m-17.510618 0a17.510618 17.510618 0 1 0 35.021236 0 17.510618 17.510618 0 1 0-35.021236 0Z"  /><path d="M689.081913 325.325083m-17.510617 0a17.510618 17.510618 0 1 0 35.021235 0 17.510618 17.510618 0 1 0-35.021235 0Z"  /><path d="M577.451725 395.367554h89.741916a45.089841 45.089841 0 0 1-89.741916 0z" fill="#FF8472" /><path d="M622.1038 447.023876a53.407384 53.407384 0 0 1-53.845149-51.218557 8.755309 8.755309 0 0 1 8.755309-9.193074h89.741916a8.755309 8.755309 0 0 1 8.755309 9.193074 53.407384 53.407384 0 0 1-53.407385 51.218557z m-34.58347-42.901013a36.334532 36.334532 0 0 0 69.166941 0z"  /><path d="M715.34784 398.431912a20.13721 20.13721 0 1 0 40.274421 0 20.13721 20.13721 0 1 0-40.274421 0Z" fill="#FF9218" /><path d="M604.155417 617.752399a253.028426 253.028426 0 0 1-253.028426-252.590661A250.401834 250.401834 0 0 1 374.32856 259.222501a17.624437 17.624437 0 0 1 31.956877 14.884025 215.818364 215.818364 0 0 0-20.13721 91.055212 218.007191 218.007191 0 0 0 375.164984 150.591313 17.510618 17.510618 0 0 1 25.390396 24.077099 250.839599 250.839599 0 0 1-182.54819 77.922249z m198.307746-108.56583a17.510618 17.510618 0 0 1-14.884025-27.141457 216.693894 216.693894 0 0 0 23.639334-49.467496 17.510618 17.510618 0 0 1 33.270174 10.944137 252.152895 252.152895 0 0 1-27.141458 57.347273 17.510618 17.510618 0 0 1-14.884025 8.317543z m37.210063-126.951979a17.510618 17.510618 0 0 1-17.510618-17.510617 218.007191 218.007191 0 0 0-218.007191-217.569426l-21.012741 0.875531a17.598171 17.598171 0 0 1-3.502124-35.021235l24.514865-1.313297A253.028426 253.028426 0 0 1 857.183844 364.286207a17.510618 17.510618 0 0 1-17.510618 18.386149zM424.671586 230.329982a17.510618 17.510618 0 0 1-13.132964-28.89252 254.341723 254.341723 0 0 1 45.965372-42.025482 17.554394 17.554394 0 0 1 20.574976 28.454754 219.320487 219.320487 0 0 0-39.39889 36.334531 17.510618 17.510618 0 0 1-14.008494 6.128717zM509.160316 167.291758a17.510618 17.510618 0 0 1-7.004247-33.707939l21.450507-8.317544a17.58066 17.58066 0 0 1 11.381901 33.270174l-18.823914 7.004247a17.510618 17.510618 0 0 1-7.004247 1.751062z"  /><path d="M456.190697 398.431912a20.13721 20.13721 0 1 0 40.274421 0 20.13721 20.13721 0 1 0-40.274421 0Z" fill="#FF9218" /><path d="M653.185147 717.56292a13.132963 13.132963 0 0 1-13.132963-10.944136l-6.128717-35.459001a13.132963 13.132963 0 1 1 25.828162-4.377654l6.128716 35.459001a13.132963 13.132963 0 0 1-10.506371 15.32179z m-233.328981-58.222804a13.132963 13.132963 0 0 1-11.381902-19.699445l17.948383-31.081346a13.141719 13.141719 0 0 1 22.763803 13.132963l-17.948383 31.081346a13.132963 13.132963 0 0 1-11.381901 6.566482z m449.147345-46.840902a13.132963 13.132963 0 0 1-8.317544-3.064358l-27.579223-23.201569a13.198628 13.198628 0 1 1 17.072853-20.13721l27.579222 23.201568a13.132963 13.132963 0 0 1-8.317543 23.201569zM278.895693 464.972259a13.132963 13.132963 0 0 1-4.377655-25.390395l33.70794-12.257433a13.132963 13.132963 0 1 1 9.193074 24.514865l-34.145705 12.257432z m652.708276-72.231298a13.132963 13.132963 0 0 1 0-26.265926h35.896766a13.132963 13.132963 0 0 1 0 26.265926h-35.896766zM329.676484 237.334229l-4.377654-0.875531-34.145705-12.257433a13.132963 13.132963 0 1 1 8.755309-24.514864l33.707939 12.257432a13.132963 13.132963 0 0 1-4.377654 25.390396z m544.142446-52.531854a13.132963 13.132963 0 0 1-8.317543-23.201568l27.579223-23.201569a13.198628 13.198628 0 0 1 17.072852 20.137211l-27.579223 23.201568a13.132963 13.132963 0 0 1-8.755309 3.064358z m-393.113368-101.561582a13.132963 13.132963 0 0 1-11.381901-6.566482l-17.948383-31.081347a13.141719 13.141719 0 1 1 22.763803-13.132963l17.948383 31.081347a13.132963 13.132963 0 0 1-11.381902 19.699445z m214.942833-20.574976h-2.188827a13.132963 13.132963 0 0 1-10.506371-15.321791l6.128716-35.459001a13.132963 13.132963 0 1 1 25.828161 4.377655l-6.128716 35.459001a13.132963 13.132963 0 0 1-13.132963 10.944136z"  /><path d="M436.491252 992.041853a17.510618 17.510618 0 0 1-12.257432-29.76805l14.44626-14.44626a17.641947 17.641947 0 0 1 24.95263 24.952631l-14.44626 14.446259a17.510618 17.510618 0 0 1-12.695198 4.81542z m52.531854-52.531853a17.510618 17.510618 0 0 1-12.257433-29.76805l10.506371-10.506371a17.641947 17.641947 0 0 1 24.95263 24.95263l-10.50637 10.506371a17.510618 17.510618 0 0 1-12.695198 4.81542zM287.651002 1023.99873a17.510618 17.510618 0 0 1-12.695198-29.330284l18.823914-20.574976a17.510618 17.510618 0 0 1 25.828161 23.639334l-18.823914 20.574976a17.510618 17.510618 0 0 1-13.132963 5.69095z m45.527606-49.467495a17.510618 17.510618 0 0 1-12.695198-29.330284l49.905261-54.282915a17.510618 17.510618 0 0 1 25.828161 23.639334l-50.343026 54.282915a17.510618 17.510618 0 0 1-12.695198 5.69095z" fill="#FAD700" /><path d="M348.938164 793.296342a245.148648 245.148648 0 1 1 224.135907-344.521404A172.91735 172.91735 0 1 1 598.464467 793.296342z" fill="#D2F7FF" /><path d="M666.31811 778.412317a172.91735 172.91735 0 0 0-140.084942-274.041168 174.668412 174.668412 0 0 0-23.201568 1.313297 245.148648 245.148648 0 0 0-341.457046-116.007843 245.148648 245.148648 0 0 1 411.061751 59.5361 172.91735 172.91735 0 0 1 93.24404 329.637379z" fill="#9CEDFF" /><path d="M375.20409 865.089875a17.510618 17.510618 0 0 1-12.257432-29.768051l27.579223-27.579223a17.510618 17.510618 0 0 1 20.13721-3.064358 17.510618 17.510618 0 0 1 3.064358-20.13721l11.819667-11.819667a17.641947 17.641947 0 0 1 24.952631 24.95263l-11.819667 11.819667a17.510618 17.510618 0 0 1-20.137211 3.064358 17.510618 17.510618 0 0 1-3.064358 20.137211l-27.579223 27.579223a17.510618 17.510618 0 0 1-12.695198 4.81542z" fill="#32B7FF" /><path d="M261.385075 537.203557a19.699445 19.699445 0 1 0 39.39889 0 19.699445 19.699445 0 1 0-39.39889 0Z"  /><path d="M423.358289 537.203557a19.699445 19.699445 0 1 0 39.39889 0 19.699445 19.699445 0 1 0-39.39889 0Z"  /><path d="M418.980635 640.078437H318.294583a50.343026 50.343026 0 0 1 100.686052 0z" fill="#FF8472" /><path d="M418.980635 648.833745H318.294583a8.755309 8.755309 0 0 1-8.755309-9.193074 59.098335 59.098335 0 0 1 118.19667 0 8.755309 8.755309 0 0 1-8.755309 9.193074z m-90.617447-17.510617h80.548842a41.587717 41.587717 0 0 0-80.548842 0z"  /><path d="M471.512488 619.065695a22.763803 22.763803 0 1 0 45.527606 0 22.763803 22.763803 0 1 0-45.527606 0Z" fill="#FAD700" /><path d="M182.587295 619.065695a22.763803 22.763803 0 1 0 45.527606 0 22.763803 22.763803 0 1 0-45.527606 0Z" fill="#FAD700" /><path d="M449.624216 900.11111a17.510618 17.510618 0 0 1-12.257433-29.76805l63.038224-63.038224a17.641947 17.641947 0 0 1 24.952631 24.95263l-63.47599 62.600459a17.510618 17.510618 0 0 1-12.257432 5.253185z" fill="#32B7FF" /><path d="M324.861064 837.072886H305.161619a262.659266 262.659266 0 0 1-227.200265-394.426664 17.510618 17.510618 0 1 1 30.205816 17.510617 227.638031 227.638031 0 0 0 196.994449 341.457046h19.699445a17.510618 17.510618 0 0 1 0 35.021236z m217.569426 0a17.510618 17.510618 0 1 1 0-35.021235h12.257432a155.406732 155.406732 0 0 0-2.188827-310.813465 158.033325 158.033325 0 0 0-20.574976 1.313296 17.510618 17.510618 0 0 1-18.386148-10.068605A228.075796 228.075796 0 0 0 305.161619 346.77559a17.510618 17.510618 0 0 1 0-35.021236 263.097031 263.097031 0 0 1 234.642278 144.900362h12.695198a190.427968 190.427968 0 0 1 2.188827 380.855936zM142.312875 408.500517a17.510618 17.510618 0 0 1-11.819667-30.643581 262.659266 262.659266 0 0 1 67.415878-43.338779 17.536884 17.536884 0 1 1 14.446259 31.956878 227.638031 227.638031 0 0 0-58.222803 37.647828 17.510618 17.510618 0 0 1-11.819667 4.377654z"  /><path d="M366.448782 865.089875a17.510618 17.510618 0 0 1-12.257433-29.768051l27.579223-27.579223a17.510618 17.510618 0 0 1 20.13721-3.064358 17.510618 17.510618 0 0 1 3.064359-20.13721l11.819667-11.819667a17.641947 17.641947 0 0 1 24.95263 24.95263l-11.819667 11.819667a17.510618 17.510618 0 0 1-20.137211 3.064358 17.510618 17.510618 0 0 1-3.064358 20.137211l-27.579223 27.579223a17.510618 17.510618 0 0 1-12.695197 4.81542z"  /><path d="M277.144631 1023.99873a17.510618 17.510618 0 0 1-12.695198-29.330284l18.823914-20.574976a17.510618 17.510618 0 0 1 25.828161 23.639334l-18.823914 20.574976a17.510618 17.510618 0 0 1-13.132963 5.69095zM322.672237 974.531235a17.510618 17.510618 0 0 1-12.695198-29.330284l49.905261-54.282915a17.510618 17.510618 0 1 1 25.828161 23.639334l-50.343026 54.282915a17.510618 17.510618 0 0 1-12.695198 5.69095z"  /><path d="M436.491252 900.11111a17.510618 17.510618 0 0 1-12.257432-29.76805l63.038224-63.038224a17.641947 17.641947 0 0 1 24.95263 24.95263l-63.475989 62.600459a17.510618 17.510618 0 0 1-12.257433 5.253185z"  /><path d="M427.735944 992.041853a17.510618 17.510618 0 0 1-12.257433-29.76805l14.44626-14.44626a17.641947 17.641947 0 0 1 24.95263 24.952631l-14.44626 14.446259a17.510618 17.510618 0 0 1-12.695197 4.81542z m52.531853-52.531853a17.510618 17.510618 0 0 1-12.257433-29.76805l10.506371-10.506371a17.641947 17.641947 0 0 1 24.95263 24.95263l-10.50637 10.506371a17.510618 17.510618 0 0 1-12.695198 4.81542z"  /></svg>