<?xml version="1.0" standalone="no"?><!DOCTYPE svg PUBLIC "-//W3C//DTD SVG 1.1//EN" "http://www.w3.org/Graphics/SVG/1.1/DTD/svg11.dtd"><svg class="icon" width="200px" height="200.00px" viewBox="0 0 1024 1024" version="1.1" xmlns="http://www.w3.org/2000/svg"><path d="M446.527564 548.248735a187.128831 187.128831 0 0 1-76.120202-357.493094A187.128831 187.128831 0 0 1 472.354061 50.748841 183.957156 183.957156 0 0 1 553.911421 31.71879a185.769542 185.769542 0 0 1 181.238577 145.897055 183.504059 183.504059 0 0 1 62.527309 24.014111 187.128831 187.128831 0 0 1 89.713096 159.943044q0 9.515025-0.906193 18.576955h2.265482a84.275938 84.275938 0 0 1 0 168.551876H446.527564z" fill="#D2F7FF" /><path d="M888.296596 541.905385a85.635228 85.635228 0 0 0-63.886599-142.272283h-2.265482q0.906193-9.515025 0.906193-19.030051a190.300506 190.300506 0 0 0-91.072385-162.661623 187.581927 187.581927 0 0 0-63.433502-24.467208 188.941217 188.941217 0 0 0-240.141115-140.006801 188.035024 188.035024 0 0 1 286.356952 115.99269 186.675734 186.675734 0 0 1 62.980406 24.014111 188.48812 188.48812 0 0 1 90.619288 161.302334q0 9.515025-0.906193 18.576954h2.265483a85.182131 85.182131 0 0 1 18.123857 168.09878z" fill="#9CEDFF" /><path d="M915.482382 523.781527a85.635228 85.635228 0 0 0-63.886598-142.272283h-2.265482q0.906193-9.515025 0.906193-19.030051a190.300506 190.300506 0 0 0-91.072385-162.661623 187.581927 187.581927 0 0 0-63.433502-24.467208 188.941217 188.941217 0 0 0-240.141115-140.006801 188.035024 188.035024 0 0 1 286.356952 115.99269 186.675734 186.675734 0 0 1 62.980405 24.014111 188.48812 188.48812 0 0 1 90.619289 161.302334q0 9.515025-0.906193 18.576954h2.265482a85.182131 85.182131 0 0 1 18.123858 168.098781z" fill="#32B7FF" /><path d="M855.673652 557.310664h-46.215837a18.123858 18.123858 0 0 1 0-36.247716h46.215837a66.831725 66.831725 0 0 0 0-133.66345h-1.812386a18.123858 18.123858 0 0 1-18.576954-19.936244c0.453096-5.437157 0.906193-11.327411 0.906193-16.764568a169.45807 169.45807 0 0 0-14.499086-69.323756 18.123858 18.123858 0 0 1 33.07604-14.499086 205.705785 205.705785 0 0 1 17.670761 83.822842v1.812386a102.852893 102.852893 0 0 1-16.764568 204.799592z m-294.965784 0H408.014366a206.611978 206.611978 0 0 1-93.337867-391.022231 207.065074 207.065074 0 0 1 37.153908-83.369745 18.123858 18.123858 0 0 1 28.998173 21.748629 170.817359 170.817359 0 0 0-31.716751 76.573299 18.123858 18.123858 0 0 1-10.421218 13.592893 170.364263 170.364263 0 0 0 69.323755 326.229439h153.146598a18.123858 18.123858 0 0 1 0 36.247716z m236.063246-324.417053a18.123858 18.123858 0 0 1-12.6867-4.984061 170.817359 170.817359 0 0 0-29.904365-23.107919 18.123858 18.123858 0 0 1 19.03005-30.810558 207.065074 207.065074 0 0 1 36.700812 28.091979 18.123858 18.123858 0 0 1-12.6867 31.263655z m-96.509542-49.387513a18.123858 18.123858 0 0 1-17.670761-14.045989A171.270455 171.270455 0 0 0 517.210609 36.249754a167.645684 167.645684 0 0 0-74.760913 17.217665 18.137451 18.137451 0 0 1-15.858375-32.622944 203.440303 203.440303 0 0 1 90.619288-20.842436 207.518171 207.518171 0 0 1 201.174821 161.302334 18.123858 18.123858 0 0 1-13.592894 21.748629z"  /><path d="M435.200153 265.063458m-20.38934 0a20.38934 20.38934 0 1 0 40.77868 0 20.38934 20.38934 0 1 0-40.77868 0Z"  /><path d="M625.500659 265.063458m-20.38934 0a20.38934 20.38934 0 1 0 40.77868 0 20.38934 20.38934 0 1 0-40.77868 0Z"  /><path d="M480.509797 344.355336h99.228121a52.106091 52.106091 0 1 1-99.228121 0z" fill="#FF8472" /><path d="M530.350406 421.381731a61.16802 61.16802 0 0 1-58.449441-79.744974 9.061929 9.061929 0 0 1 8.608832-6.34335h99.228121a9.061929 9.061929 0 0 1 8.608833 6.34335A61.16802 61.16802 0 0 1 530.350406 421.381731z m-42.591066-67.964467a43.044162 43.044162 0 1 0 85.182132 0z"  /><path d="M342.315382 367.010158m-27.185786 0a27.185787 27.185787 0 1 0 54.371573 0 27.185787 27.185787 0 1 0-54.371573 0Z" fill="#FAD700" /><path d="M691.199643 367.010158m-27.185786 0a27.185787 27.185787 0 1 0 54.371573 0 27.185787 27.185787 0 1 0-54.371573 0Z" fill="#FAD700" /><path d="M782.272028 779.327921h-89.713095a18.123858 18.123858 0 0 1 0-36.247716h89.259999a18.123858 18.123858 0 1 1 0 36.247716z m-207.518171 0H106.705232a18.123858 18.123858 0 0 1 0-36.247716h468.048625a18.123858 18.123858 0 1 1 0 36.247716zM648.608578 675.115739H345.940154a18.123858 18.123858 0 0 1 0-36.247716h302.668424a18.123858 18.123858 0 0 1 0 36.247716z m-391.475327 0H211.37051a18.123858 18.123858 0 0 1 0-36.247716h45.762741a18.123858 18.123858 0 0 1 0 36.247716z m-118.258172 0H64.567263a18.123858 18.123858 0 0 1 0-36.247716h74.307816a18.123858 18.123858 0 0 1 0 36.247716z" fill="#9B72FF" /><path d="M645.889999 675.115739a18.123858 18.123858 0 0 1 0-36.247716 77.026395 77.026395 0 1 0 0-154.05279 18.123858 18.123858 0 1 1 0-36.247716 113.274111 113.274111 0 1 1 0 226.548222z" fill="#9B72FF" /><path d="M644.077613 656.991881H341.409189a18.123858 18.123858 0 0 1 0-36.247715h302.668424a18.123858 18.123858 0 0 1 0 36.247715z m-391.475327 0H206.839546a18.123858 18.123858 0 0 1 0-36.247715h45.76274a18.123858 18.123858 0 0 1 0 36.247715z m-118.258171 0H60.036298a18.123858 18.123858 0 0 1 0-36.247715h74.307817a18.123858 18.123858 0 0 1 0 36.247715z"  /><path d="M641.359034 656.991881a18.123858 18.123858 0 0 1 0-36.247715 77.026395 77.026395 0 1 0 0-154.052791 18.123858 18.123858 0 1 1 0-36.247715 113.274111 113.274111 0 1 1 0 226.548221z"  /><path d="M764.148171 883.540103H376.297615a18.123858 18.123858 0 0 1 0-36.247716h387.397459a18.123858 18.123858 0 1 1 0 36.247716z m-481.641519 0H192.793556a18.123858 18.123858 0 0 1 0-36.247716h89.713096a18.123858 18.123858 0 0 1 0 36.247716z" fill="#9B72FF" /><path d="M765.960556 1024a18.123858 18.123858 0 0 1 0-36.247715 52.106091 52.106091 0 0 0 0-104.212182 18.123858 18.123858 0 0 1 0-36.247716 88.353806 88.353806 0 0 1 0 176.707613z" fill="#9B72FF" /><path d="M782.272028 761.204063h-89.713095a18.123858 18.123858 0 0 1 0-36.247715h89.259999a18.123858 18.123858 0 1 1 0 36.247715z m-207.518171 0H106.705232a18.123858 18.123858 0 0 1 0-36.247715h468.048625a18.123858 18.123858 0 1 1 0 36.247715z"  /><path d="M759.617206 865.416245H371.766651a18.123858 18.123858 0 0 1 0-36.247715h387.397459a18.123858 18.123858 0 1 1 0 36.247715z m-481.641519 0H188.262592a18.123858 18.123858 0 0 1 0-36.247715h89.713095a18.123858 18.123858 0 0 1 0 36.247715z"  /><path d="M761.429592 1005.876142a18.123858 18.123858 0 0 1 0-36.247715 52.106091 52.106091 0 0 0 0-104.212182 18.123858 18.123858 0 0 1 0-36.247715 88.353806 88.353806 0 0 1 0 176.707612z"  /></svg>