<?xml version="1.0" standalone="no"?><!DOCTYPE svg PUBLIC "-//W3C//DTD SVG 1.1//EN" "http://www.w3.org/Graphics/SVG/1.1/DTD/svg11.dtd"><svg class="icon" width="200px" height="200.00px" viewBox="0 0 1024 1024" version="1.1" xmlns="http://www.w3.org/2000/svg"><path d="M658.43194 644.998107H341.264392a220.151592 220.151592 0 0 1-89.55319-420.580159 220.151592 220.151592 0 0 1 119.937308-164.713902 216.420209 216.420209 0 0 1 95.949846-22.388298 218.552427 218.552427 0 0 1 213.221881 171.643614 215.887154 215.887154 0 0 1 73.561549 28.251899 220.151592 220.151592 0 0 1 105.544831 188.16831q0 11.194149-1.06611 21.855242h2.665274a99.148174 99.148174 0 0 1 0 198.296349h-134.329785" fill="#D2F7FF" /><path d="M860.992726 637.535342a100.747339 100.747339 0 0 0-75.160713-167.379177h-2.665273q1.066109-11.194149 1.066109-22.388297A223.882975 223.882975 0 0 0 677.088854 256.40123a220.684646 220.684646 0 0 0-74.627658-28.784954 222.28381 222.28381 0 0 0-282.518992-164.713902 221.217701 221.217701 0 0 1 336.890571 136.462003 219.618537 219.618537 0 0 1 74.094604 28.251899 221.750756 221.750756 0 0 1 106.61094 189.767474q0 11.194149-1.066109 21.855243h2.665273a100.214284 100.214284 0 0 1 21.322188 197.763294z" fill="#9CEDFF" /><path d="M892.976008 616.213154a100.747339 100.747339 0 0 0-75.160713-167.379177h-2.665273q1.066109-11.194149 1.066109-22.388297A223.882975 223.882975 0 0 0 709.072136 235.079042a220.684646 220.684646 0 0 0-74.627658-28.784954A222.28381 222.28381 0 0 0 351.925486 41.580186a221.217701 221.217701 0 0 1 336.890571 136.462003 219.618537 219.618537 0 0 1 74.094604 28.251899 221.750756 221.750756 0 0 1 106.61094 189.767474q0 11.194149-1.066109 21.855243h2.665273a100.214284 100.214284 0 0 1 21.322188 197.763294z" fill="#32B7FF" /><path d="M822.612787 655.659201h-54.371579a21.322188 21.322188 0 0 1 0-42.644376h54.371579a78.625568 78.625568 0 0 0 0-157.251136h-2.132218a21.322188 21.322188 0 0 1-21.855243-23.454407c0.533055-6.396656 1.066109-13.326368 1.066109-19.723024a199.362458 199.362458 0 0 0-17.05775-81.55737 21.322188 21.322188 0 0 1 38.912993-17.05775 242.006834 242.006834 0 0 1 20.789133 98.61512v2.132219a121.003417 121.003417 0 0 1-19.723024 240.940724z m-468.022027 0h-58.636017a243.072944 243.072944 0 0 1-109.809269-460.026207 243.605998 243.605998 0 0 1 43.710486-98.082065 21.322188 21.322188 0 0 1 34.115501 25.586626 200.961622 200.961622 0 0 0-37.313829 90.086244 21.322188 21.322188 0 0 1-12.260259 15.991642 200.428568 200.428568 0 0 0 81.55737 383.799384h58.636017a21.322188 21.322188 0 0 1 0 42.644376z m398.724916-381.667166a21.322188 21.322188 0 0 1-14.925531-5.863601 200.961622 200.961622 0 0 0-35.181611-27.18579 21.322188 21.322188 0 0 1 22.388298-36.24772 243.605998 243.605998 0 0 1 43.177431 33.049392 21.322188 21.322188 0 0 1-14.925532 36.780774zM639.775025 215.889073a21.322188 21.322188 0 0 1-20.789133-16.524696A201.494677 201.494677 0 0 0 424.420926 42.646295a197.230239 197.230239 0 0 0-87.954026 20.256079 21.33818 21.33818 0 0 1-18.656915-38.379939 239.874616 239.874616 0 0 1 106.610941-24.520516A244.139053 244.139053 0 0 1 661.097213 189.769393a21.322188 21.322188 0 0 1-15.991641 25.586625z"  /><path d="M399.900409 969.095366a21.322188 21.322188 0 0 1-14.392477-37.313829l54.37158-49.041033a21.322188 21.322188 0 0 1 28.784954 31.450228l-54.37158 49.041032a21.322188 21.322188 0 0 1-14.392477 5.863602z m123.135636-111.408433a21.322188 21.322188 0 0 1-14.392477-37.313829L597.130649 740.947954l-143.924769-2.132219a21.322188 21.322188 0 0 1-13.859423-37.313829l76.226823-66.098783a21.33818 21.33818 0 0 1 28.251899 31.983282l-34.115501 29.851063 142.325605 2.132219a21.322188 21.322188 0 0 1 13.859422 37.313829l-128.466183 115.139816a21.322188 21.322188 0 0 1-14.392477 5.863601z m68.231002-238.808506a21.322188 21.322188 0 0 1-13.859422-37.313829l51.173251-44.776595a21.33818 21.33818 0 1 1 28.251899 31.983282l-51.173251 44.776595a21.322188 21.322188 0 0 1-14.392477 5.330547z" fill="#FAD700" /><path d="M338.599119 311.838919m-23.987462 0a23.987462 23.987462 0 1 0 47.974923 0 23.987462 23.987462 0 1 0-47.974923 0Z"  /><path d="M562.482093 311.838919m-23.987461 0a23.987462 23.987462 0 1 0 47.974923 0 23.987462 23.987462 0 1 0-47.974923 0Z"  /><path d="M266.636734 447.767868m-31.983282 0a31.983282 31.983282 0 1 0 63.966564 0 31.983282 31.983282 0 1 0-63.966564 0Z" fill="#FAD700" /><path d="M629.113931 447.767868m-31.983282 0a31.983282 31.983282 0 1 0 63.966564 0 31.983282 31.983282 0 1 0-63.966564 0Z" fill="#FAD700" /><path d="M351.925486 415.784586l197.23024 0 0 63.966564-197.23024 0 0-63.966564Z" fill="#FF8472" /><path d="M517.172444 479.75115H383.908768a31.983282 31.983282 0 0 1 0-63.966564h133.263676a31.983282 31.983282 0 0 1 0 63.966564z m-133.263676-42.644376a10.661094 10.661094 0 0 0 0 21.322188h133.263676a10.661094 10.661094 0 0 0 0-21.322188z"  /><path d="M730.394324 885.405778a21.322188 21.322188 0 0 1-21.322188-21.322188V735.617407a21.322188 21.322188 0 0 1 42.644376 0v128.466183a21.322188 21.322188 0 0 1-21.322188 21.322188zM357.256033 788.922877a21.322188 21.322188 0 0 1-21.322188-21.322188v-74.627658a21.322188 21.322188 0 0 1 42.644376 0v74.627658a21.322188 21.322188 0 0 1-21.322188 21.322188zM730.394324 1007.475304a21.322188 21.322188 0 0 1-21.322188-21.322188v-53.30547a21.322188 21.322188 0 0 1 42.644376 0v53.30547a21.322188 21.322188 0 0 1-21.322188 21.322188z" fill="#32B7FF" /><path d="M377.512112 979.75646a21.322188 21.322188 0 0 1-14.392477-37.313829l54.37158-49.041033a21.322188 21.322188 0 0 1 28.784953 31.450228l-54.371579 49.041032a21.322188 21.322188 0 0 1-14.392477 5.863602z m123.135636-111.408433a21.322188 21.322188 0 0 1-14.392477-37.313829L574.742351 751.609048l-143.924769-2.132219a21.322188 21.322188 0 0 1-13.859422-37.313829l76.226822-66.098783a21.33818 21.33818 0 0 1 28.251899 31.983282l-34.115501 29.851063 142.325606 2.132219a21.322188 21.322188 0 0 1 13.859422 37.313829l-128.466183 115.139816a21.322188 21.322188 0 0 1-14.392477 5.863601z m68.231002-238.808506a21.322188 21.322188 0 0 1-13.859423-37.313829l51.173252-44.776595a21.33818 21.33818 0 1 1 28.251899 31.983282l-51.173251 44.776595a21.322188 21.322188 0 0 1-14.392477 5.330547z"  /><path d="M602.461196 922.719607a21.322188 21.322188 0 0 1-21.322188-21.322188V858.219988a21.322188 21.322188 0 0 1 42.644376 0v43.177431a21.322188 21.322188 0 0 1-21.322188 21.322188zM357.256033 874.211629a21.322188 21.322188 0 0 1-21.322188-21.322188v-26.652735a21.322188 21.322188 0 0 1 42.644376 0v26.652735a21.322188 21.322188 0 0 1-21.322188 21.322188zM543.825179 1018.669453a21.322188 21.322188 0 0 1-21.322188-21.322188V954.169834a21.322188 21.322188 0 0 1 42.644376 0v43.177431a21.322188 21.322188 0 0 1-21.322188 21.322188z" fill="#32B7FF" /><path d="M341.264392 792.121205a21.322188 21.322188 0 0 1-21.322188-21.322188v-74.627658a21.322188 21.322188 0 0 1 42.644376 0v74.627658a21.322188 21.322188 0 0 1-21.322188 21.322188z"  /><path d="M341.264392 874.211629a21.322188 21.322188 0 0 1-21.322188-21.322188v-26.652735a21.322188 21.322188 0 0 1 42.644376 0v26.652735a21.322188 21.322188 0 0 1-21.322188 21.322188z"  /><path d="M719.73323 890.736325a21.322188 21.322188 0 0 1-21.322188-21.322188V740.947954a21.322188 21.322188 0 1 1 42.644376 0v128.466183a21.322188 21.322188 0 0 1-21.322188 21.322188z"  /><path d="M719.73323 1012.805851a21.322188 21.322188 0 0 1-21.322188-21.322188v-53.30547a21.322188 21.322188 0 0 1 42.644376 0v53.30547a21.322188 21.322188 0 0 1-21.322188 21.322188z"  /><path d="M591.800102 928.050154a21.322188 21.322188 0 0 1-21.322188-21.322188V863.550535a21.322188 21.322188 0 0 1 42.644376 0v43.177431a21.322188 21.322188 0 0 1-21.322188 21.322188z"  /><path d="M533.164085 1024a21.322188 21.322188 0 0 1-21.322188-21.322188V959.500381a21.322188 21.322188 0 0 1 42.644376 0v43.177431a21.322188 21.322188 0 0 1-21.322188 21.322188z"  /></svg>