<?xml version="1.0" encoding="utf-8"?>
<!-- Generator: Adobe Illustrator 22.1.0, SVG Export Plug-In . SVG Version: 6.00 Build 0)  -->
<svg version="1.1" id="Layer_1" xmlns="http://www.w3.org/2000/svg" xmlns:xlink="http://www.w3.org/1999/xlink" x="0px" y="0px"
	 viewBox="0 0 200 200" style="enable-background:new 0 0 200 200;" xml:space="preserve">
<style type="text/css">
	.st0{fill:#FFE98D;}
	.st1{fill:#FFBE34;}
	.st2{fill:#FF9019;}
	.st3{fill:#FF8472;}
	.st4{fill:#FF9218;}
</style>
<path class="st0" d="M38.1,98.7c0,36.4,29.6,65.9,66,65.9s66-29.5,66-65.9c0-36.4-29.5-65.9-66-65.9C67.7,32.8,38.2,62.3,38.1,98.7
	C38.1,98.7,38.1,98.7,38.1,98.7z"/>
<path class="st1" d="M59.8,50.1c26.9-24.5,68.6-22.5,93.1,4.4s22.5,68.6-4.4,93.1c-4.4,4-9.3,7.4-14.6,10.1
	c26.9-24.5,28.9-66.2,4.4-93.1C118.4,42.7,86.3,36.8,59.8,50.1z"/>
<path class="st2" d="M68.4,43.6c30.5-19.9,71.3-11.3,91.2,19.2s11.3,71.3-19.2,91.2c-2.6,1.7-5.3,3.2-8.1,4.5
	c30.5-19.9,39.1-60.7,19.2-91.2C133.5,39.8,98.1,29.7,68.4,43.6z"/>
<path d="M73.1,90.5c0,2.7,2.2,4.9,4.9,4.9s4.9-2.2,4.9-4.9s-2.2-4.9-4.9-4.9S73.1,87.8,73.1,90.5z"/>
<path d="M113.6,90.5c0,2.7,2.2,4.9,4.9,4.9c2.7,0,4.9-2.2,4.9-4.9c0,0,0,0,0,0c0-2.7-2.2-4.9-4.9-4.9
	C115.8,85.6,113.6,87.8,113.6,90.5C113.6,90.5,113.6,90.5,113.6,90.5z"/>
<path class="st3" d="M87.2,110h25.2c0,7-5.6,12.6-12.6,12.6C92.8,122.6,87.2,117,87.2,110L87.2,110z"/>
<path d="M99.8,124.2c-7.9,0-14.4-6.2-14.8-14.1c-0.1-1.2,0.9-2.2,2.1-2.3c0,0,0.1,0,0.1,0h25.2c1.2,0,2.2,1,2.2,2.2c0,0,0,0.1,0,0.1
	C114.2,118,107.7,124.3,99.8,124.2z M89.7,112.2c1.4,5.6,7.1,8.9,12.7,7.5c3.7-0.9,6.5-3.8,7.5-7.5H89.7z"/>
<path class="st4" d="M125.7,111c0,3.1,2.5,5.7,5.7,5.7c3.1,0,5.7-2.5,5.7-5.7c0,0,0,0,0,0c0-3.1-2.5-5.7-5.7-5.7
	C128.3,105.3,125.7,107.8,125.7,111C125.7,111,125.7,111,125.7,111z"/>
<path d="M94.7,171.9c-38.8,0-70.3-31.4-70.4-70.3c0-10.2,2.2-20.2,6.5-29.4c1-2.2,3.6-3.2,5.9-2.1s3.2,3.6,2.1,5.9l0,0
	c-3.7,8.1-5.7,16.8-5.7,25.7c0.1,34,27.7,61.6,61.7,61.5c16.7,0,32.7-6.9,44.3-18.9c1.7-1.7,4.5-1.6,6.2,0.1
	c1.6,1.6,1.7,4.2,0.2,5.9C132.3,164.1,113.9,171.9,94.7,171.9z M150.2,141.4c-2.4,0-4.4-1.9-4.4-4.3c0-0.9,0.2-1.7,0.7-2.5
	c2.8-4.4,5.1-9.1,6.7-14c0.8-2.3,3.2-3.5,5.5-2.8c2.3,0.8,3.5,3.2,2.8,5.5c-1.8,5.6-4.4,11-7.6,16
	C153.2,140.6,151.8,141.4,150.2,141.4L150.2,141.4z M160.6,105.9c-2.4,0-4.4-2-4.4-4.4c0,0,0,0,0,0c-0.1-33.9-27.6-61.4-61.5-61.4
	l-5.9,0.3c-2.4,0.3-4.6-1.5-4.8-3.9s1.5-4.6,3.9-4.8c0,0,0,0,0,0l6.8-0.3c38.8,0,70.3,31.4,70.4,70.3c0,2.4-2,4.4-4.4,4.4
	c0,0-0.1,0-0.1,0V105.9z M44.4,63.3c-2.4,0-4.4-2-4.3-4.4c0-1,0.4-2,1.1-2.8c3.7-4.4,8-8.3,12.7-11.7c2-1.4,4.7-1,6.1,1
	c1.4,2,1,4.7-1,6.1c-4.1,3-7.9,6.4-11.2,10.3C46.9,62.7,45.7,63.3,44.4,63.3z M68,45.6c-2.4,0-4.4-1.9-4.5-4.3c0-1.8,1-3.5,2.7-4.1
	l6-2.2c2.3-0.8,4.8,0.4,5.6,2.7c0.8,2.3-0.4,4.8-2.7,5.6l-5.4,2C69.2,45.5,68.6,45.7,68,45.6z"/>
<path class="st4" d="M53.3,111c0,3.1,2.5,5.7,5.7,5.7c3.1,0,5.7-2.5,5.7-5.7c0-3.1-2.5-5.7-5.7-5.7C55.8,105.3,53.3,107.9,53.3,111z
	"/>
<path d="M108.4,200c-1.6,0-3-1.1-3.3-2.7l-1.8-9.9c-0.2-1.8,1.2-3.4,3-3.6c1.6-0.2,3.1,0.9,3.5,2.5l1.8,9.9c0.3,1.8-0.8,3.5-2.6,3.8
	c0,0,0,0,0,0H108.4z M43.1,183.7c-1.8,0-3.3-1.5-3.3-3.3c0-0.6,0.2-1.1,0.4-1.6l5-8.8c0.9-1.6,2.9-2.2,4.5-1.3
	c1.6,0.9,2.2,2.9,1.3,4.5c0,0,0,0.1,0,0.1l-5,8.8C45.3,183.1,44.3,183.7,43.1,183.7L43.1,183.7z M169,170.6c-0.8,0-1.5-0.3-2.1-0.8
	l-7.7-6.5c-1.4-1.2-1.6-3.3-0.4-4.7c1.2-1.4,3.3-1.6,4.7-0.4l7.7,6.5c1.4,1.2,1.6,3.2,0.4,4.6c-0.6,0.7-1.5,1.2-2.5,1.2L169,170.6z
	 M3.6,129.2c-1.8,0-3.2-1.6-3.2-3.4c0-1.3,0.9-2.5,2.1-3l9.4-3.4c1.7-0.5,3.6,0.5,4.1,2.3c0.4,1.5-0.3,3.2-1.8,3.9L4.7,129
	L3.6,129.2z M186.4,109c-1.8,0-3.3-1.5-3.3-3.3c0-1.8,1.5-3.3,3.3-3.3h10.1c1.8,0,3.3,1.5,3.3,3.3c0,1.8-1.5,3.3-3.3,3.3H186.4
	L186.4,109z M17.8,65.4l-1.1-0.2l-9.5-3.4c-1.6-0.8-2.2-2.8-1.4-4.4c0.7-1.3,2.2-2,3.6-1.7l9.5,3.4c1.7,0.6,2.5,2.5,1.9,4.2
	C20.3,64.5,19.1,65.3,17.8,65.4z M170.2,50.7c-1.8,0-3.3-1.5-3.3-3.3c0-1,0.4-1.9,1.2-2.5l7.7-6.5c1.4-1.2,3.5-1,4.7,0.4
	c1.2,1.4,1,3.5-0.4,4.7l-7.7,6.5C171.7,50.4,171,50.7,170.2,50.7L170.2,50.7z M60.2,22.2c-1.2,0-2.3-0.6-2.8-1.6l-5-8.6
	c-0.9-1.6-0.4-3.6,1.1-4.5C55,6.5,57,7,57.9,8.6c0,0,0,0.1,0,0.1l5,8.6c0.9,1.6,0.4,3.6-1.2,4.5C61.3,22.1,60.7,22.2,60.2,22.2z
	 M120.4,16.4h-0.5c-1.8-0.3-3-2-2.6-3.8c0,0,0,0,0,0l1.8-9.9c0.4-1.8,2.2-2.8,4-2.4c1.6,0.4,2.6,1.9,2.5,3.5l-1.8,9.9
	C123.4,15.3,122,16.4,120.4,16.4L120.4,16.4z"/>
</svg>
