<?xml version="1.0" standalone="no"?><!DOCTYPE svg PUBLIC "-//W3C//DTD SVG 1.1//EN" "http://www.w3.org/Graphics/SVG/1.1/DTD/svg11.dtd"><svg class="icon" width="200px" height="200.00px" viewBox="0 0 1024 1024" version="1.1" xmlns="http://www.w3.org/2000/svg"><path d="M665.044161 674.123376H333.554726a230.092666 230.092666 0 0 1-93.597016-439.571703 230.092666 230.092666 0 0 1 125.353147-172.151656 226.19279 226.19279 0 0 1 100.282518-23.399254 228.421291 228.421291 0 0 1 222.85004 179.394282 225.635665 225.635665 0 0 1 76.883264 29.52763 230.092666 230.092666 0 0 1 110.310769 196.66516q0 11.699627-1.11425 22.842129h2.785626a103.625269 103.625269 0 0 1 0 207.250537h-140.395526" fill="#D2F7FF" /><path d="M876.751698 666.323625a105.296644 105.296644 0 0 0-78.554639-174.937282h-2.785625q1.11425-11.699627 1.11425-23.399254A233.992542 233.992542 0 0 0 684.543539 267.979179a230.649791 230.649791 0 0 0-77.997514-30.084756 232.321167 232.321167 0 0 0-295.276303-172.151656 231.206916 231.206916 0 0 1 352.103063 142.624026 229.535541 229.535541 0 0 1 77.440389 29.52763 231.764041 231.764041 0 0 1 111.42502 198.336536q0 11.699627-1.11425 22.842129h2.785625a104.739519 104.739519 0 0 1 22.285004 206.693412z" fill="#9CEDFF" /><path d="M910.179204 644.038621a105.296644 105.296644 0 0 0-78.554639-174.937282h-2.785625q1.11425-11.699627 1.11425-23.399254A233.992542 233.992542 0 0 0 717.971045 245.694175a230.649791 230.649791 0 0 0-77.997514-30.084756A232.321167 232.321167 0 0 0 344.697228 43.457763a231.206916 231.206916 0 0 1 352.103063 142.624026 229.535541 229.535541 0 0 1 77.440389 29.52763 231.764041 231.764041 0 0 1 111.42502 198.336536q0 11.699627-1.11425 22.842129h2.785625a104.739519 104.739519 0 0 1 22.285004 206.693412z" fill="#32B7FF" /><path d="M836.638691 685.265878h-56.82676a22.285004 22.285004 0 0 1 0-44.570008h56.82676a82.175952 82.175952 0 0 0 0-164.351904h-2.2285a22.285004 22.285004 0 0 1-22.842129-24.513505c0.557125-6.685501 1.11425-13.928127 1.11425-20.613628a208.364787 208.364787 0 0 0-17.828003-85.240141 22.285004 22.285004 0 0 1 40.670132-17.828003 252.934795 252.934795 0 0 1 21.727879 103.068144v2.2285a126.467398 126.467398 0 0 1-20.613629 251.820545z m-489.155837 0h-61.283761a254.049045 254.049045 0 0 1-114.767771-480.798961 254.60617 254.60617 0 0 1 45.684259-102.511018 22.285004 22.285004 0 0 1 35.656006 26.742005 210.036163 210.036163 0 0 0-38.998757 94.154141 22.285004 22.285004 0 0 1-12.813877 16.713753 209.479037 209.479037 0 0 0 85.24014 401.130072h61.283761a22.285004 22.285004 0 0 1 0 44.570008z m416.729574-398.901571a22.285004 22.285004 0 0 1-15.599502-6.128376 210.036163 210.036163 0 0 0-36.770257-28.41338 22.285004 22.285004 0 0 1 23.399254-37.884507 254.60617 254.60617 0 0 1 45.127133 34.541756 22.285004 22.285004 0 0 1-15.599503 38.441632zM645.544782 225.637671a22.285004 22.285004 0 0 1-21.727879-17.270878A210.593288 210.593288 0 0 0 420.466242 44.572014a206.136287 206.136287 0 0 0-91.925642 21.170753 22.301718 22.301718 0 0 1-19.499378-40.113007 250.706295 250.706295 0 0 1 111.42502-25.627754A255.163296 255.163296 0 0 1 667.829786 198.338541a22.285004 22.285004 0 0 1-16.713753 26.742005z"  /><path d="M394.838487 1012.855437a22.285004 22.285004 0 0 1-15.042377-38.998757l56.82676-51.255509a22.285004 22.285004 0 0 1 30.084755 32.87038l-56.82676 51.25551a22.285004 22.285004 0 0 1-15.042378 6.128376z m128.695898-116.439146a22.285004 22.285004 0 0 1-15.042377-38.998757L600.974774 774.405894l-150.423777-2.2285a22.285004 22.285004 0 0 1-14.485252-38.998757l79.668889-69.083513a22.301718 22.301718 0 0 1 29.52763 33.427506l-35.656006 31.199006 148.752401 2.2285a22.285004 22.285004 0 0 1 14.485253 38.998757l-134.267149 120.339022a22.285004 22.285004 0 0 1-15.042378 6.128376z m71.312013-249.592045a22.285004 22.285004 0 0 1-14.485253-38.998757l53.48401-46.798508a22.301718 22.301718 0 1 1 29.52763 33.427506l-53.484009 46.798508a22.285004 22.285004 0 0 1-15.042378 5.571251z" fill="#FAD700" /><path d="M330.769101 325.920189m-25.07063 0a25.070629 25.070629 0 1 0 50.141259 0 25.070629 25.070629 0 1 0-50.141259 0Z"  /><path d="M564.761643 325.920189m-25.07063 0a25.070629 25.070629 0 1 0 50.141259 0 25.070629 25.070629 0 1 0-50.141259 0Z"  /><path d="M255.557212 467.987089m-33.427506 0a33.427506 33.427506 0 1 0 66.855012 0 33.427506 33.427506 0 1 0-66.855012 0Z" fill="#FAD700" /><path d="M634.40228 467.987089m-33.427506 0a33.427506 33.427506 0 1 0 66.855012 0 33.427506 33.427506 0 1 0-66.855012 0Z" fill="#FAD700" /><path d="M344.697228 434.559583l206.136287 0 0 66.855012-206.136287 0 0-66.855012Z" fill="#FF8472" /><path d="M517.406009 501.414595H378.124734a33.427506 33.427506 0 0 1 0-66.855012h139.281275a33.427506 33.427506 0 0 1 0 66.855012z m-139.281275-44.570008a11.142502 11.142502 0 0 0 0 22.285004h139.281275a11.142502 11.142502 0 0 0 0-22.285004z"  /><path d="M371.439233 1023.997939a22.285004 22.285004 0 0 1-15.042378-38.998757l56.826761-51.255509a22.285004 22.285004 0 0 1 30.084755 32.87038l-56.82676 51.25551a22.285004 22.285004 0 0 1-15.042378 6.128376z m128.695898-116.439146a22.285004 22.285004 0 0 1-15.042378-38.998757L577.57552 785.548396l-150.423777-2.2285a22.285004 22.285004 0 0 1-14.485252-38.998757l79.668889-69.083513a22.301718 22.301718 0 0 1 29.52763 33.427506l-35.656006 31.199006 148.752401 2.2285a22.285004 22.285004 0 0 1 14.485253 38.998757l-134.267149 120.339022a22.285004 22.285004 0 0 1-15.042378 6.128376z m71.312013-249.592045a22.285004 22.285004 0 0 1-14.485253-38.998757l53.48401-46.798508a22.301718 22.301718 0 1 1 29.52763 33.427506l-53.484009 46.798508a22.285004 22.285004 0 0 1-15.042378 5.571251z"  /></svg>