<?xml version="1.0" standalone="no"?><!DOCTYPE svg PUBLIC "-//W3C//DTD SVG 1.1//EN" "http://www.w3.org/Graphics/SVG/1.1/DTD/svg11.dtd"><svg class="icon" width="200px" height="194.68px" viewBox="0 0 1052 1024" version="1.1" xmlns="http://www.w3.org/2000/svg"><path d="M475.216752 26.735953a461.193207 461.193207 0 0 0 434.025216 610.948473 458.542671 458.542671 0 0 0 115.960936-14.577946 459.205305 459.205305 0 1 1-549.986152-596.370527z" fill="#FACD00" /><path d="M591.840321 959.061876A487.03593 487.03593 0 0 1 468.590413 0.893231a26.505357 26.505357 0 0 1 31.806428 34.456963 434.68785 434.68785 0 0 0 408.845127 575.828875 432.699948 432.699948 0 0 0 109.334597-13.915312 26.505357 26.505357 0 0 1 31.806428 34.456964 485.710662 485.710662 0 0 1-458.542672 327.341155zM436.121351 67.156622a434.025216 434.025216 0 1 0 546.010348 591.732089 489.023832 489.023832 0 0 1-72.889731 5.301071 487.698564 487.698564 0 0 1-473.120617-597.03316z" fill="#FACD00" /><path d="M425.519208 79.746667a441.314189 441.314189 0 0 0 416.1341 585.105749 439.326288 439.326288 0 0 0 111.322499-14.577946A439.988922 439.988922 0 1 1 425.519208 79.746667z" fill="#FAF400" /><path d="M536.841706 974.302456A467.819546 467.819546 0 0 1 418.892869 53.903944a26.505357 26.505357 0 0 1 31.806428 34.456964 414.146199 414.146199 0 0 0 494.987537 536.733473 26.505357 26.505357 0 0 1 31.806428 34.456964A466.494278 466.494278 0 0 1 536.841706 974.302456zM386.423807 120.167336a414.146199 414.146199 0 1 0 522.818161 565.889366 467.819546 467.819546 0 0 1-522.818161-565.889366z" fill="#FAF400" /><path d="M497.746305 762.259602s33.131696-26.505357 43.733839-56.323883 7.288973-45.059106 7.288973-45.059106 100.057722 92.106115-51.022812 101.382989z" fill="#FF8472" /><path d="M497.746305 772.199111a9.939509 9.939509 0 0 1-5.963705-17.891116s31.143794-25.180089 40.420669-52.348079 7.288973-39.758035 7.288973-40.420669a9.939509 9.939509 0 0 1 5.301071-10.602143 9.939509 9.939509 0 0 1 11.264777 1.325268c4.638437 4.638437 45.72174 43.733839 33.131696 78.853436-8.614241 23.854821-38.432767 37.107499-90.780847 40.420669z m59.637053-86.805043a169.634283 169.634283 0 0 1-6.62634 23.854821 125.237811 125.237811 0 0 1-25.180088 40.420669c25.180089-4.638437 40.420669-12.590044 44.396472-23.854821s-3.31317-28.493258-12.590044-40.420669z"  /><path d="M270.462871 552.867284a13.252678 13.252678 0 0 1-13.252678-12.590044c-1.325268-27.830625 14.577946-83.491874 83.491873-94.75665a13.252678 13.252678 0 0 1 3.975804 25.842722c-62.950222 9.939509-60.96232 64.938124-60.962321 66.926026a13.252678 13.252678 0 0 1-12.590044 13.915312z"  /><path d="M485.818894 1024a487.03593 487.03593 0 0 1-409.507761-748.776327 26.505357 26.505357 0 1 1 44.396473 28.493258 433.362582 433.362582 0 0 0 642.092266 566.552c10.602143-8.614241 20.541651-17.891116 29.818526-27.830625a26.505357 26.505357 0 1 1 37.770134 37.1075c-10.602143 10.602143-21.866919 21.204285-33.79433 31.143794a485.048028 485.048028 0 0 1-310.775308 113.3104z m371.737628-190.175934a26.505357 26.505357 0 0 1-21.204285-41.745937 433.362582 433.362582 0 0 0 40.420669-68.251294 487.03593 487.03593 0 0 1-546.672982-591.732089 430.049413 430.049413 0 0 0-86.805044 45.721741 26.505357 26.505357 0 1 1-29.818526-43.733839A481.734858 481.734858 0 0 1 362.568986 65.831354a26.505357 26.505357 0 0 1 31.806428 34.456964 433.362582 433.362582 0 0 0 518.179724 561.913563 26.505357 26.505357 0 0 1 31.806428 34.456963 485.710662 485.710662 0 0 1-66.263392 126.563079 26.505357 26.505357 0 0 1-20.541652 10.602143zM135.948186 265.284164a26.505357 26.505357 0 0 1-19.879018-43.733839 491.674367 491.674367 0 0 1 35.782232-37.770133 26.505357 26.505357 0 1 1 36.444865 38.432767 438.00102 438.00102 0 0 0-31.806428 33.79433 26.505357 26.505357 0 0 1-20.541651 9.276875z"  /><path d="M291.667156 711.236791a41.083303 41.083303 0 1 0 82.166606 0 41.083303 41.083303 0 1 0-82.166606 0Z" fill="#FFA11F" /></svg>