<?xml version="1.0" standalone="no"?><!DOCTYPE svg PUBLIC "-//W3C//DTD SVG 1.1//EN" "http://www.w3.org/Graphics/SVG/1.1/DTD/svg11.dtd"><svg class="icon" width="200px" height="200.00px" viewBox="0 0 1024 1024" version="1.1" xmlns="http://www.w3.org/2000/svg"><path d="M488.079121 20.550422a354.49325 354.49325 0 0 0 333.610745 469.60169 352.455933 352.455933 0 0 0 89.132642-11.205246 352.965262 352.965262 0 1 1-422.743387-458.396444z" fill="#FACD00" /><path d="M577.721092 737.176863A374.357096 374.357096 0 0 1 482.985827 0.686576a20.373175 20.373175 0 0 1 24.44781 26.485128 333.101416 333.101416 0 0 0 398.295577 431.911316 20.373175 20.373175 0 0 1 24.44781 26.485128 373.338437 373.338437 0 0 1-352.455932 251.608715zM458.028687 51.619514a333.610745 333.610745 0 1 0 419.687411 454.831139 374.357096 374.357096 0 0 1-419.687411-454.831139z" fill="#FACD00" /><path d="M449.879417 61.296773a339.213369 339.213369 0 0 0 319.858852 449.737844 337.68538 337.68538 0 0 0 85.567336-11.205246A338.19471 338.19471 0 1 1 449.879417 61.296773z" fill="#FAF400" /><path d="M535.446753 748.891439A359.586544 359.586544 0 0 1 444.786123 41.432927a20.373175 20.373175 0 0 1 24.44781 26.485127 318.330864 318.330864 0 0 0 380.469049 412.5568 20.373175 20.373175 0 0 1 24.44781 26.485128A358.567885 358.567885 0 0 1 535.446753 748.891439zM419.828983 92.365865a318.330864 318.330864 0 1 0 401.860883 434.967292 359.586544 359.586544 0 0 1-401.860883-434.967292z" fill="#FAF400" /><path d="M505.39632 585.906036s25.466469-20.373175 33.615739-43.292997 5.602623-34.634398 5.602623-34.634398 76.908737 70.796784-39.218362 77.927395z" fill="#FF8472" /><path d="M505.39632 593.545977a7.639941 7.639941 0 0 1-4.583965-13.751893s23.938481-19.354517 31.069093-40.237022 5.602623-30.559763 5.602623-31.069092a7.639941 7.639941 0 0 1 4.074635-8.14927 7.639941 7.639941 0 0 1 8.658599 1.018659c3.565306 3.565306 35.143727 33.615739 25.466469 60.610196-6.621282 18.335858-29.541104 28.522445-69.778125 31.069093z m45.839644-66.722149a130.388322 130.388322 0 0 1-5.093294 18.335858 96.263253 96.263253 0 0 1-19.354516 31.069092c19.354517-3.565306 31.069092-9.677258 34.125068-18.335858s-2.546647-21.901163-9.677258-31.069092z"  /><path d="M330.696341 424.957951a10.186588 10.186588 0 0 1-10.186587-9.677258c-1.018659-21.391834 11.205246-64.175502 64.175502-72.834101a10.186588 10.186588 0 0 1 3.055976 19.863845c-47.876962 7.639941-46.858303 49.914279-46.858303 51.442268a10.186588 10.186588 0 0 1-9.677258 10.695917z"  /><path d="M496.228391 787.091142a374.357096 374.357096 0 0 1-314.765559-575.542202 20.373175 20.373175 0 1 1 34.125069 21.901164 333.101416 333.101416 0 0 0 493.540172 435.476622c8.14927-6.621282 15.789211-13.751893 22.919822-21.391834a20.373175 20.373175 0 1 1 29.031775 28.522445c-8.14927 8.14927-16.80787 16.29854-25.975799 23.938481a372.829108 372.829108 0 0 1-238.87548 87.095324z m285.733783-146.177532a20.373175 20.373175 0 0 1-16.29854-32.087752 333.101416 333.101416 0 0 0 31.069092-52.460926 374.357096 374.357096 0 0 1-420.19674-454.831138 330.554769 330.554769 0 0 0-66.722149 35.143727 20.373175 20.373175 0 1 1-22.919822-33.615739A370.282461 370.282461 0 0 1 401.493126 50.600855a20.373175 20.373175 0 0 1 24.44781 26.485128 333.101416 333.101416 0 0 0 398.295577 431.911317 20.373175 20.373175 0 0 1 24.44781 26.485127 373.338437 373.338437 0 0 1-50.932938 97.281912 20.373175 20.373175 0 0 1-15.789211 8.149271zM227.302477 203.909a20.373175 20.373175 0 0 1-15.279882-33.61574 377.922402 377.922402 0 0 1 27.503787-29.031774 20.373175 20.373175 0 1 1 28.013116 29.541104 336.666722 336.666722 0 0 0-24.44781 25.975798 20.373175 20.373175 0 0 1-15.789211 7.130612z"  /><path d="M346.994882 546.687674a31.578422 31.578422 0 1 0 63.156843 0 31.578422 31.578422 0 1 0-63.156843 0Z" fill="#FFA11F" /><path d="M217.115889 639.894951A195.073153 195.073153 0 1 1 416.773007 972.996367a195.073153 195.073153 0 0 0-200.166447-332.592087z" fill="#32B7FF" /><path d="M300.645908 1017.308023a187.942542 187.942542 0 1 0-188.451872-187.942542 187.942542 187.942542 0 0 0 188.451872 187.942542z" fill="#D2F7FF" /><path d="M148.356423 720.368993A187.433213 187.433213 0 1 1 427.978254 967.903073a186.923883 186.923883 0 0 0-152.798815-296.4297 187.433213 187.433213 0 0 0-126.823016 48.89562z" fill="#9CEDFF" /><path d="M298.60859 1023.929305A206.2784 206.2784 0 0 1 92.330191 817.650905a184.377236 184.377236 0 0 1 28.013116-101.356547 20.373175 20.373175 0 1 1 34.634398 21.391834A144.140215 144.140215 0 0 0 133.076541 817.650905 165.532049 165.532049 0 0 0 298.60859 983.182954a152.798815 152.798815 0 0 0 109.505818-41.255679 20.388455 20.388455 0 0 1 26.994457 30.559762A193.035836 193.035836 0 0 1 298.60859 1023.929305zM453.954052 939.889957a20.373175 20.373175 0 0 1-16.80787-31.578422 165.532049 165.532049 0 0 0-192.526506-247.02475 20.454668 20.454668 0 1 1-13.242564-38.709033 206.2784 206.2784 0 0 1 239.38481 308.144276 20.373175 20.373175 0 0 1-16.80787 9.167929z m-286.752442-233.272857a20.373175 20.373175 0 0 1-14.261223-34.634398 207.297059 207.297059 0 0 1 28.522445-23.938481 20.373175 20.373175 0 1 1 22.919823 33.615739 166.550708 166.550708 0 0 0-22.919823 19.354517 20.373175 20.373175 0 0 1-14.261222 5.602623z"  /><path d="M204.382655 741.251498a22.919822 22.919822 0 1 0 45.839644 0 22.919822 22.919822 0 1 0-45.839644 0Z"  /><path d="M352.088176 741.251498a22.919822 22.919822 0 1 0 45.839644 0 22.919822 22.919822 0 1 0-45.839644 0Z"  /><path d="M268.048827 845.664021a33.10641 33.10641 0 1 0 66.21282 0 33.10641 33.10641 0 1 0-66.21282 0Z" fill="#FF8472" /><path d="M301.155237 888.957019a43.292997 43.292997 0 1 1 43.292998-43.292998 43.292997 43.292997 0 0 1-43.292998 43.292998z m0-66.21282a22.919822 22.919822 0 1 0 22.919823 22.919822 22.919822 22.919822 0 0 0-22.919823-22.919822z"  /><path d="M392.834526 846.68268a26.485128 26.485128 0 1 0 52.970256 0 26.485128 26.485128 0 1 0-52.970256 0Z" fill="#FAD700" /><path d="M185.028138 872.658479a26.485128 26.485128 0 1 0-26.485128-26.485128 26.485128 26.485128 0 0 0 26.485128 26.485128z" fill="#FAD700" /></svg>