<?xml version="1.0" standalone="no"?><!DOCTYPE svg PUBLIC "-//W3C//DTD SVG 1.1//EN" "http://www.w3.org/Graphics/SVG/1.1/DTD/svg11.dtd"><svg class="icon" width="200px" height="187.89px" viewBox="0 0 1090 1024" version="1.1" xmlns="http://www.w3.org/2000/svg"><path d="M669.521455 19.476461a335.967507 335.967507 0 0 0 316.176318 445.060405 334.03666 334.03666 0 0 0 84.474589-10.619662 334.519372 334.519372 0 1 1-400.650907-434.440743z" fill="#FACD00" /><path d="M754.478756 698.652155A354.793273 354.793273 0 0 1 664.694336 0.650696a19.308477 19.308477 0 0 1 23.170173 25.10102 315.693606 315.693606 0 0 0 377.480734 409.339722 19.308477 19.308477 0 0 1 23.170173 25.101021 353.827849 353.827849 0 0 1-334.03666 238.459696zM641.041451 48.921889a316.176318 316.176318 0 1 0 397.754635 431.061759 354.793273 354.793273 0 0 1-397.754635-431.061759z" fill="#FACD00" /><path d="M633.31806 58.093416a321.486149 321.486149 0 0 0 303.143096 426.23464 320.038014 320.038014 0 0 0 81.095605-10.619663A320.520726 320.520726 0 1 1 633.31806 58.093416z" fill="#FAF400" /><path d="M714.413665 709.75453A340.794627 340.794627 0 0 1 628.490941 39.267651a19.308477 19.308477 0 0 1 23.170173 25.10102 301.69496 301.69496 0 0 0 360.585816 390.996668 19.308477 19.308477 0 0 1 23.170173 25.101021A339.829203 339.829203 0 0 1 714.413665 709.75453zM604.838056 87.538844a301.69496 301.69496 0 1 0 380.859717 412.235994 340.794627 340.794627 0 0 1-380.859717-412.235994z" fill="#FAF400" /><path d="M685.933661 555.28671s24.135597-19.308477 31.858988-41.030514 5.309831-32.824412 5.309831-32.824412 72.889502 67.096959-37.168819 73.854926z" fill="#FF8472" /><path d="M685.933661 562.527389a7.240679 7.240679 0 0 1-4.344407-13.033222s22.687461-18.343054 29.445428-38.134243 5.309831-28.962716 5.309831-29.445428a7.240679 7.240679 0 0 1 3.861696-7.723391 7.240679 7.240679 0 0 1 8.206102 0.965424c3.378984 3.378984 33.307124 31.858988 24.135597 57.44272-6.275255 17.37763-27.997292 27.031868-66.131535 29.445428z m43.444074-63.235263a123.574256 123.574256 0 0 1-4.827119 17.377629 91.232556 91.232556 0 0 1-18.343054 29.445428c18.343054-3.378984 29.445428-9.171527 32.3417-17.377629s-2.41356-20.756613-9.171527-29.445428z"  /><path d="M520.363467 402.749738a9.654239 9.654239 0 0 1-9.654239-9.171526c-0.965424-20.273901 10.619663-60.821704 60.821704-69.027807a9.654239 9.654239 0 1 1 2.896272 18.825765c-45.374922 7.240679-44.409498 47.30577-44.409498 48.753906a9.654239 9.654239 0 0 1-9.171527 10.13695z"  /><path d="M677.244846 745.957925a354.793273 354.793273 0 0 1-298.315976-545.464488 19.308477 19.308477 0 0 1 32.341699 20.756613 315.693606 315.693606 0 0 0 467.747866 412.718706c7.723391-6.275255 14.96407-13.033222 21.722038-20.273902a19.308477 19.308477 0 1 1 27.51458 27.031869c-7.723391 7.723391-15.929494 15.446782-24.618309 22.687461a353.345137 353.345137 0 0 1-226.391898 82.543741z m270.801396-138.538326a19.308477 19.308477 0 0 1-15.446782-30.410852 315.693606 315.693606 0 0 0 29.445428-49.719329 354.793273 354.793273 0 0 1-397.754635-431.061759 313.280046 313.280046 0 0 0-63.235263 33.307124 19.308477 19.308477 0 0 1-21.722038-31.858988 350.931577 350.931577 0 0 1 108.127474-49.71933 19.308477 19.308477 0 0 1 23.170173 25.101021 315.693606 315.693606 0 0 0 377.480734 409.339722 19.308477 19.308477 0 0 1 23.170173 25.10102 353.827849 353.827849 0 0 1-48.271194 92.19798 19.308477 19.308477 0 0 1-14.96407 7.723391zM422.372944 193.252758a19.308477 19.308477 0 0 1-14.481358-31.858988 358.172257 358.172257 0 0 1 26.066444-27.51458 19.308477 19.308477 0 1 1 26.549157 27.997292 319.07259 319.07259 0 0 0-23.170173 24.618309 19.308477 19.308477 0 0 1-14.96407 6.757967z"  /><path d="M535.810249 518.117891a29.92814 29.92814 0 1 0 59.85628 0 29.92814 29.92814 0 1 0-59.85628 0Z" fill="#FFA11F" /><path d="M337.898355 975.246094a270.318684 270.318684 0 1 1 247.148511-379.894293A190.671215 190.671215 0 1 1 613.044159 975.246094z" fill="#D2F7FF" /><path d="M702.345867 946.283378a191.636639 191.636639 0 0 0-154.950532-303.143096 192.602062 192.602062 0 0 0-25.583732 1.448136A270.801396 270.801396 0 0 0 144.813581 515.704331a270.801396 270.801396 0 0 1 454.231932 65.648824 191.636639 191.636639 0 0 1 103.300354 364.930223z" fill="#32B7FF" /><path d="M241.355968 692.859612a21.722037 21.722037 0 1 0 43.444074 0 21.722037 21.722037 0 1 0-43.444074 0Z"  /><path d="M419.959384 692.859612a21.722037 21.722037 0 1 0 43.444075 0 21.722037 21.722037 0 1 0-43.444075 0Z"  /><path d="M308.452927 753.198604h102.334931a55.511873 55.511873 0 1 1-102.334931 0z" fill="#FF8472" /><path d="M359.620392 840.086752a65.166111 65.166111 0 0 1-59.85628-90.749844 9.654239 9.654239 0 0 1 8.688815-5.792543h102.334931a9.654239 9.654239 0 0 1 8.688814 5.792543A65.166111 65.166111 0 0 1 359.620392 840.086752z m-44.409498-77.233909a45.857634 45.857634 0 1 0 88.818996 0z"  /><path d="M473.057697 783.126744a25.101021 25.101021 0 1 0 50.202042 0 25.101021 25.101021 0 1 0-50.202042 0Z" fill="#FAD700" /><path d="M173.776297 783.126744a25.101021 25.101021 0 1 0 50.202041 0 25.101021 25.101021 0 1 0-50.202041 0Z" fill="#FAD700" /><path d="M499.606854 1023.517288h-14.481358a19.308477 19.308477 0 0 1 0-38.616955h14.481358a19.308477 19.308477 0 0 1 0 38.616955zM439.267862 1023.517288H289.627162a289.627162 289.627162 0 0 1-250.527495-434.923454 19.308477 19.308477 0 0 1 33.307123 19.308477 251.010207 251.010207 0 0 0 217.220372 376.51531h149.6407a19.308477 19.308477 0 0 1 0 38.616955z m111.506457 0a19.308477 19.308477 0 1 1 0-38.616955h13.998646a171.362737 171.362737 0 0 0-2.41356-342.725474 174.259009 174.259009 0 0 0-22.687461 1.448135 19.308477 19.308477 0 0 1-20.273901-11.102374A251.492919 251.492919 0 0 0 289.627162 482.87992a19.308477 19.308477 0 0 1 0-38.616955 290.109874 290.109874 0 0 1 258.733597 159.777651h13.998646a209.979692 209.979692 0 0 1 2.41356 419.959384z m-440.715998-472.574985a19.308477 19.308477 0 0 1-13.033222-33.789836 289.14445 289.14445 0 0 1 74.337638-47.788481 19.33744 19.33744 0 1 1 15.929494 35.237971 251.010207 251.010207 0 0 0-64.200687 41.513226 19.308477 19.308477 0 0 1-13.033223 4.82712z"  /></svg>