<?xml version="1.0" standalone="no"?><!DOCTYPE svg PUBLIC "-//W3C//DTD SVG 1.1//EN" "http://www.w3.org/Graphics/SVG/1.1/DTD/svg11.dtd"><svg class="icon" width="200px" height="197.68px" viewBox="0 0 1036 1024" version="1.1" xmlns="http://www.w3.org/2000/svg"><path d="M558.58928 978.296912a23.43658 23.43658 0 0 1-16.405605-39.842185l20.507007-20.507007a23.612354 23.612354 0 0 1 33.397126 33.397126l-20.507007 20.507007a23.43658 23.43658 0 0 1-16.991521 6.445059z m74.411141-74.41114a23.43658 23.43658 0 0 1-16.405606-39.842185l15.233777-15.233777a23.612354 23.612354 0 0 1 33.397126 33.397126l-15.233777 15.233776a23.43658 23.43658 0 0 1-16.99152 6.44506zM347.07415 1023.998242a23.43658 23.43658 0 0 1-16.991521-39.256271l26.366152-28.70981a23.43658 23.43658 0 0 1 34.568955 31.639383l-26.366152 28.70981a23.43658 23.43658 0 0 1-17.577434 7.616888z m64.450593-70.309739a23.43658 23.43658 0 0 1-16.99152-39.25627l70.895653-77.340713a23.43658 23.43658 0 1 1 34.568955 31.639382l-70.895653 77.340713a23.43658 23.43658 0 0 1-17.577435 7.616888z" fill="#FAD700" /><path d="M433.789494 697.643871a348.619121 348.619121 0 1 1 318.737482-489.238599 246.084086 246.084086 0 1 1 35.740784 489.238599z" fill="#D2F7FF" /><path d="M889.630967 676.55095a246.084086 246.084086 0 0 0-199.210926-389.633136 247.841829 247.841829 0 0 0-32.811212 2.343658A348.619121 348.619121 0 0 0 173.057546 123.447671a348.033207 348.033207 0 0 1 584.156746 84.371687 246.084086 246.084086 0 0 1 132.416675 468.145677z" fill="#9CEDFF" /><path d="M471.288021 797.835249a23.43658 23.43658 0 0 1-16.405605-39.842185l39.25627-39.256271a23.612354 23.612354 0 0 1 33.397126 33.397126l-39.842185 39.256271a23.43658 23.43658 0 0 1-16.405606 6.445059z m72.653397-72.653397a23.43658 23.43658 0 0 1-16.405606-39.842185l16.991521-16.99152a23.612354 23.612354 0 0 1 33.397126 33.397126l-16.991521 16.99152a23.43658 23.43658 0 0 1-16.99152 7.030974z" fill="#32B7FF" /><path d="M337.699518 333.205059m-28.123896 0a28.123896 28.123896 0 1 0 56.247791 0 28.123896 28.123896 0 1 0-56.247791 0Z"  /><path d="M567.963912 333.205059m-28.123895 0a28.123896 28.123896 0 1 0 56.247791 0 28.123896 28.123896 0 1 0-56.247791 0Z"  /><path d="M533.394957 479.683681H390.431822a71.481568 71.481568 0 0 1 142.963135 0z" fill="#FF8472" /><path d="M533.394957 491.401971H390.431822a11.71829 11.71829 0 0 1-11.71829-12.304204 83.199858 83.199858 0 0 1 166.399715 0 11.71829 11.71829 0 0 1-11.71829 12.304204z m-129.487102-23.43658h116.011069a59.763278 59.763278 0 0 0-116.011069 0z"  /><path d="M640.031394 449.216128m-32.225296 0a32.225297 32.225297 0 1 0 64.450593 0 32.225297 32.225297 0 1 0-64.450593 0Z" fill="#FAD700" /><path d="M229.891252 449.216128m-32.225297 0a32.225297 32.225297 0 1 0 64.450594 0 32.225297 32.225297 0 1 0-64.450594 0Z" fill="#FAD700" /><path d="M869.12396 682.410095a246.084086 246.084086 0 0 0-166.399715-449.982328A348.619121 348.619121 0 0 0 253.913746 50.20836a348.033207 348.033207 0 0 1 498.61323 157.610998 246.084086 246.084086 0 0 1 117.182898 474.590737zM577.338544 847.637981a23.43658 23.43658 0 0 1-16.405606-39.842185l89.644917-89.644917a23.612354 23.612354 0 0 1 33.397126 33.397126l-89.644917 89.644916a23.43658 23.43658 0 0 1-16.99152 6.44506z" fill="#32B7FF" /><path d="M399.806454 757.993064h-28.123896A372.055701 372.055701 0 0 1 50.015503 199.616555a23.43658 23.43658 0 1 1 40.4281 23.43658 325.182542 325.182542 0 0 0 281.238955 488.06677h28.123896a23.43658 23.43658 0 1 1 0 46.873159z m308.776936 0a23.43658 23.43658 0 1 1 0-46.873159h17.577434a222.647506 222.647506 0 1 0-32.811211-442.951355 23.43658 23.43658 0 0 1-24.608409-13.476033 325.182542 325.182542 0 0 0-297.058646-193.351781 23.43658 23.43658 0 0 1 0-46.87316 372.055701 372.055701 0 0 1 332.79943 206.241901h18.749264a269.520665 269.520665 0 0 1 3.515487 538.455416zM140.832249 149.227909a23.43658 23.43658 0 0 1-15.819691-41.014014A371.469787 371.469787 0 0 1 220.51662 46.692873a23.471734 23.471734 0 1 1 19.335178 42.771758 324.596627 324.596627 0 0 0-83.199858 53.904133 23.43658 23.43658 0 0 1-15.819691 5.859145z"  /><path d="M458.983817 797.835249a23.43658 23.43658 0 0 1-16.405606-39.842185l39.256271-39.256271a23.612354 23.612354 0 0 1 33.397126 33.397126l-39.842185 39.256271a23.43658 23.43658 0 0 1-16.405606 6.445059z m72.653397-72.653397a23.43658 23.43658 0 0 1-16.405606-39.842185l16.99152-16.99152a23.612354 23.612354 0 0 1 33.397126 33.397126l-16.99152 16.99152a23.43658 23.43658 0 0 1-16.99152 7.030974z"  /><path d="M334.769945 1023.998242a23.43658 23.43658 0 0 1-16.99152-39.256271l26.366152-28.70981a23.43658 23.43658 0 0 1 34.568955 31.639383l-26.952067 28.70981a23.43658 23.43658 0 0 1-16.99152 7.616888z m64.450594-70.309739a23.43658 23.43658 0 0 1-16.99152-39.25627l70.895653-77.340713a23.43658 23.43658 0 1 1 34.568955 31.639382L416.212059 946.071615a23.43658 23.43658 0 0 1-16.99152 7.616888z"  /><path d="M558.58928 847.637981a23.43658 23.43658 0 0 1-16.405605-39.842185l89.644917-89.644917a23.612354 23.612354 0 0 1 33.397126 33.397126l-90.230832 89.644916a23.43658 23.43658 0 0 1-16.405606 6.44506z"  /><path d="M546.285076 978.296912a23.43658 23.43658 0 0 1-16.405606-39.842185l20.507008-20.507007a23.612354 23.612354 0 1 1 33.397125 33.397126l-21.092921 20.507007a23.43658 23.43658 0 0 1-16.405606 6.445059z m74.41114-74.41114a23.43658 23.43658 0 0 1-16.405605-39.842185l15.233776-15.233777a23.612354 23.612354 0 0 1 33.397126 33.397126l-15.233777 15.233776a23.43658 23.43658 0 0 1-16.99152 6.44506z"  /></svg>