<?xml version="1.0" standalone="no"?><!DOCTYPE svg PUBLIC "-//W3C//DTD SVG 1.1//EN" "http://www.w3.org/Graphics/SVG/1.1/DTD/svg11.dtd"><svg class="icon" width="200px" height="167.59px" viewBox="0 0 1222 1024" version="1.1" xmlns="http://www.w3.org/2000/svg"><path d="M973.448101 524.962025a25.924051 25.924051 0 0 1 0-51.848101 197.670886 197.670886 0 0 0 0-395.341772 25.924051 25.924051 0 1 1 0-51.848101 249.518987 249.518987 0 1 1 0 499.037974zM1058.349367 674.025316h-128.324051a25.924051 25.924051 0 1 1 0-51.848101h127.67595a25.924051 25.924051 0 1 1 0 51.848101z m-296.83038 0H92.03038a25.924051 25.924051 0 1 1 0-51.848101h669.488607a25.924051 25.924051 0 1 1 0 51.848101z" fill="#9B72FF" /><path d="M970.855696 524.962025h-486.075949a25.924051 25.924051 0 0 1 0-51.848101h486.075949a25.924051 25.924051 0 0 1 0 51.848101z m-629.306329 0H268.313924a25.924051 25.924051 0 0 1 0-51.848101h73.235443a25.924051 25.924051 0 0 1 0 51.848101z m-189.893671 0H32.405063a25.924051 25.924051 0 0 1 0-51.848101h119.250633a25.924051 25.924051 0 1 1 0 51.848101z" fill="#9B72FF" /><path d="M964.374684 499.037975h-486.07595a25.924051 25.924051 0 0 1 0-51.848102h486.07595a25.924051 25.924051 0 0 1 0 51.848102z m-629.30633 0H261.832911a25.924051 25.924051 0 0 1 0-51.848102h73.235443a25.924051 25.924051 0 0 1 0 51.848102z m-189.89367 0H25.924051a25.924051 25.924051 0 0 1 0-51.848102h119.250633a25.924051 25.924051 0 1 1 0 51.848102z"  /><path d="M1032.425316 823.088608H477.650633a25.924051 25.924051 0 0 1 0-51.848102h554.126582a25.924051 25.924051 0 0 1 0 51.848102zM343.493671 823.088608H215.16962a25.924051 25.924051 0 1 1 0-51.848102H343.493671a25.924051 25.924051 0 1 1 0 51.848102z" fill="#9B72FF" /><path d="M1035.017722 1024a25.924051 25.924051 0 0 1 0-51.848101 74.531646 74.531646 0 1 0 0-149.063291 25.924051 25.924051 0 0 1 0-51.848102 126.379747 126.379747 0 1 1 0 252.759494z" fill="#9B72FF" /><path d="M1058.349367 648.101266h-128.324051a25.924051 25.924051 0 0 1 0-51.848101h127.67595a25.924051 25.924051 0 1 1 0 51.848101z m-296.83038 0H92.03038a25.924051 25.924051 0 0 1 0-51.848101h669.488607a25.924051 25.924051 0 1 1 0 51.848101z"  /><path d="M994.835443 395.341772h-127.675949a25.924051 25.924051 0 0 1 0-51.848101h127.675949a25.924051 25.924051 0 0 1 0 51.848101z m-296.83038 0H481.539241a25.924051 25.924051 0 0 1 0-51.848101h216.465822a25.924051 25.924051 0 0 1 0 51.848101zM362.936709 395.341772H254.055696a25.924051 25.924051 0 0 1 0-51.848101H362.936709a25.924051 25.924051 0 0 1 0 51.848101z" fill="#9B72FF" /><path d="M993.539241 375.898734h-128.324051a25.924051 25.924051 0 0 1 0-51.848101h127.675949a25.924051 25.924051 0 0 1 0 51.848101z m-296.83038 0H480.243038a25.924051 25.924051 0 0 1 0-51.848101h216.465823a25.924051 25.924051 0 0 1 0 51.848101z m-335.068355 0H252.759494a25.924051 25.924051 0 0 1 0-51.848101h108.881012a25.924051 25.924051 0 0 1 0 51.848101z"  /><path d="M1025.944304 797.164557H471.16962a25.924051 25.924051 0 0 1 0-51.848101h554.126583a25.924051 25.924051 0 0 1 0 51.848101zM337.012658 797.164557H208.688608a25.924051 25.924051 0 1 1 0-51.848101H337.012658a25.924051 25.924051 0 1 1 0 51.848101z"  /><path d="M1028.536709 998.075949a25.924051 25.924051 0 0 1 0-51.848101 74.531646 74.531646 0 1 0 0-149.063291 25.924051 25.924051 0 0 1 0-51.848101 126.379747 126.379747 0 1 1 0 252.759493z"  /><path d="M957.24557 499.037975a25.924051 25.924051 0 0 1 0-51.848102 197.670886 197.670886 0 1 0 0-395.341772 25.924051 25.924051 0 0 1 0-51.848101 249.518987 249.518987 0 1 1 0 499.037975z"  /></svg>