<?xml version="1.0" standalone="no"?><!DOCTYPE svg PUBLIC "-//W3C//DTD SVG 1.1//EN" "http://www.w3.org/Graphics/SVG/1.1/DTD/svg11.dtd"><svg class="icon" width="200px" height="142.82px" viewBox="0 0 1434 1024" version="1.1" xmlns="http://www.w3.org/2000/svg"><path d="M450.678297 1007.231887a343.789695 343.789695 0 0 1-139.846655-656.77983 343.789695 343.789695 0 0 1 187.294628-257.217956 337.962751 337.962751 0 0 1 149.835703-34.961664 341.292434 341.292434 0 0 1 332.968228 268.039423 337.130331 337.130331 0 0 1 114.874038 44.11829 343.789695 343.789695 0 0 1 164.819273 293.844462q0 17.480832-1.664841 34.129243h4.162103a154.830226 154.830226 0 0 1 0 309.660452H450.678297z" fill="#D2F7FF" /><path d="M1262.288353 995.577999a157.327488 157.327488 0 0 0-117.3713-261.380059h-4.162103q1.664841-17.480832 1.664841-34.961664A349.616639 349.616639 0 0 0 975.103257 400.397291a344.622116 344.622116 0 0 0-116.53888-44.950711 347.119378 347.119378 0 0 0-441.182902-257.217956 345.454537 345.454537 0 0 1 526.0898 213.099666 342.957275 342.957275 0 0 1 115.706459 44.11829 346.286957 346.286957 0 0 1 166.484114 296.341723q0 17.480832-1.664841 34.129243h4.162103a156.495067 156.495067 0 0 1 33.296823 308.828032z" fill="#9CEDFF" /><path d="M1312.233587 962.281176a157.327488 157.327488 0 0 0-117.3713-261.380059h-4.162103q1.664841-17.480832 1.664841-34.961664A349.616639 349.616639 0 0 0 1025.048491 367.100468a344.622116 344.622116 0 0 0-116.53888-44.950711A347.119378 347.119378 0 0 0 467.326709 64.931801a345.454537 345.454537 0 0 1 526.0898 213.099666 342.957275 342.957275 0 0 1 115.706459 44.11829 346.286957 346.286957 0 0 1 166.484114 296.341723q0 17.480832-1.664841 34.129244h4.162103a156.495067 156.495067 0 0 1 33.296823 308.828031z" fill="#32B7FF" /><path d="M1202.354072 1023.880298h-84.906898a33.296823 33.296823 0 0 1 0-66.593646h84.906898a122.782034 122.782034 0 0 0 0-245.564068h-3.329682a34.129243 34.129243 0 0 1-24.972617-10.821467 33.296823 33.296823 0 0 1-9.156626-25.805038c0.832421-9.989047 1.664841-20.810514 1.664841-30.799561a311.325293 311.325293 0 0 0-26.637459-127.360347 33.296823 33.296823 0 0 1 60.766702-26.637459 377.918939 377.918939 0 0 1 32.464402 153.997806v3.329682a188.959469 188.959469 0 0 1-30.799561 376.254098z m-178.138002 0h-33.296823a33.296823 33.296823 0 0 1 0-66.593646h33.296823a33.296823 33.296823 0 0 1 0 66.593646z m-142.343917 0H379.922549a379.58378 379.58378 0 0 1-171.478637-718.378952 380.416201 380.416201 0 0 1 68.258486-153.165385 33.296823 33.296823 0 0 1 53.274917 39.956187 313.822555 313.822555 0 0 0-58.26944 140.679077 33.296823 33.296823 0 0 1-19.145673 24.972617 312.990134 312.990134 0 0 0 127.360347 599.34281h501.949604a33.296823 33.296823 0 0 1 0 66.593646z m212.267245-596.013128a33.296823 33.296823 0 0 1-23.307776-9.156627 313.822555 313.822555 0 0 0-54.939757-42.453449 33.296823 33.296823 0 0 1 34.961663-56.604598 380.416201 380.416201 0 0 1 67.426067 51.610075 33.296823 33.296823 0 0 1-23.307776 57.437019zM916.833817 337.133328a33.296823 33.296823 0 0 1-32.464403-25.805038A314.654975 314.654975 0 0 0 580.535906 66.596642a307.995611 307.995611 0 0 0-137.349394 31.631982 33.321795 33.321795 0 0 1-29.13472-59.934281 374.589257 374.589257 0 0 1 166.484114-38.291346A381.248621 381.248621 0 0 1 950.130639 296.34472a33.296823 33.296823 0 0 1-24.972617 39.956187z"  /><path d="M429.867783 486.96903m-37.458925 0a37.458926 37.458926 0 1 0 74.917851 0 37.458926 37.458926 0 1 0-74.917851 0Z"  /><path d="M779.484423 486.96903m-37.458926 0a37.458926 37.458926 0 1 0 74.917851 0 37.458926 37.458926 0 1 0-74.917851 0Z"  /><path d="M508.947737 665.939453h191.456731a95.728366 95.728366 0 0 1-191.456731 0z" fill="#FF8472" /><path d="M604.676103 774.154127A112.376777 112.376777 0 0 1 492.299326 666.771873a16.648411 16.648411 0 0 1 16.648411-17.480832h191.456731a16.648411 16.648411 0 0 1 16.648412 17.480832A112.376777 112.376777 0 0 1 604.676103 774.154127z m-76.582693-91.566263a79.079954 79.079954 0 0 0 152.332965 0z"  /><path d="M259.221566 674.263658m-49.945234 0a49.945234 49.945234 0 1 0 99.890469 0 49.945234 49.945234 0 1 0-99.890469 0Z" fill="#FAD700" /><path d="M900.185405 674.263658m-49.945234 0a49.945234 49.945234 0 1 0 99.890468 0 49.945234 49.945234 0 1 0-99.890468 0Z" fill="#FAD700" /></svg>