<?xml version="1.0" standalone="no"?><!DOCTYPE svg PUBLIC "-//W3C//DTD SVG 1.1//EN" "http://www.w3.org/Graphics/SVG/1.1/DTD/svg11.dtd"><svg class="icon" width="200px" height="200.00px" viewBox="0 0 1024 1024" version="1.1" xmlns="http://www.w3.org/2000/svg"><path d="M660.284302 653.157323H339.10459a222.936505 222.936505 0 0 1-90.686036-425.900492 222.936505 222.936505 0 0 1 121.454513-166.79753 219.157921 219.157921 0 0 1 97.16361-22.671509 221.317112 221.317112 0 0 1 215.919134 173.814902 218.618123 218.618123 0 0 1 74.492101 28.609285 222.936505 222.936505 0 0 1 106.879971 190.548636q0 11.335755-1.079596 22.131711h2.698989a100.402397 100.402397 0 0 1 0 200.804794h-136.029054" fill="#D2F7FF" /><path d="M865.407479 645.600153a102.021791 102.021791 0 0 0-76.111495-169.49652h-2.698989q1.079596-11.335755 1.079595-22.671509A226.71509 226.71509 0 0 0 679.177226 259.644701a223.476303 223.476303 0 0 0-75.571697-29.149083 225.095697 225.095697 0 0 0-286.092852-166.79753 224.016101 224.016101 0 0 1 341.152231 138.188245 222.396708 222.396708 0 0 1 75.031899 28.609285 224.555899 224.555899 0 0 1 107.959567 192.168029q0 11.335755-1.079596 22.131712h2.698989a101.481993 101.481993 0 0 1 21.591914 200.264996z" fill="#9CEDFF" /><path d="M897.795349 624.00824a102.021791 102.021791 0 0 0-76.111495-169.49652h-2.698989q1.079596-11.335755 1.079596-22.671509A226.71509 226.71509 0 0 0 711.565096 238.052788a223.476303 223.476303 0 0 0-75.571697-29.149083A225.095697 225.095697 0 0 0 349.900547 42.106174a224.016101 224.016101 0 0 1 341.152231 138.188246 222.396708 222.396708 0 0 1 75.031899 28.609285 224.555899 224.555899 0 0 1 107.959567 192.168029q0 11.335755-1.079596 22.131711h2.698989a101.481993 101.481993 0 0 1 21.591914 200.264997z" fill="#32B7FF" /><path d="M826.542035 663.953279h-55.05938a21.591913 21.591913 0 0 1 0-43.183826h55.05938a79.620181 79.620181 0 0 0 0-159.240362h-2.159192a21.591913 21.591913 0 0 1-22.131711-23.751104c0.539798-6.477574 1.079596-13.494946 1.079596-19.97252a201.88439 201.88439 0 0 0-17.273531-82.589069 21.591913 21.591913 0 0 1 39.405242-17.27353 245.068217 245.068217 0 0 1 21.052115 99.862599v2.159191a122.534108 122.534108 0 0 1-19.972519 243.988621z m-473.942499 0h-59.377762a246.147812 246.147812 0 0 1-111.198353-465.845531 246.68761 246.68761 0 0 1 44.263422-99.322801 21.591913 21.591913 0 0 1 34.547061 25.910296 203.503783 203.503783 0 0 0-37.785848 91.225834 21.591913 21.591913 0 0 1-12.41535 16.193935 202.963986 202.963986 0 0 0 82.589068 388.654441h59.377762a21.591913 21.591913 0 0 1 0 43.183826z m403.76878-386.495249a21.591913 21.591913 0 0 1-15.114339-5.937776 203.503783 203.503783 0 0 0-35.626657-27.52969 21.591913 21.591913 0 0 1 22.671509-36.706252 246.68761 246.68761 0 0 1 43.723624 33.467465 21.591913 21.591913 0 0 1-15.114339 37.246051zM641.391377 218.620066a21.591913 21.591913 0 0 1-21.052115-16.733733A204.043581 204.043581 0 0 0 423.313052 43.18577a199.725199 199.725199 0 0 0-89.066642 20.512318 21.608107 21.608107 0 0 1-18.892924-38.865444 242.909025 242.909025 0 0 1 107.959566-24.830701A247.227408 247.227408 0 0 1 662.983291 192.169972a21.591913 21.591913 0 0 1-16.193935 25.910296z"  /><path d="M325.609644 315.783676m-24.290902 0a24.290903 24.290903 0 1 0 48.581805 0 24.290903 24.290903 0 1 0-48.581805 0Z"  /><path d="M552.324735 315.783676m-24.290903 0a24.290903 24.290903 0 1 0 48.581805 0 24.290903 24.290903 0 1 0-48.581805 0Z"  /><path d="M438.96719 439.937178m-62.076751 0a62.076751 62.076751 0 1 0 124.153502 0 62.076751 62.076751 0 1 0-124.153502 0Z" fill="#FF8472" /><path d="M438.96719 512.809886A72.872708 72.872708 0 1 1 511.839897 439.937178 72.872708 72.872708 0 0 1 438.96719 512.809886z m0-124.153502a51.280794 51.280794 0 1 0 51.280794 51.280794 51.280794 51.280794 0 0 0-51.280794-51.280794z"  /><path d="M214.951089 437.238189m-32.387871 0a32.38787 32.38787 0 1 0 64.775741 0 32.38787 32.38787 0 1 0-64.775741 0Z" fill="#FAD700" /><path d="M630.595421 437.238189m-32.38787 0a32.38787 32.38787 0 1 0 64.77574 0 32.38787 32.38787 0 1 0-64.77574 0Z" fill="#FAD700" /><path d="M452.462136 984.593193a21.591913 21.591913 0 0 1-15.11434-36.706253l17.813329-17.813329a21.753853 21.753853 0 0 1 30.768476 30.768477l-17.813328 17.813329a21.591913 21.591913 0 0 1-15.654137 5.937776z m64.77574-64.77574a21.591913 21.591913 0 0 1-15.11434-36.706253l12.955148-12.955148a21.753853 21.753853 0 0 1 30.768477 30.768476l-12.955148 12.955148a21.591913 21.591913 0 0 1-15.654137 5.937777zM268.930872 1023.998435a21.591913 21.591913 0 0 1-15.654137-36.166455l23.211307-25.370499a21.591913 21.591913 0 0 1 31.848072 29.149084l-23.211307 25.370498a21.591913 21.591913 0 0 1-16.193935 7.017372z m56.138975-60.997156a21.591913 21.591913 0 0 1-15.654138-36.166455l61.536954-66.934931a21.591913 21.591913 0 0 1 31.848072 29.149083l-62.076751 66.934931a21.591913 21.591913 0 0 1-15.654137 7.017372z" fill="#FAD700" /><path d="M376.890439 828.051821a21.591913 21.591913 0 0 1-15.11434-36.706253l34.007264-34.007263a21.591913 21.591913 0 0 1 24.8307-3.778585 21.591913 21.591913 0 0 1 3.778585-24.830701l14.574542-14.574541a21.753853 21.753853 0 0 1 30.768476 30.768476l-14.574541 14.574542a21.591913 21.591913 0 0 1-24.830701 3.778585 21.591913 21.591913 0 0 1-3.778585 24.8307l-34.007263 34.007264a21.591913 21.591913 0 0 1-15.654137 5.937776zM468.656071 871.235648a21.591913 21.591913 0 0 1-15.11434-36.706253l77.730888-77.730888a21.753853 21.753853 0 0 1 30.768477 30.768476l-78.270686 77.191091a21.591913 21.591913 0 0 1-15.114339 6.477574z" fill="#32B7FF" /><path d="M366.094482 828.051821a21.591913 21.591913 0 0 1-15.114339-36.706253l34.007263-34.007263a21.591913 21.591913 0 0 1 24.830701-3.778585 21.591913 21.591913 0 0 1 3.778584-24.830701l14.574542-14.574541a21.753853 21.753853 0 0 1 30.768477 30.768476l-14.574542 14.574542a21.591913 21.591913 0 0 1-24.8307 3.778585 21.591913 21.591913 0 0 1-3.778585 24.8307l-34.007264 34.007264a21.591913 21.591913 0 0 1-15.654137 5.937776zM258.134915 1023.998435a21.591913 21.591913 0 0 1-15.654137-36.166455l23.211307-25.370499a21.591913 21.591913 0 0 1 31.848072 29.149084l-23.211307 25.370498a21.591913 21.591913 0 0 1-16.193935 7.017372z m56.138975-60.997156a21.591913 21.591913 0 0 1-15.654137-36.166455l61.536953-66.934931a21.591913 21.591913 0 0 1 31.848072 29.149083l-62.076751 66.934931a21.591913 21.591913 0 0 1-15.654137 7.017372zM452.462136 871.235648a21.591913 21.591913 0 0 1-15.11434-36.706253l77.730888-77.730888a21.753853 21.753853 0 0 1 30.768477 30.768476l-78.270686 77.191091a21.591913 21.591913 0 0 1-15.114339 6.477574zM441.666179 984.593193a21.591913 21.591913 0 0 1-15.11434-36.706253l17.813329-17.813329a21.753853 21.753853 0 0 1 30.768477 30.768477l-17.813329 17.813329a21.591913 21.591913 0 0 1-15.654137 5.937776z m64.77574-64.77574a21.591913 21.591913 0 0 1-15.114339-36.706253l12.955148-12.955148a21.753853 21.753853 0 0 1 30.768476 30.768476l-12.955148 12.955148a21.591913 21.591913 0 0 1-15.654137 5.937777z"  /><path d="M621.958655 676.368629h-36.706252a4.858181 4.858181 0 0 1-4.318383-2.159191l-18.353126-31.848072a4.858181 4.858181 0 0 1 0-4.858181l18.353126-31.848072a4.858181 4.858181 0 0 1 4.318383-2.698989h36.706252a4.858181 4.858181 0 0 1 4.318383 2.698989l18.353126 31.848072a4.858181 4.858181 0 0 1 0 4.858181l-18.353126 31.848072a4.858181 4.858181 0 0 1-4.318383 2.159191z m-34.007263-9.716361h31.308274l15.654137-26.989891-15.654137-26.989892h-31.308274l-15.654137 26.989892 15.654137 26.989891z" fill="#32B7FF" /><path d="M621.958655 678.527821h-36.706252a7.55717 7.55717 0 0 1-6.477574-3.778585l-18.353127-31.308274a7.55717 7.55717 0 0 1 0-7.55717l18.353127-31.848072a7.55717 7.55717 0 0 1 6.477574-3.778585h36.706252a7.55717 7.55717 0 0 1 6.477574 3.778585l18.353127 31.848072a7.55717 7.55717 0 0 1 0 7.55717l-18.353127 31.848072a7.55717 7.55717 0 0 1-6.477574 3.238787z m-36.706252-72.872708l-1.619394 1.079596-18.353126 31.848072a2.159191 2.159191 0 0 0 0 2.159191l18.353126 31.848073 1.619394 1.079595h36.706252l1.619394-1.079595 18.353126-31.848073a2.159191 2.159191 0 0 0 0-2.159191l-18.353126-31.848072-1.619394-1.079596z m35.626657 63.156347h-34.547062l-17.27353-29.688881 17.27353-29.688881h34.007264l17.273531 29.688881z m-31.308275-5.397979h28.069488l14.034743-24.290902-14.034743-24.290903h-28.069488l-14.034743 24.290903z" fill="#32B7FF" /><path d="M677.018035 707.676904h-36.706253a4.858181 4.858181 0 0 1-4.318383-2.159192l-18.353126-31.848072a4.858181 4.858181 0 0 1 0-4.85818l18.353126-31.848072a4.858181 4.858181 0 0 1 4.318383-2.159192h36.706253a4.858181 4.858181 0 0 1 4.318382 2.159192l18.353127 31.848072a4.955344 4.955344 0 0 1-8.636766 4.85818l-16.733733-29.149083h-31.308274l-15.654137 26.989892 15.654137 26.989892h34.007264a4.858181 4.858181 0 1 1 0 9.716361" fill="#32B7FF" /><path d="M677.018035 710.375893h-36.706253a7.55717 7.55717 0 0 1-6.477574-3.778585l-18.353127-31.848072a7.55717 7.55717 0 0 1 0-7.55717l18.353127-31.848072a7.55717 7.55717 0 0 1 6.477574-3.778585h36.706253a7.55717 7.55717 0 0 1 6.477574 3.778585l18.353126 31.848072a7.55717 7.55717 0 0 1-2.698989 10.256159 7.55717 7.55717 0 0 1-10.256159-2.698989l-16.193935-28.069487h-28.069488l-14.034743 24.290902 14.034743 24.290903h32.387871a7.55717 7.55717 0 1 1 0 15.114339z m-36.706253-72.872708l-1.619394 1.079596-18.353126 31.848072a2.159191 2.159191 0 0 0 0 2.159192l18.353126 31.848072 1.619394 1.079595h36.706253a2.159191 2.159191 0 1 0 0-4.318382H641.391377l-17.27353-29.688881 17.27353-29.688881h34.007264l17.813329 30.768477a2.159191 2.159191 0 0 0 3.238787 0.539797l1.079595-1.079595a2.159191 2.159191 0 0 0 0-1.619394l-18.353126-31.848072-1.619394-1.079596zM566.899276 707.676904h-36.706252a4.858181 4.858181 0 1 1 0-9.716361h34.007263l15.654137-26.989892-15.654137-26.989892h-31.308274l-16.733733 29.149083a4.955344 4.955344 0 0 1-8.636765-4.85818l18.353126-31.848072a4.858181 4.858181 0 0 1 4.318383-2.159192h36.706252a4.858181 4.858181 0 0 1 4.318383 2.159192l18.353126 31.848072a4.858181 4.858181 0 0 1 0 4.85818l-18.353126 32.38787a4.858181 4.858181 0 0 1-4.318383 2.159192" fill="#32B7FF" /><path d="M566.899276 710.375893h-36.706252a7.55717 7.55717 0 1 1 0-15.114339h32.38787l14.034743-24.290903-14.034743-24.290902h-28.069488l-16.193935 28.069487a7.55717 7.55717 0 0 1-14.034743-1.619394 7.55717 7.55717 0 0 1 0.539797-5.937776l18.353127-31.848072a7.55717 7.55717 0 0 1 6.477574-3.778585h36.706253a7.55717 7.55717 0 0 1 6.477574 3.778585l18.353126 31.848072a7.55717 7.55717 0 0 1 0 7.55717l-18.353126 31.848072a7.55717 7.55717 0 0 1-5.937777 3.778585z m-36.706252-9.716361a2.159191 2.159191 0 1 0 0 4.318383h36.706252l1.619394-1.079596 18.353126-31.848072a2.159191 2.159191 0 0 0 0-2.159192l-18.353126-31.848072-1.619394-1.079595h-36.706252l-1.619394 1.079595-18.353126 31.848072a2.159191 2.159191 0 0 0 0 1.619394l1.079595 1.079596a2.159191 2.159191 0 0 0 3.238787-0.539798l17.813329-30.768477H565.819681l17.27353 29.688881-17.27353 29.688881z" fill="#32B7FF" /><path d="M621.958655 739.524976h-2.698989a4.858181 4.858181 0 0 1-1.619393-6.477574l16.733733-29.149083-15.654138-26.989892H587.411594l-15.654137 26.989892 16.733733 29.149083a4.955344 4.955344 0 0 1-8.636766 4.858181l-18.353126-31.848073a4.858181 4.858181 0 0 1 0-4.85818l18.353126-31.848072a4.858181 4.858181 0 0 1 4.318383-2.159192h36.706253a4.858181 4.858181 0 0 1 4.318382 2.159192l18.353127 31.848072a4.858181 4.858181 0 0 1 0 4.85818l-18.353127 31.848073a4.858181 4.858181 0 0 1-4.318382 2.159191" fill="#32B7FF" /><path d="M621.958655 742.223965l-3.778584-1.079595a7.55717 7.55717 0 0 1-2.69899-10.256159l16.193935-28.069488-14.034743-24.290902h-28.069488l-14.034743 24.290902 16.193935 28.069488a7.55717 7.55717 0 0 1-2.698989 10.256159 7.55717 7.55717 0 0 1-10.256159-2.69899l-18.353127-31.848072a7.55717 7.55717 0 0 1 0-7.55717l18.353127-31.848072a7.55717 7.55717 0 0 1 6.477574-3.778585h36.706252a7.55717 7.55717 0 0 1 6.477574 3.778585l18.353127 31.848072a7.55717 7.55717 0 0 1 0 7.55717l-18.353127 31.848072a7.55717 7.55717 0 0 1-6.477574 3.778585zM585.252403 669.351258l-1.619394 1.079595-18.892924 31.308275a2.159191 2.159191 0 0 0 0 2.159191l18.353126 31.848072a2.159191 2.159191 0 0 0 3.238787 0.539798l1.079596-1.079596a2.159191 2.159191 0 0 0 0-1.619393l-17.813328-30.768477 17.27353-29.688881h34.007264l17.27353 29.688881-17.813328 30.768477a2.159191 2.159191 0 0 0 0 1.619393l1.079596 1.079596a2.159191 2.159191 0 0 0 2.698989-0.539798l18.353126-31.848072a2.159191 2.159191 0 0 0 0-2.159191l-18.353126-31.848073-1.619394-1.079595z" fill="#32B7FF" /><path d="M677.018035 644.520557h-36.706253a4.858181 4.858181 0 0 1-4.318383-2.159191l-18.353126-31.848072a4.858181 4.858181 0 0 1 0-4.858181l18.353126-31.848072a4.858181 4.858181 0 0 1 4.318383-2.159191h36.706253a4.858181 4.858181 0 1 1 0 9.716361h-34.007264l-15.654137 26.989891 15.654137 26.989892h31.308274l16.733733-29.149083a4.955344 4.955344 0 0 1 8.636766 4.85818l-18.353127 31.848073a4.858181 4.858181 0 0 1-4.318382 2.159191" fill="#32B7FF" /><path d="M677.018035 647.219546h-36.706253a7.55717 7.55717 0 0 1-6.477574-3.778584l-18.353127-31.848073a7.55717 7.55717 0 0 1 0-7.557169l18.353127-31.848073a7.55717 7.55717 0 0 1 6.477574-3.778584h36.706253a7.55717 7.55717 0 1 1 0 15.114339h-32.387871l-14.034743 24.290902 14.034743 24.290903h28.069488l16.193935-28.069487a7.55717 7.55717 0 0 1 10.256159-2.69899 7.55717 7.55717 0 0 1 2.698989 10.256159l-18.353126 31.848073a7.55717 7.55717 0 0 1-6.477574 3.778584z m-36.706253-72.872707l-1.619394 1.079595-18.353126 31.848073a2.159191 2.159191 0 0 0 0 2.159191l18.353126 31.848072 1.619394 1.079596h36.706253l1.619393-1.079596 18.353126-31.848072a2.159191 2.159191 0 0 0 0-1.619394l-1.079595-1.079595a2.159191 2.159191 0 0 0-3.238787 0.539798l-17.813329 30.768476h-34.007263l-17.273531-29.688881 17.273531-29.688881h35.626657a2.159191 2.159191 0 1 0 0-4.318382z" fill="#32B7FF" /><path d="M622.498453 613.212283h-36.706252a4.858181 4.858181 0 0 1-4.318383-2.159192l-18.353126-31.848072a4.858181 4.858181 0 0 1 0-4.85818l18.353126-31.848072a4.955344 4.955344 0 0 1 8.636765 4.85818l-16.733733 29.149083 15.654138 26.989892h31.308274l15.654137-26.989892-16.733733-29.149083a4.955344 4.955344 0 0 1 8.636766-4.85818l18.353126 31.848072a4.858181 4.858181 0 0 1 0 4.85818l-18.353126 31.848072a4.858181 4.858181 0 0 1-4.318383 2.159192" fill="#32B7FF" /><path d="M622.498453 615.911272h-36.706252a7.55717 7.55717 0 0 1-6.477574-3.778585l-18.892925-31.848072a7.55717 7.55717 0 0 1 0-7.55717l18.353127-31.848072a7.55717 7.55717 0 1 1 12.955148 7.55717l-16.193935 28.069487 14.034743 24.290903h28.069488l14.034743-24.290903-16.193935-28.069487a7.55717 7.55717 0 0 1 12.955148-7.55717l18.353127 31.848072a7.55717 7.55717 0 0 1 0 7.55717l-18.353127 31.848072a7.55717 7.55717 0 0 1-5.937776 3.778585z m-36.706252-72.872708h-0.539798l-1.079596 1.079596-18.353126 31.848072a2.159191 2.159191 0 0 0 0 2.159192l18.353126 31.848072 1.619394 1.079595h36.706252l1.619394-1.079595 18.353126-31.848072a2.159191 2.159191 0 0 0 0-2.159192l-18.353126-31.848072a2.159191 2.159191 0 0 0-2.698989-0.539798l-1.079596 1.079596a2.159191 2.159191 0 0 0 0 1.619393l17.813328 30.768477-17.27353 29.688881h-34.007264l-17.27353-29.688881 17.813328-30.768477a2.159191 2.159191 0 0 0 0-1.619393l-1.079596-1.079596z" fill="#32B7FF" /><path d="M566.899276 644.520557h-36.706252a4.858181 4.858181 0 0 1-4.318383-2.159191l-18.353126-31.848072a4.955344 4.955344 0 0 1 8.636765-4.858181l16.733733 29.149083h31.308274l15.654137-26.989892-15.654137-26.989891h-34.007263a4.858181 4.858181 0 1 1 0-9.716361h36.706252a4.858181 4.858181 0 0 1 4.318383 2.159191l18.353126 31.848072a4.858181 4.858181 0 0 1 0 4.858181l-18.353126 32.38787a4.858181 4.858181 0 0 1-4.318383 2.159191" fill="#32B7FF" /><path d="M566.899276 647.219546h-36.706252a7.55717 7.55717 0 0 1-6.477574-3.778584l-18.353127-31.848073a7.55717 7.55717 0 0 1 2.698989-10.256159 7.55717 7.55717 0 0 1 10.256159 2.69899l16.193935 28.069487h28.069488l14.034743-24.290903-14.034743-24.290902h-32.38787a7.55717 7.55717 0 1 1 0-15.114339h36.706252a7.55717 7.55717 0 0 1 6.477574 3.778584l18.353127 31.848073a7.55717 7.55717 0 0 1 0 7.557169l-18.353127 31.848073a7.55717 7.55717 0 0 1-6.477574 3.778584zM511.839897 605.655113h-1.079595l-1.079596 1.079596a2.159191 2.159191 0 0 0 0 1.619393l18.353126 31.848073 1.619394 1.079595h36.706253l2.159191-1.079595 18.353126-31.848073a2.159191 2.159191 0 0 0 0-2.159191l-18.353126-31.848072-1.619394-1.079596h-36.706252a2.159191 2.159191 0 1 0 0 4.318383H565.819681l17.27353 29.688881L565.819681 636.963388h-34.547062l-17.813328-30.768477z" fill="#32B7FF" /><path d="M674.319045 863.678478h-22.671509a3.238787 3.238787 0 0 1-2.698989-1.619394l-11.335754-18.892924a2.698989 2.698989 0 0 1 0-2.698989l11.335754-18.892924a3.238787 3.238787 0 0 1 2.698989-1.619394h22.671509a3.238787 3.238787 0 0 1 2.69899 1.619394l11.335754 18.892924a2.698989 2.698989 0 0 1 0 2.698989l-11.335754 18.892924a3.238787 3.238787 0 0 1-2.69899 1.619394z m-20.512317-5.937776h18.892924l9.716361-16.193935-9.716361-16.193935h-18.892924l-9.716361 16.193935 9.716361 16.193935z" fill="#32B7FF" /><path d="M674.319045 866.377467h-22.671509a5.937776 5.937776 0 0 1-4.85818-2.698989l-11.335755-18.892924a5.397978 5.397978 0 0 1 0-5.397979l11.335755-18.892924a5.937776 5.937776 0 0 1 4.85818-2.698989h22.671509a5.937776 5.937776 0 0 1 4.858181 2.698989l11.335754 18.892924a5.397978 5.397978 0 0 1 0 5.397979L679.177226 863.678478a5.937776 5.937776 0 0 1-4.858181 2.698989z m-22.671509-43.723625l-11.335754 18.892925 11.335754 18.892924h23.211307l11.335755-18.892924-11.335755-18.892925z m22.131711 37.785849h-22.131711l-11.335754-18.892924 11.335754-18.892925h22.131711l11.335755 18.892925z m-18.892924-5.397978h16.193935l8.096968-13.494946-8.096968-13.494946h-16.193935L646.789356 842.086564z" fill="#32B7FF" /><path d="M707.786511 882.571402h-22.671509a3.238787 3.238787 0 0 1-2.698989-1.619393l-11.335755-18.892925a2.698989 2.698989 0 0 1 0-2.698989l11.335755-18.892924a3.238787 3.238787 0 0 1 2.698989-1.619394h22.671509a3.238787 3.238787 0 0 1 2.698989 1.619394l11.335755 18.892924a2.698989 2.698989 0 0 1-1.079596 3.778585 3.238787 3.238787 0 0 1-4.318383-1.079596l-10.256158-17.27353h-18.892925l-9.716361 16.193935 9.716361 16.193935h20.512318a2.968888 2.968888 0 1 1 0 5.937776" fill="#32B7FF" /><path d="M707.786511 885.270391h-22.671509a5.937776 5.937776 0 0 1-4.85818-2.698989l-11.335755-18.892924a5.397978 5.397978 0 0 1 0-5.397978l11.335755-18.892925a5.937776 5.937776 0 0 1 4.85818-2.698989h22.671509a5.937776 5.937776 0 0 1 4.858181 2.698989l11.335754 18.892925a5.397978 5.397978 0 0 1 0.539798 4.318382 5.397978 5.397978 0 0 1-2.698989 3.238787 5.937776 5.937776 0 0 1-7.55717-2.159191l-9.716361-16.193935h-16.193935l-8.096967 13.494946 8.096967 13.494946h19.432722a5.667877 5.667877 0 1 1 0 11.335754z m-22.671509-43.723624l-11.335755 18.892924 11.335755 18.892924h0.539798l-11.335755-18.892924 11.335755-18.892924h22.131711l11.335755 18.892924-10.795957-18.892924z" fill="#32B7FF" /><path d="M640.85158 882.571402h-22.671509a2.968888 2.968888 0 1 1 0-5.937776h20.512317l9.716361-16.193935-9.716361-16.193935H619.799464l-10.256159 17.273531a3.238787 3.238787 0 0 1-4.318382 1.079595 2.698989 2.698989 0 0 1-1.079596-3.778585l11.335754-18.892924a3.238787 3.238787 0 0 1 2.69899-1.619393h22.671509a3.238787 3.238787 0 0 1 2.698989 1.619393l11.335754 18.892924a2.698989 2.698989 0 0 1 0 2.69899l-11.335754 18.892924a3.238787 3.238787 0 0 1-2.698989 1.619393" fill="#32B7FF" /><path d="M640.85158 885.270391h-22.671509a5.667877 5.667877 0 1 1 0-11.335754h19.432722l8.096967-13.494946-8.096967-13.494946h-16.193935l-9.716361 16.193935a5.937776 5.937776 0 0 1-7.55717 2.159191 5.397978 5.397978 0 0 1-2.698989-3.238787 5.397978 5.397978 0 0 1 0.539798-4.318382l11.335754-18.892925a5.937776 5.937776 0 0 1 4.858181-2.698989h22.671509a5.937776 5.937776 0 0 1 4.85818 2.698989l11.335755 18.892925a5.397978 5.397978 0 0 1 0 5.397978l-11.335755 18.892924a5.937776 5.937776 0 0 1-4.85818 3.238787z m-22.671509-5.937776h22.671509l11.335754-18.892924-11.335754-18.892924h-22.671509l-11.335755 18.892924 11.875552-18.353127h22.131712l11.335754 18.892925-11.335754 18.892924z" fill="#32B7FF" /><path d="M674.319045 901.464326h-1.619393a2.698989 2.698989 0 0 1-1.079596-3.778585l10.256159-17.27353-9.716361-16.193935h-18.892924l-9.716361 16.193935 10.256159 17.27353a2.698989 2.698989 0 0 1-1.079596 3.778585 3.238787 3.238787 0 0 1-4.318383-1.079595l-11.335754-18.892925a2.698989 2.698989 0 0 1 0-2.698989l11.335754-18.892924a3.238787 3.238787 0 0 1 2.698989-1.619393h22.671509a3.238787 3.238787 0 0 1 2.69899 1.619393l11.335754 18.892924a2.698989 2.698989 0 0 1 0 2.698989l-11.335754 18.892925a3.238787 3.238787 0 0 1-2.69899 1.619393" fill="#32B7FF" /><path d="M674.319045 904.163315h-2.698989a5.397978 5.397978 0 0 1-2.698989-3.238787 5.397978 5.397978 0 0 1 0.539798-4.318382l9.716361-16.193935-8.096968-13.494946h-16.193935L646.789356 879.872413l9.716361 16.193935a5.397978 5.397978 0 0 1 0.539798 4.318383 5.397978 5.397978 0 0 1-2.69899 3.238787 5.937776 5.937776 0 0 1-7.557169-2.159192l-11.335755-18.892924a5.397978 5.397978 0 0 1 0-5.397978l11.335755-18.892924a5.937776 5.937776 0 0 1 4.85818-2.69899h22.671509a5.937776 5.937776 0 0 1 4.858181 2.69899l11.335754 18.892924a5.397978 5.397978 0 0 1 0 5.397978L679.177226 901.464326a5.937776 5.937776 0 0 1-4.858181 2.698989z m-22.131711-43.183826h21.591913l11.335755 18.892924-11.335755 18.892924h0.539798l11.335755-18.892924-11.335755-18.892924h-22.671509l-11.335754 18.892924 11.335754 18.892924-10.795956-18.892924z" fill="#32B7FF" /><path d="M707.786511 844.785554h-22.671509a3.238787 3.238787 0 0 1-2.698989-1.619394l-11.335755-18.892924a2.698989 2.698989 0 0 1 0-2.698989l11.335755-18.892924a3.238787 3.238787 0 0 1 2.698989-1.619394h22.671509a2.968888 2.968888 0 1 1 0 5.937776h-20.512318l-9.716361 16.193935 9.716361 16.193935h18.892925l10.256158-17.27353a3.238787 3.238787 0 0 1 4.318383-1.079596 2.698989 2.698989 0 0 1 1.079596 3.778585l-11.335755 18.892924a3.238787 3.238787 0 0 1-2.698989 1.619393" fill="#32B7FF" /><path d="M707.786511 847.484543h-22.671509a5.937776 5.937776 0 0 1-4.85818-2.698989l-11.335755-18.892925a5.397978 5.397978 0 0 1 0-5.397978l11.335755-18.892924a5.937776 5.937776 0 0 1 4.85818-2.698989h22.671509a5.667877 5.667877 0 1 1 0 11.335754h-19.432722l-8.096967 13.494946 8.096967 13.494946h16.193935l9.716361-16.193935a5.937776 5.937776 0 0 1 7.55717-2.159191 5.397978 5.397978 0 0 1 2.698989 3.238787 5.397978 5.397978 0 0 1-0.539798 4.318382l-11.335754 18.892924a5.937776 5.937776 0 0 1-4.858181 2.159192z m-22.671509-43.723625l-11.335755 18.892924 11.335755 18.892925h23.211307l11.335754-18.892925-11.875552 18.353127h-22.131711l-11.335755-18.892924 11.335755-18.892925z" fill="#32B7FF" /><path d="M674.319045 826.432427H652.187334a3.238787 3.238787 0 0 1-2.698989-1.619393l-11.335755-18.892924a2.698989 2.698989 0 0 1 0-2.69899l11.335755-18.892924a3.238787 3.238787 0 0 1 4.318383-1.079595 2.698989 2.698989 0 0 1 1.079595 3.778584l-10.256159 17.273531 9.716361 16.193935h18.892925l9.716361-16.193935-10.256159-17.273531a2.698989 2.698989 0 0 1 1.079595-3.778584 3.238787 3.238787 0 0 1 4.318383 1.079595l11.335755 18.892924a2.698989 2.698989 0 0 1 0 2.69899l-11.335755 18.892924a3.238787 3.238787 0 0 1-2.698989 1.619393" fill="#32B7FF" /><path d="M674.319045 829.131416H652.187334a5.937776 5.937776 0 0 1-4.85818-2.698989l-11.335755-18.892924a5.397978 5.397978 0 0 1 0-5.397978l10.795957-19.432722a5.937776 5.937776 0 0 1 7.557169-2.159192 5.397978 5.397978 0 0 1 2.69899 3.238787 5.397978 5.397978 0 0 1-0.539798 4.318383l-9.716361 16.193935 8.096967 13.494946h16.193935l8.096968-13.494946-9.716361-16.193935a5.397978 5.397978 0 0 1-0.539798-4.318383 5.397978 5.397978 0 0 1 2.698989-3.238787 5.937776 5.937776 0 0 1 7.55717 2.159192l11.335754 18.892924a5.397978 5.397978 0 0 1 0 5.397978L679.177226 825.892629a5.937776 5.937776 0 0 1-4.858181 3.238787z m-22.131711-43.183826l-11.875552 18.892924 11.335754 18.892924h23.211307l11.335755-18.892924-11.335755-18.892924 10.795957 18.892924-11.335755 18.892924H652.187334l-11.335754-18.892924z" fill="#32B7FF" /><path d="M640.311782 844.785554h-22.671509a3.238787 3.238787 0 0 1-2.698989-1.619394l-11.335755-18.892924a2.698989 2.698989 0 0 1 1.079596-3.778585 3.238787 3.238787 0 0 1 4.318382 1.079596l10.256159 17.27353h18.892924l9.716361-16.193935-9.716361-16.193935h-20.512317a2.968888 2.968888 0 1 1 0-5.937776h22.671509a3.238787 3.238787 0 0 1 2.698989 1.619394l11.335754 18.892924a2.698989 2.698989 0 0 1 0 2.698989l-11.335754 18.892924a3.238787 3.238787 0 0 1-2.698989 1.619394" fill="#32B7FF" /><path d="M640.311782 847.484543h-22.671509a5.937776 5.937776 0 0 1-4.858181-2.698989l-11.335754-18.892925a5.397978 5.397978 0 0 1-0.539798-4.318382 5.397978 5.397978 0 0 1 2.698989-3.238787 5.937776 5.937776 0 0 1 7.55717 2.159191l9.716361 16.193935h16.193935l8.096967-13.494946-8.096967-13.494946h-19.432722a5.667877 5.667877 0 1 1 0-11.335754h22.671509a5.937776 5.937776 0 0 1 4.85818 2.698989l11.335755 18.892924a5.397978 5.397978 0 0 1 0 5.397979l-11.335755 18.892924a5.937776 5.937776 0 0 1-4.85818 3.238787z m-33.467466-24.290903l10.795957 18.892924h23.211307l11.335754-18.892924-11.335754-18.892924h-0.539798l11.335754 18.892924-11.335754 18.892924h-22.131711z" fill="#32B7FF" /><path d="M616.560677 681.766608h-36.706253a4.858181 4.858181 0 0 1-4.318382-2.159192l-18.353127-31.848072a4.858181 4.858181 0 0 1 0-4.85818l18.353127-31.848073a4.858181 4.858181 0 0 1 4.318382-2.698989h36.706253a4.858181 4.858181 0 0 1 4.318383 2.698989l18.353126 31.848073a4.858181 4.858181 0 0 1 0 4.85818l-18.353126 31.848072a4.858181 4.858181 0 0 1-4.318383 2.159192z m-34.007263-9.716361h31.308274l15.654137-26.989892-15.654137-26.989892h-31.308274l-15.654138 26.989892 15.654138 26.989892z"  /><path d="M616.560677 683.925799h-36.706253a7.55717 7.55717 0 0 1-6.477574-3.778585l-18.353126-31.308274a7.55717 7.55717 0 0 1 0-7.55717l18.353126-31.848072a7.55717 7.55717 0 0 1 6.477574-3.778585h36.706253a7.55717 7.55717 0 0 1 6.477574 3.778585l18.353126 31.848072a7.55717 7.55717 0 0 1 0 7.55717l-18.353126 31.848072a7.55717 7.55717 0 0 1-6.477574 3.238787z m-36.706253-72.872708l-1.619393 1.079596-18.353127 31.848072a2.159191 2.159191 0 0 0 0 2.159192l18.353127 31.848072 1.619393 1.079596h36.706253l1.619394-1.079596 18.353126-31.848072a2.159191 2.159191 0 0 0 0-2.159192l-18.353126-31.848072-1.619394-1.079596z m35.626657 63.156347h-34.547061l-17.273531-29.688881 17.273531-29.688881h34.007264l17.27353 29.688881z m-31.308274-5.397978h28.069487l14.034744-24.290903-14.034744-24.290902h-28.069487l-14.034744 24.290902z"  /><path d="M671.620056 713.074882h-36.706253a4.858181 4.858181 0 0 1-4.318382-2.159191l-18.353127-31.848072a4.858181 4.858181 0 0 1 0-4.858181l18.353127-31.848072a4.858181 4.858181 0 0 1 4.318382-2.159191h36.706253a4.858181 4.858181 0 0 1 4.318383 2.159191l18.353126 31.848072a4.955344 4.955344 0 0 1-8.636765 4.858181l-16.733733-29.149083h-31.308274l-15.654138 26.989891 15.654138 26.989892h34.007263a4.858181 4.858181 0 1 1 0 9.716361"  /><path d="M671.620056 715.773871h-36.706253a7.55717 7.55717 0 0 1-6.477574-3.778585l-18.353126-31.848072a7.55717 7.55717 0 0 1 0-7.557169l18.353126-31.848073a7.55717 7.55717 0 0 1 6.477574-3.778584h36.706253a7.55717 7.55717 0 0 1 6.477574 3.778584l18.353127 31.848073a7.55717 7.55717 0 0 1-12.955148 7.557169l-16.193936-28.069487h-28.069487l-14.034744 24.290902 14.034744 24.290903h32.38787a7.55717 7.55717 0 1 1 0 15.114339z m-36.706253-72.872707l-1.619393 1.079595-18.353126 31.848073a2.159191 2.159191 0 0 0 0 2.159191l18.353126 31.848072 1.619393 1.079596h36.706253a2.159191 2.159191 0 1 0 0-4.318383H635.993399l-17.273531-29.688881 17.273531-29.688881h34.007264l17.813328 30.768477a2.159191 2.159191 0 0 0 3.238787 0.539798l1.079596-1.079596a2.159191 2.159191 0 0 0 0-1.619393l-18.353127-31.848073-1.619393-1.079595z"  /><path d="M561.501298 713.074882h-36.706253a4.858181 4.858181 0 1 1 0-9.716361h34.007264l15.654137-26.989892-15.654137-26.989891h-31.308275l-16.733732 29.149083a4.955344 4.955344 0 0 1-8.636766-4.858181l18.353127-31.848072a4.858181 4.858181 0 0 1 4.318382-2.159191h36.706253a4.858181 4.858181 0 0 1 4.318383 2.159191l18.353126 31.848072a4.858181 4.858181 0 0 1 0 4.858181l-18.353126 32.38787a4.858181 4.858181 0 0 1-4.318383 2.159191"  /><path d="M561.501298 715.773871h-36.706253a7.55717 7.55717 0 1 1 0-15.114339h32.38787l14.034744-24.290903-14.034744-24.290902h-28.069487l-16.193935 28.069487a7.55717 7.55717 0 0 1-14.034744-1.619393 7.55717 7.55717 0 0 1 0.539798-5.937776l18.353126-31.848073a7.55717 7.55717 0 0 1 6.477574-3.778584h36.706253a7.55717 7.55717 0 0 1 6.477574 3.778584l18.353127 31.848073a7.55717 7.55717 0 0 1 0 7.557169l-18.353127 31.848072a7.55717 7.55717 0 0 1-5.937776 3.778585z m-36.706253-9.716361a2.159191 2.159191 0 1 0 0 4.318383h36.706253l1.619394-1.079596 18.353126-31.848072a2.159191 2.159191 0 0 0 0-2.159191l-18.353126-31.848072-1.619394-1.079596h-36.706253l-1.619393 1.079596-18.353127 31.848072a2.159191 2.159191 0 0 0 0 1.619393l1.079596 1.079596a2.159191 2.159191 0 0 0 3.238787-0.539798l17.813329-30.768476H560.421702l17.273531 29.68888-17.273531 29.688881z"  /><path d="M616.560677 744.922954h-2.698989a4.858181 4.858181 0 0 1-1.619394-6.477574l16.733733-29.149083-15.654137-26.989891h-30.768476l-15.654138 26.989891 16.733733 29.149083a4.955344 4.955344 0 0 1-8.636765 4.858181l-18.353127-31.848072a4.858181 4.858181 0 0 1 0-4.858181l18.353127-31.848072a4.858181 4.858181 0 0 1 4.318383-2.159191h36.706252a4.858181 4.858181 0 0 1 4.318383 2.159191l18.353126 31.848072a4.858181 4.858181 0 0 1 0 4.858181l-18.353126 31.848072a4.858181 4.858181 0 0 1-4.318383 2.159191"  /><path d="M616.560677 747.621944l-3.778585-1.079596a7.55717 7.55717 0 0 1-2.698989-10.256159l16.193935-28.069487-14.034744-24.290903h-28.069487l-14.034744 24.290903 16.193935 28.069487a7.55717 7.55717 0 0 1-2.698989 10.256159 7.55717 7.55717 0 0 1-10.256159-2.698989l-18.353126-31.848073a7.55717 7.55717 0 0 1 0-7.557169l18.353126-31.848072a7.55717 7.55717 0 0 1 6.477574-3.778585h36.706253a7.55717 7.55717 0 0 1 6.477574 3.778585l18.353126 31.848072a7.55717 7.55717 0 0 1 0 7.557169l-18.353126 31.848073a7.55717 7.55717 0 0 1-6.477574 3.778585zM579.854424 674.749236l-1.619393 1.079596-18.892924 31.308274a2.159191 2.159191 0 0 0 0 2.159191l18.353126 31.848073a2.159191 2.159191 0 0 0 3.238787 0.539797l1.079596-1.079595a2.159191 2.159191 0 0 0 0-1.619394l-17.813329-30.768476 17.273531-29.688881h34.007263l17.273531 29.688881-17.813328 30.768476a2.159191 2.159191 0 0 0 0 1.619394l1.079595 1.079595a2.159191 2.159191 0 0 0 2.698989-0.539797l18.353127-31.848073a2.159191 2.159191 0 0 0 0-2.159191l-18.353127-31.848072-1.619393-1.079596z"  /><path d="M671.620056 649.918536h-36.706253a4.858181 4.858181 0 0 1-4.318382-2.159192l-18.353127-31.848072a4.858181 4.858181 0 0 1 0-4.858181l18.353127-31.848072a4.858181 4.858181 0 0 1 4.318382-2.159191h36.706253a4.858181 4.858181 0 1 1 0 9.716361h-34.007263l-15.654138 26.989892 15.654138 26.989891h31.308274l16.733733-29.149083a4.955344 4.955344 0 0 1 8.636765 4.858181l-18.353126 31.848072a4.858181 4.858181 0 0 1-4.318383 2.159191"  /><path d="M671.620056 652.617525h-36.706253a7.55717 7.55717 0 0 1-6.477574-3.778585l-18.353126-31.848072a7.55717 7.55717 0 0 1 0-7.55717l18.353126-31.848072a7.55717 7.55717 0 0 1 6.477574-3.778585h36.706253a7.55717 7.55717 0 1 1 0 15.114339h-32.38787l-14.034744 24.290903 14.034744 24.290902h28.069487l16.193936-28.069487a7.55717 7.55717 0 0 1 10.256158-2.698989 7.55717 7.55717 0 0 1 2.69899 10.256159l-18.353127 31.848072a7.55717 7.55717 0 0 1-6.477574 3.778585z m-36.706253-72.872708l-1.619393 1.079596-18.353126 31.848072a2.159191 2.159191 0 0 0 0 2.159191l18.353126 31.848073 1.619393 1.079595h36.706253l1.619394-1.079595 18.353126-31.848073a2.159191 2.159191 0 0 0 0-1.619393l-1.079596-1.079596a2.159191 2.159191 0 0 0-3.238787 0.539798l-17.813328 30.768477h-34.007264l-17.27353-29.688881 17.27353-29.688881h35.626657a2.159191 2.159191 0 1 0 0-4.318383z"  /><path d="M617.100475 618.610261h-36.706253a4.858181 4.858181 0 0 1-4.318382-2.159191l-18.353127-31.848072a4.858181 4.858181 0 0 1 0-4.858181l18.353127-31.848072a4.955344 4.955344 0 0 1 8.636765 4.85818l-16.733733 29.149083 15.654137 26.989892h31.308275l15.654137-26.989892-16.733733-29.149083a4.955344 4.955344 0 0 1 8.636765-4.85818l18.353127 31.848072a4.858181 4.858181 0 0 1 0 4.858181l-18.353127 31.848072a4.858181 4.858181 0 0 1-4.318382 2.159191"  /><path d="M617.100475 621.30925h-36.706253a7.55717 7.55717 0 0 1-6.477574-3.778585l-18.892924-31.848072a7.55717 7.55717 0 0 1 0-7.557169l18.353126-31.848073a7.55717 7.55717 0 1 1 12.955148 7.55717l-16.193935 28.069487 14.034744 24.290903h28.069487l14.034744-24.290903-16.193935-28.069487a7.55717 7.55717 0 0 1 12.955148-7.55717l18.353126 31.848073a7.55717 7.55717 0 0 1 0 7.557169l-18.353126 31.848072a7.55717 7.55717 0 0 1-5.937776 3.778585z m-36.706253-72.872707h-0.539798l-1.079595 1.079595-18.353127 31.848073a2.159191 2.159191 0 0 0 0 2.159191l18.353127 31.848072 1.619393 1.079596h36.706253l1.619393-1.079596 18.353127-31.848072a2.159191 2.159191 0 0 0 0-2.159191l-18.353127-31.848073a2.159191 2.159191 0 0 0-2.698989-0.539797l-1.079595 1.079595a2.159191 2.159191 0 0 0 0 1.619394l17.813328 30.768476-17.273531 29.688881h-34.007263l-17.273531-29.688881 17.813329-30.768476a2.159191 2.159191 0 0 0 0-1.619394l-1.079596-1.079595z"  /><path d="M561.501298 649.918536h-36.706253a4.858181 4.858181 0 0 1-4.318382-2.159192l-18.353127-31.848072a4.955344 4.955344 0 0 1 8.636766-4.858181l16.733732 29.149084h31.308275l15.654137-26.989892-15.654137-26.989892h-34.007264a4.858181 4.858181 0 1 1 0-9.716361h36.706253a4.858181 4.858181 0 0 1 4.318383 2.159191l18.353126 31.848073a4.858181 4.858181 0 0 1 0 4.85818l-18.353126 32.38787a4.858181 4.858181 0 0 1-4.318383 2.159192"  /><path d="M561.501298 652.617525h-36.706253a7.55717 7.55717 0 0 1-6.477574-3.778585l-18.353126-31.848072a7.55717 7.55717 0 0 1 2.698989-10.256159 7.55717 7.55717 0 0 1 10.256159 2.698989l16.193935 28.069487h28.069487l14.034744-24.290902-14.034744-24.290903h-32.38787a7.55717 7.55717 0 1 1 0-15.114339h36.706253a7.55717 7.55717 0 0 1 6.477574 3.778585l18.353126 31.848072a7.55717 7.55717 0 0 1 0 7.55717l-18.353126 31.848072a7.55717 7.55717 0 0 1-6.477574 3.778585zM506.441919 611.053091h-1.079596l-1.079595 1.079596a2.159191 2.159191 0 0 0 0 1.619394l18.353126 31.848072 1.619393 1.079596h36.706253l2.159192-1.079596 18.353126-31.848072a2.159191 2.159191 0 0 0 0-2.159192l-18.353126-31.848072-1.619394-1.079596h-36.706253a2.159191 2.159191 0 1 0 0 4.318383H560.421702l17.273531 29.688881L560.421702 642.361366h-34.547061l-17.813329-30.768477z"  /><path d="M668.921067 869.076456h-22.671509a3.238787 3.238787 0 0 1-2.698989-1.619393l-11.335755-18.892925a2.698989 2.698989 0 0 1 0-2.698989l11.335755-18.892924a3.238787 3.238787 0 0 1 2.698989-1.619393h22.671509a3.238787 3.238787 0 0 1 2.698989 1.619393l11.335755 18.892924a2.698989 2.698989 0 0 1 0 2.698989l-11.335755 18.892925a3.238787 3.238787 0 0 1-2.698989 1.619393z m-20.512318-5.937776h18.892924l9.716362-16.193935-9.716362-16.193935h-18.892924l-9.716361 16.193935 9.716361 16.193935z"  /><path d="M668.921067 871.775445h-22.671509a5.937776 5.937776 0 0 1-4.858181-2.698989l-11.335754-18.892924a5.397978 5.397978 0 0 1 0-5.397978l11.335754-18.892925a5.937776 5.937776 0 0 1 4.858181-2.698989h22.671509a5.937776 5.937776 0 0 1 4.85818 2.698989l11.335755 18.892925a5.397978 5.397978 0 0 1 0 5.397978L673.779247 869.076456a5.937776 5.937776 0 0 1-4.85818 2.698989z m-22.671509-43.723624l-11.335755 18.892924 11.335755 18.892924h23.211307l11.335754-18.892924-11.335754-18.892924z m22.131711 37.785848h-22.131711l-11.335755-18.892924 11.335755-18.892924h22.131711l11.335755 18.892924z m-18.892924-5.397978h16.193935l8.096967-13.494946-8.096967-13.494946h-16.193935L641.391377 847.484543z"  /><path d="M702.388533 887.96938h-22.671509a3.238787 3.238787 0 0 1-2.698989-1.619393l-11.335755-18.892924a2.698989 2.698989 0 0 1 0-2.698989l11.335755-18.892925a3.238787 3.238787 0 0 1 2.698989-1.619393h22.671509a3.238787 3.238787 0 0 1 2.698989 1.619393l11.335754 18.892925a2.698989 2.698989 0 0 1-1.079595 3.778584 3.238787 3.238787 0 0 1-4.318383-1.079595l-10.256159-17.273531h-18.892924l-9.716361 16.193935 9.716361 16.193935h20.512318a2.968888 2.968888 0 1 1 0 5.937776"  /><path d="M702.388533 890.66837h-22.671509a5.937776 5.937776 0 0 1-4.858181-2.69899l-11.335754-18.892924a5.397978 5.397978 0 0 1 0-5.397978l11.335754-18.892924a5.937776 5.937776 0 0 1 4.858181-2.69899h22.671509a5.937776 5.937776 0 0 1 4.85818 2.69899l11.335755 18.892924a5.397978 5.397978 0 0 1 0.539798 4.318383 5.397978 5.397978 0 0 1-2.69899 3.238787 5.937776 5.937776 0 0 1-7.557169-2.159192l-9.716361-16.193935h-16.193935l-8.096968 13.494946 8.096968 13.494946h19.432722a5.667877 5.667877 0 1 1 0 11.335754z m-22.671509-43.723625l-11.335755 18.892924 11.335755 18.892924h0.539798l-11.335755-18.892924 11.335755-18.892924h22.131711l11.335754 18.892924-10.795956-18.892924z"  /><path d="M635.453601 887.96938h-22.671509a2.968888 2.968888 0 1 1 0-5.937776h20.512318l9.716361-16.193935-9.716361-16.193935H614.401486l-10.256159 17.273531a3.238787 3.238787 0 0 1-4.318383 1.079596 2.698989 2.698989 0 0 1-1.079595-3.778585l11.335754-18.892925a3.238787 3.238787 0 0 1 2.698989-1.619393h22.671509a3.238787 3.238787 0 0 1 2.698989 1.619393l11.335755 18.892925a2.698989 2.698989 0 0 1 0 2.698989l-11.335755 18.892924a3.238787 3.238787 0 0 1-2.698989 1.619394"  /><path d="M635.453601 890.66837h-22.671509a5.667877 5.667877 0 1 1 0-11.335755h19.432722l8.096968-13.494946-8.096968-13.494946h-16.193935l-9.716361 16.193935a5.937776 5.937776 0 0 1-7.557169 2.159192 5.397978 5.397978 0 0 1-2.69899-3.238787 5.397978 5.397978 0 0 1 0.539798-4.318383l11.335755-18.892924a5.937776 5.937776 0 0 1 4.85818-2.698989h22.671509a5.937776 5.937776 0 0 1 4.858181 2.698989l11.335754 18.892924a5.397978 5.397978 0 0 1 0 5.397978l-11.335754 18.892925a5.937776 5.937776 0 0 1-4.858181 3.238787z m-22.671509-5.937777h22.671509l11.335755-18.892924-11.335755-18.892924h-22.671509l-11.335754 18.892924 11.875552-18.353126h22.131711l11.335755 18.892924-11.335755 18.892924z"  /><path d="M668.921067 906.862305h-1.619394a2.698989 2.698989 0 0 1-1.079595-3.778585l10.256159-17.273531-9.716361-16.193935h-18.892925l-9.716361 16.193935 10.256159 17.273531a2.698989 2.698989 0 0 1-1.079595 3.778585 3.238787 3.238787 0 0 1-4.318383-1.079596l-11.335755-18.892924a2.698989 2.698989 0 0 1 0-2.698989l11.335755-18.892925a3.238787 3.238787 0 0 1 2.698989-1.619393h22.671509a3.238787 3.238787 0 0 1 2.698989 1.619393l11.335755 18.892925a2.698989 2.698989 0 0 1 0 2.698989l-11.335755 18.892924a3.238787 3.238787 0 0 1-2.698989 1.619393"  /><path d="M668.921067 909.561294h-2.698989a5.397978 5.397978 0 0 1-2.698989-3.238787 5.397978 5.397978 0 0 1 0.539797-4.318383l9.716361-16.193935-8.096967-13.494946h-16.193935L641.391377 885.270391l9.716361 16.193935a5.397978 5.397978 0 0 1 0.539798 4.318383 5.397978 5.397978 0 0 1-2.698989 3.238787 5.937776 5.937776 0 0 1-7.55717-2.159191l-11.335754-18.892925a5.397978 5.397978 0 0 1 0-5.397978l11.335754-18.892924a5.937776 5.937776 0 0 1 4.858181-2.698989h22.671509a5.937776 5.937776 0 0 1 4.85818 2.698989l11.335755 18.892924a5.397978 5.397978 0 0 1 0 5.397978L673.779247 906.862305a5.937776 5.937776 0 0 1-4.85818 2.698989z m-22.131711-43.183827h21.591913l11.335755 18.892924-11.335755 18.892924h0.539798l11.335755-18.892924-11.335755-18.892924h-22.671509l-11.335755 18.892924 11.335755 18.892924-10.795957-18.892924z"  /><path d="M702.388533 850.183532h-22.671509a3.238787 3.238787 0 0 1-2.698989-1.619394l-11.335755-18.892924a2.698989 2.698989 0 0 1 0-2.698989l11.335755-18.892924a3.238787 3.238787 0 0 1 2.698989-1.619394h22.671509a2.968888 2.968888 0 1 1 0 5.937777h-20.512318l-9.716361 16.193935 9.716361 16.193935h18.892924l10.256159-17.273531a3.238787 3.238787 0 0 1 4.318383-1.079596 2.698989 2.698989 0 0 1 1.079595 3.778585l-11.335754 18.892924a3.238787 3.238787 0 0 1-2.698989 1.619394"  /><path d="M702.388533 852.882521h-22.671509a5.937776 5.937776 0 0 1-4.858181-2.698989l-11.335754-18.892924a5.397978 5.397978 0 0 1 0-5.397979l11.335754-18.892924a5.937776 5.937776 0 0 1 4.858181-2.698989h22.671509a5.667877 5.667877 0 1 1 0 11.335755h-19.432722l-8.096968 13.494945 8.096968 13.494946h16.193935l9.716361-16.193935a5.937776 5.937776 0 0 1 7.557169-2.159191 5.397978 5.397978 0 0 1 2.69899 3.238787 5.397978 5.397978 0 0 1-0.539798 4.318383l-11.335755 18.892924a5.937776 5.937776 0 0 1-4.85818 2.159191z m-22.671509-43.723624l-11.335755 18.892924 11.335755 18.892924h23.211307l11.335754-18.892924-11.875552 18.353126h-22.131711l-11.335755-18.892924 11.335755-18.892924z"  /><path d="M668.921067 831.830406H646.789356a3.238787 3.238787 0 0 1-2.698989-1.619394l-11.335755-18.892924a2.698989 2.698989 0 0 1 0-2.698989l11.335755-18.892924a3.238787 3.238787 0 0 1 4.318382-1.079596 2.698989 2.698989 0 0 1 1.079596 3.778585l-10.256159 17.27353 9.716361 16.193935h18.892924l9.716361-16.193935-10.256159-17.27353a2.698989 2.698989 0 0 1 1.079596-3.778585 3.238787 3.238787 0 0 1 4.318383 1.079596l11.335754 18.892924a2.698989 2.698989 0 0 1 0 2.698989l-11.335754 18.892924a3.238787 3.238787 0 0 1-2.698989 1.619394"  /><path d="M668.921067 834.529395H646.789356a5.937776 5.937776 0 0 1-4.858181-2.698989l-11.335754-18.892925a5.397978 5.397978 0 0 1 0-5.397978l10.795956-19.432722a5.937776 5.937776 0 0 1 7.55717-2.159191 5.397978 5.397978 0 0 1 2.698989 3.238787 5.397978 5.397978 0 0 1-0.539798 4.318382l-9.716361 16.193935 8.096968 13.494946h16.193935l8.096967-13.494946-9.716361-16.193935a5.397978 5.397978 0 0 1-0.539797-4.318382 5.397978 5.397978 0 0 1 2.698989-3.238787 5.937776 5.937776 0 0 1 7.557169 2.159191l11.335755 18.892924a5.397978 5.397978 0 0 1 0 5.397979L673.779247 831.290608a5.937776 5.937776 0 0 1-4.85818 3.238787z m-22.131711-43.183827l-11.875553 18.892924 11.335755 18.892924h23.211307l11.335754-18.892924-11.335754-18.892924 10.795957 18.892924-11.335755 18.892924H646.789356l-11.335755-18.892924z"  /><path d="M634.913803 850.183532h-22.671509a3.238787 3.238787 0 0 1-2.698989-1.619394l-11.335754-18.892924a2.698989 2.698989 0 0 1 1.079595-3.778585 3.238787 3.238787 0 0 1 4.318383 1.079596l10.256159 17.273531h18.892924l9.716361-16.193935-9.716361-16.193935h-20.512318a2.968888 2.968888 0 1 1 0-5.937776h22.671509a3.238787 3.238787 0 0 1 2.69899 1.619393l11.335754 18.892924a2.698989 2.698989 0 0 1 0 2.698989l-11.335754 18.892925a3.238787 3.238787 0 0 1-2.69899 1.619393"  /><path d="M634.913803 852.882521h-22.671509a5.937776 5.937776 0 0 1-4.85818-2.698989l-11.335755-18.892924a5.397978 5.397978 0 0 1-0.539797-4.318383 5.397978 5.397978 0 0 1 2.698989-3.238787 5.937776 5.937776 0 0 1 7.557169 2.159191l9.716361 16.193935h16.193935l8.096968-13.494945-8.096968-13.494946h-19.432722a5.667877 5.667877 0 1 1 0-11.335755h22.671509a5.937776 5.937776 0 0 1 4.858181 2.698989l11.335754 18.892925a5.397978 5.397978 0 0 1 0 5.397978l-11.335754 18.892924a5.937776 5.937776 0 0 1-4.858181 3.238787z m-33.467465-24.290902l10.795956 18.892924h23.211307l11.335755-18.892924-11.335755-18.892925h-0.539798l11.335755 18.892925-11.335755 18.892924h-22.131711z"  /></svg>