<?xml version="1.0" standalone="no"?><!DOCTYPE svg PUBLIC "-//W3C//DTD SVG 1.1//EN" "http://www.w3.org/Graphics/SVG/1.1/DTD/svg11.dtd"><svg class="icon" width="200px" height="200.00px" viewBox="0 0 1024 1024" version="1.1" xmlns="http://www.w3.org/2000/svg"><path d="M436.043956 630.153846c-173.854945 0-315.076923-141.221978-315.076923-315.076923S262.189011 0 436.043956 0c128.843956 0 239.120879 77.081319 288.07033 187.358242 9.564835-1.125275 19.692308-1.687912 29.81978-1.687912 122.654945 0 222.241758 99.586813 222.241758 222.241758 0 121.52967-97.898901 220.553846-219.428571 222.241758H436.043956z" fill="#D2F7FF" /><path d="M847.894505 611.024176c26.443956-36.571429 42.197802-81.582418 42.197803-129.969231 0-122.654945-99.586813-222.241758-222.241759-222.241758-10.127473 0-19.692308 0.562637-29.81978 1.687912C589.081319 150.224176 478.804396 73.142857 349.96044 73.142857 295.384615 73.142857 244.184615 86.646154 199.736264 111.402198 257.687912 43.323077 343.771429 0 439.982418 0c128.843956 0 239.120879 77.081319 288.070329 187.358242 9.564835-1.125275 19.692308-1.687912 29.81978-1.687912 122.654945 0 222.241758 99.586813 222.241759 222.241758 0 90.584615-54.013187 168.791209-132.219781 203.112088z" fill="#9CEDFF" /><path d="M317.89011 301.010989a25.318681 25.318681 0 1 0 50.637363 0 25.318681 25.318681 0 1 0-50.637363 0Z"  /><path d="M554.197802 301.010989a25.318681 25.318681 0 1 0 50.637363 0 25.318681 25.318681 0 1 0-50.637363 0Z"  /><path d="M402.285714 388.21978h129.406594c-1.687912 34.320879-29.81978 61.89011-64.703297 61.89011S403.973626 422.540659 402.285714 388.21978z" fill="#FF8472" /><path d="M466.989011 461.362637c-41.072527 0-74.268132-32.07033-75.956044-72.580219 0-2.813187 1.125275-6.189011 3.375824-8.439561 2.250549-2.250549 5.063736-3.375824 7.876923-3.375824h129.406594c2.813187 0 6.189011 1.125275 7.876923 3.375824 2.250549 2.250549 3.375824 5.063736 3.375824 8.439561-1.687912 40.50989-34.883516 72.58022-75.956044 72.580219z m-51.762637-61.89011c6.189011 23.068132 27.006593 39.384615 51.762637 39.384616 24.756044 0 45.573626-16.316484 51.762637-39.384616H415.226374z"  /><path d="M593.582418 417.476923a29.257143 29.257143 0 1 0 58.514285 0 29.257143 29.257143 0 1 0-58.514285 0Z" fill="#FAD700" /><path d="M272.879121 417.476923a29.257143 29.257143 0 1 0 58.514286 0 29.257143 29.257143 0 1 0-58.514286 0Z" fill="#FAD700" /><path d="M441.67033 725.802198c-12.378022 0-22.505495-10.127473-22.505495-22.505495v-73.142857c0-12.378022 10.127473-22.505495 22.505495-22.505494s22.505495 10.127473 22.505494 22.505494v73.142857c0 12.378022-10.127473 22.505495-22.505494 22.505495zM441.67033 827.076923c-12.378022 0-22.505495-10.127473-22.505495-22.505494v-22.505495c0-12.378022 10.127473-22.505495 22.505495-22.505494s22.505495 10.127473 22.505494 22.505494v22.505495c0 12.378022-10.127473 22.505495-22.505494 22.505494zM531.692308 853.520879c-12.378022 0-22.505495-10.127473-22.505495-22.505494V585.142857c0-12.378022 10.127473-22.505495 22.505495-22.505494s22.505495 10.127473 22.505494 22.505494v245.872528c0 12.378022-10.127473 22.505495-22.505494 22.505494z" fill="#32B7FF" /><path d="M405.098901 686.417582H379.78022C193.547253 686.417582 42.197802 535.068132 42.197802 348.835165c0-59.63956 15.753846-118.153846 45.573627-169.353846 6.189011-10.69011 20.254945-14.628571 30.945055-8.439561s14.628571 20.254945 8.43956 30.945055c-25.881319 44.448352-39.384615 95.085714-39.384615 146.285714 0 161.476923 131.094505 292.571429 292.571428 292.571429h25.318681c12.378022 0 22.505495 10.127473 22.505495 22.505495s-10.69011 23.068132-23.068132 23.068131z m279.068132 0c-12.378022 0-22.505495-10.127473-22.505495-22.505494s10.127473-22.505495 22.505495-22.505495h16.316483c108.589011-1.125275 196.923077-91.147253 196.923077-199.736263 0-110.276923-89.459341-199.736264-199.736263-199.736264-9.002198 0-18.004396 0.562637-26.443956 1.687912-9.564835 1.125275-19.692308-3.938462-23.63077-12.940659-46.698901-105.775824-151.912088-174.417582-267.815384-174.417583-12.378022 0-22.505495-10.127473-22.505495-22.505494s10.127473-22.505495 22.505495-22.505495c128.281319 0 244.747253 72.58022 301.573626 186.232967 5.626374-0.562637 10.69011-0.562637 16.316484-0.562637 135.032967 0 244.747253 109.714286 244.747252 244.747253 0 133.345055-108.589011 243.059341-241.934066 244.747252h-16.316483zM170.479121 135.595604c-6.189011 0-12.378022-2.813187-16.879121-7.314285-8.43956-9.564835-7.314286-23.630769 1.687912-31.507693 26.443956-23.630769 55.701099-42.197802 87.208791-56.263736 11.252747-5.063736 24.756044 0 29.819781 11.252747 5.063736 11.252747 0 24.756044-11.252748 29.819781-27.569231 12.378022-52.325275 28.694505-74.830769 48.386813-5.063736 3.938462-10.127473 5.626374-15.753846 5.626373z"  /><path d="M616.087912 931.727473c-12.378022 0-22.505495-10.127473-22.505494-22.505495V731.428571c0-12.378022 10.127473-22.505495 22.505494-22.505494s22.505495 10.127473 22.505495 22.505494v177.793407c0 12.378022-10.127473 22.505495-22.505495 22.505495z" fill="#FAD700" /><path d="M520.43956 855.208791c-12.378022 0-22.505495-10.127473-22.505494-22.505494v-245.872528c0-12.378022 10.127473-22.505495 22.505494-22.505494s22.505495 10.127473 22.505495 22.505494V832.703297c0 12.378022-10.127473 22.505495-22.505495 22.505494z"  /><path d="M441.67033 928.351648c-12.378022 0-22.505495-10.127473-22.505495-22.505494v-22.505495c0-12.378022 10.127473-22.505495 22.505495-22.505494s22.505495 10.127473 22.505494 22.505494v22.505495c0 12.378022-10.127473 22.505495-22.505494 22.505494z" fill="#32B7FF" /><path d="M604.835165 932.29011c-12.378022 0-22.505495-10.127473-22.505495-22.505495v-177.793406c0-12.378022 10.127473-22.505495 22.505495-22.505495s22.505495 10.127473 22.505494 22.505495v177.793406c0 12.378022-10.127473 22.505495-22.505494 22.505495z"  /><path d="M616.087912 697.67033c-12.378022 0-22.505495-10.127473-22.505494-22.505495v-22.505494c0-12.378022 10.127473-22.505495 22.505494-22.505495s22.505495 10.127473 22.505495 22.505495v22.505494c0 12.378022-10.127473 22.505495-22.505495 22.505495z" fill="#FAD700" /><path d="M430.417582 725.802198c-12.378022 0-22.505495-10.127473-22.505494-22.505495v-73.142857c0-12.378022 10.127473-22.505495 22.505494-22.505494s22.505495 10.127473 22.505495 22.505494v73.142857c0 12.378022-10.127473 22.505495-22.505495 22.505495z"  /><path d="M430.417582 827.076923c-12.378022 0-22.505495-10.127473-22.505494-22.505494v-22.505495c0-12.378022 10.127473-22.505495 22.505494-22.505494s22.505495 10.127473 22.505495 22.505494v22.505495c0 12.378022-10.127473 22.505495-22.505495 22.505494z"  /><path d="M604.835165 697.67033c-12.378022 0-22.505495-10.127473-22.505495-22.505495v-22.505494c0-12.378022 10.127473-22.505495 22.505495-22.505495s22.505495 10.127473 22.505494 22.505495v22.505494c0 12.378022-10.127473 22.505495-22.505494 22.505495z"  /><path d="M430.417582 928.351648c-12.378022 0-22.505495-10.127473-22.505494-22.505494v-22.505495c0-12.378022 10.127473-22.505495 22.505494-22.505494s22.505495 10.127473 22.505495 22.505494v22.505495c0 12.378022-10.127473 22.505495-22.505495 22.505494z"  /><path d="M575.015385 1024H306.637363c-12.378022 0-22.505495-10.127473-22.505495-22.505495s10.127473-22.505495 22.505495-22.505494h268.378022c12.378022 0 22.505495 10.127473 22.505494 22.505494s-10.127473 22.505495-22.505494 22.505495zM650.971429 1024H632.967033c-12.378022 0-22.505495-10.127473-22.505495-22.505495s10.127473-22.505495 22.505495-22.505494h18.004396c12.378022 0 22.505495 10.127473 22.505494 22.505494s-10.127473 22.505495-22.505494 22.505495zM727.49011 1024h-18.004396c-12.378022 0-22.505495-10.127473-22.505494-22.505495s10.127473-22.505495 22.505494-22.505494h18.004396c12.378022 0 22.505495 10.127473 22.505494 22.505494s-10.127473 22.505495-22.505494 22.505495z" fill="#FF8472" /><path d="M575.015385 1012.747253H306.637363c-12.378022 0-22.505495-10.127473-22.505495-22.505495s10.127473-22.505495 22.505495-22.505494h268.378022c12.378022 0 22.505495 10.127473 22.505494 22.505494s-10.127473 22.505495-22.505494 22.505495zM650.971429 1012.747253H632.967033c-12.378022 0-22.505495-10.127473-22.505495-22.505495s10.127473-22.505495 22.505495-22.505494h18.004396c12.378022 0 22.505495 10.127473 22.505494 22.505494s-10.127473 22.505495-22.505494 22.505495zM727.49011 1012.747253h-18.004396c-12.378022 0-22.505495-10.127473-22.505494-22.505495s10.127473-22.505495 22.505494-22.505494h18.004396c12.378022 0 22.505495 10.127473 22.505494 22.505494s-10.127473 22.505495-22.505494 22.505495z"  /></svg>