<?xml version="1.0" standalone="no"?><!DOCTYPE svg PUBLIC "-//W3C//DTD SVG 1.1//EN" "http://www.w3.org/Graphics/SVG/1.1/DTD/svg11.dtd"><svg class="icon" width="200px" height="200.00px" viewBox="0 0 1024 1024" version="1.1" xmlns="http://www.w3.org/2000/svg"><path d="M674.123338 714.114936H322.968691a243.742637 243.742637 0 0 1-99.149547-465.648767 243.742637 243.742637 0 0 1 132.789572-182.364346 239.611406 239.611406 0 0 1 106.231658-24.787387 241.97211 241.97211 0 0 1 236.070351 190.036632 239.02123 239.02123 0 0 1 81.444271 31.279322 243.742637 243.742637 0 0 1 116.854824 208.332084q0 12.393693-1.180352 24.197211h2.950879a109.772713 109.772713 0 0 1 0 219.545427h-148.724321" fill="#D2F7FF" /><path d="M898.390171 705.852474a111.543241 111.543241 0 0 0-83.214798-185.315226h-2.95088q1.180352-12.393693 1.180352-24.787387A247.873868 247.873868 0 0 0 694.779494 283.876721a244.332813 244.332813 0 0 0-82.624623-31.869497 246.103341 246.103341 0 0 0-312.793215-182.364346 244.922989 244.922989 0 0 1 372.991155 151.085025 243.152461 243.152461 0 0 1 82.034446 31.279321 245.513165 245.513165 0 0 1 118.035176 210.102612q0 12.393693-1.180352 24.197211h2.95088a110.953065 110.953065 0 0 1 23.607035 218.955251z" fill="#9CEDFF" /><path d="M933.800724 682.245438a111.543241 111.543241 0 0 0-83.214799-185.315225h-2.950879q1.180352-12.393693 1.180352-24.787387A247.873868 247.873868 0 0 0 730.190047 260.269686a244.332813 244.332813 0 0 0-82.624623-31.869497A246.103341 246.103341 0 0 0 334.772209 46.035843a244.922989 244.922989 0 0 1 372.991154 151.085025 243.152461 243.152461 0 0 1 82.034447 31.279321 245.513165 245.513165 0 0 1 118.035176 210.102612q0 12.393693-1.180352 24.197211h2.950879a110.953065 110.953065 0 0 1 23.607035 218.955251z" fill="#32B7FF" /><path d="M855.897508 725.918453h-60.197939a23.607035 23.607035 0 0 1 0-47.21407h60.197939a87.050942 87.050942 0 0 0 0-174.101884h-2.360703a23.607035 23.607035 0 0 1-24.197211-25.967738c0.590176-7.082111 1.180352-14.754397 1.180352-21.836508a220.725778 220.725778 0 0 0-18.885628-90.296909 23.607035 23.607035 0 0 1 43.082839-18.885628 267.939848 267.939848 0 0 1 23.016859 109.182537v2.360704a133.969924 133.969924 0 0 1-21.836508 266.759496z m-518.17442 0h-64.919346a269.1202 269.1202 0 0 1-121.576231-509.321781 269.710376 269.710376 0 0 1 48.394422-108.592362 23.607035 23.607035 0 0 1 37.771256 28.328442 222.496306 222.496306 0 0 0-41.312311 99.739723 23.607035 23.607035 0 0 1-13.574045 17.705277 221.90613 221.90613 0 0 0 90.296909 424.926631h64.919346a23.607035 23.607035 0 0 1 0 47.21407z m441.451556-422.565928a23.607035 23.607035 0 0 1-16.524924-6.491934 222.496306 222.496306 0 0 0-38.951608-30.09897 23.607035 23.607035 0 0 1 24.787387-40.13196 269.710376 269.710376 0 0 1 47.804246 36.590905 23.607035 23.607035 0 0 1-16.524925 40.722135zM653.467183 239.023355a23.607035 23.607035 0 0 1-23.01686-18.295452A223.086482 223.086482 0 0 0 415.036128 47.216195a218.365074 218.365074 0 0 0-97.37902 22.426683 23.62474 23.62474 0 0 1-20.656155-42.492663 265.579145 265.579145 0 0 1 118.035175-27.14809A270.300552 270.300552 0 0 1 677.074218 210.104737a23.607035 23.607035 0 0 1-17.705277 28.328442z"  /><path d="M308.214294 345.255013m-26.557914 0a26.557914 26.557914 0 1 0 53.115829 0 26.557914 26.557914 0 1 0-53.115829 0Z"  /><path d="M556.088163 345.255013m-26.557915 0a26.557914 26.557914 0 1 0 53.115829 0 26.557914 26.557914 0 1 0-53.115829 0Z"  /><path d="M432.151229 480.995464m-67.870226 0a67.870226 67.870226 0 1 0 135.740451 0 67.870226 67.870226 0 1 0-135.740451 0Z" fill="#FF8472" /><path d="M432.151229 560.669208A79.673743 79.673743 0 1 1 511.824972 480.995464 79.673743 79.673743 0 0 1 432.151229 560.669208z m0-135.740452a56.066708 56.066708 0 1 0 56.066708 56.066708 56.066708 56.066708 0 0 0-56.066708-56.066708z"  /><path d="M187.22824 478.044585m-35.410553 0a35.410553 35.410553 0 1 0 70.821105 0 35.410553 35.410553 0 1 0-70.821105 0Z" fill="#FAD700" /><path d="M641.663665 478.044585m-35.410553 0a35.410553 35.410553 0 1 0 70.821106 0 35.410553 35.410553 0 1 0-70.821106 0Z" fill="#FAD700" /><path d="M632.220851 739.492499h-40.13196a5.311583 5.311583 0 0 1-4.721407-2.360704l-20.06598-34.820377a5.311583 5.311583 0 0 1 0-5.311583l20.06598-34.820376a5.311583 5.311583 0 0 1 4.721407-2.95088h40.13196a5.311583 5.311583 0 0 1 4.721407 2.95088l20.06598 34.820376a5.311583 5.311583 0 0 1 0 5.311583l-20.06598 34.820377a5.311583 5.311583 0 0 1-4.721407 2.360704z m-37.18108-10.623166h34.230201l17.1151-29.508794-17.1151-29.508794h-34.230201l-17.115101 29.508794 17.115101 29.508794z" fill="#32B7FF" /><path d="M632.220851 741.853202h-40.13196a8.262462 8.262462 0 0 1-7.08211-4.131231l-20.06598-34.230201a8.262462 8.262462 0 0 1 0-8.262462l20.06598-34.820377a8.262462 8.262462 0 0 1 7.08211-4.131231h40.13196a8.262462 8.262462 0 0 1 7.08211 4.131231l20.06598 34.820377a8.262462 8.262462 0 0 1 0 8.262462l-20.06598 34.820377a8.262462 8.262462 0 0 1-7.08211 3.541055z m-40.13196-79.673743l-1.770527 1.180351-20.06598 34.820377a2.360704 2.360704 0 0 0 0 2.360704l20.06598 34.820376 1.770527 1.180352h40.13196l1.770528-1.180352 20.065979-34.820376a2.360704 2.360704 0 0 0 0-2.360704l-20.065979-34.820377-1.770528-1.180351z m38.951608 69.050577h-37.771256l-18.885628-32.459673 18.885628-32.459673h37.18108l18.885628 32.459673z m-34.230201-5.901759h30.689146l15.344573-26.557914-15.344573-26.557914h-30.689146l-15.344572 26.557914z" fill="#32B7FF" /><path d="M692.41879 773.722699h-40.131959a5.311583 5.311583 0 0 1-4.721407-2.360703l-20.06598-34.820377a5.311583 5.311583 0 0 1 0-5.311583l20.06598-34.820376a5.311583 5.311583 0 0 1 4.721407-2.360704h40.131959a5.311583 5.311583 0 0 1 4.721407 2.360704l20.06598 34.820376a5.417815 5.417815 0 0 1-9.442814 5.311583l-18.295452-31.869497h-34.230201l-17.1151 29.508794 17.1151 29.508793h37.18108a5.311583 5.311583 0 1 1 0 10.623166" fill="#32B7FF" /><path d="M692.41879 776.673579h-40.131959a8.262462 8.262462 0 0 1-7.082111-4.131231l-20.06598-34.820377a8.262462 8.262462 0 0 1 0-8.262462l20.06598-34.820377a8.262462 8.262462 0 0 1 7.082111-4.131231h40.131959a8.262462 8.262462 0 0 1 7.082111 4.131231l20.06598 34.820377a8.262462 8.262462 0 0 1-2.95088 11.213341 8.262462 8.262462 0 0 1-11.213341-2.950879l-17.705277-30.689146h-30.689145l-15.344573 26.557915 15.344573 26.557914h35.410552a8.262462 8.262462 0 1 1 0 16.524925z m-40.131959-79.673744l-1.770528 1.180352-20.06598 34.820377a2.360704 2.360704 0 0 0 0 2.360703l20.06598 34.820377 1.770528 1.180352h40.131959a2.360704 2.360704 0 1 0 0-4.721407H653.467183l-18.885629-32.459673 18.885629-32.459674h37.18108l19.475804 33.640025a2.360704 2.360704 0 0 0 3.541055 0.590176l1.180352-1.180351a2.360704 2.360704 0 0 0 0-1.770528l-20.06598-34.820377-1.770528-1.180352zM572.022911 773.722699h-40.131959a5.311583 5.311583 0 1 1 0-10.623165h37.18108l17.115101-29.508794-17.115101-29.508794h-34.230201l-18.295452 31.869497a5.417815 5.417815 0 0 1-9.442814-5.311583l20.06598-34.820376a5.311583 5.311583 0 0 1 4.721407-2.360704h40.131959a5.311583 5.311583 0 0 1 4.721407 2.360704l20.06598 34.820376a5.311583 5.311583 0 0 1 0 5.311583l-20.06598 35.410553a5.311583 5.311583 0 0 1-4.721407 2.360703" fill="#32B7FF" /><path d="M572.022911 776.673579h-40.131959a8.262462 8.262462 0 1 1 0-16.524925h35.410552l15.344573-26.557914-15.344573-26.557915h-30.689145l-17.705276 30.689146a8.262462 8.262462 0 0 1-14.164222-8.262462l20.06598-34.820377a8.262462 8.262462 0 0 1 7.082111-4.131231h40.131959a8.262462 8.262462 0 0 1 7.082111 4.131231l20.06598 34.820377a8.262462 8.262462 0 0 1 0 8.262462l-20.06598 34.820377a8.262462 8.262462 0 0 1-7.082111 4.131231z m-40.131959-10.623166a2.360704 2.360704 0 1 0 0 4.721407h40.131959l1.770528-1.180352 20.06598-34.820376a2.360704 2.360704 0 0 0 0-2.360704l-20.06598-34.820377-1.770528-1.180351h-40.131959l-1.770528 1.180351-20.06598 34.820377a2.360704 2.360704 0 0 0 0 1.770528l1.180352 1.180351a2.360704 2.360704 0 0 0 3.541055-0.590175l19.475804-33.640025H570.84256l18.885628 32.459673-18.885628 32.459673z" fill="#32B7FF" /><path d="M632.220851 808.543076h-2.950879a5.311583 5.311583 0 0 1-1.770528-7.08211l18.295452-31.869498-17.1151-29.508794H594.449595l-17.115101 29.508794 18.295453 31.869498a5.417815 5.417815 0 0 1-9.442814 5.311583l-20.06598-34.820377a5.311583 5.311583 0 0 1 0-5.311583l20.06598-34.820377a5.311583 5.311583 0 0 1 4.721407-2.360703h40.131959a5.311583 5.311583 0 0 1 4.721407 2.360703l20.06598 34.820377a5.311583 5.311583 0 0 1 0 5.311583l-20.06598 34.820377a5.311583 5.311583 0 0 1-4.721407 2.360703" fill="#32B7FF" /><path d="M632.220851 811.493956l-4.131231-1.180352a8.262462 8.262462 0 0 1-2.95088-11.213342l17.705277-30.689145-15.344573-26.557915h-30.689146l-15.344572 26.557915 17.705276 30.689145a8.262462 8.262462 0 0 1-2.95088 11.213342 8.262462 8.262462 0 0 1-11.213341-2.95088l-20.06598-34.820376a8.262462 8.262462 0 0 1 0-8.262463l20.06598-34.820376a8.262462 8.262462 0 0 1 7.08211-4.131232h40.13196a8.262462 8.262462 0 0 1 7.08211 4.131232l20.06598 34.820376a8.262462 8.262462 0 0 1 0 8.262463l-20.06598 34.820376a8.262462 8.262462 0 0 1-7.08211 4.131232zM592.088891 731.820212l-1.770527 1.180352-20.656156 34.230201a2.360704 2.360704 0 0 0 0 2.360703l20.06598 34.820377a2.360704 2.360704 0 0 0 3.541055 0.590176l1.180352-1.180352a2.360704 2.360704 0 0 0 0-1.770527l-19.475804-33.640025 18.885628-32.459674h37.18108l18.885628 32.459674-19.475804 33.640025a2.360704 2.360704 0 0 0 0 1.770527l1.180352 1.180352a2.360704 2.360704 0 0 0 2.950879-0.590176l20.06598-34.820377a2.360704 2.360704 0 0 0 0-2.360703l-20.06598-34.820377-1.770527-1.180352z" fill="#32B7FF" /><path d="M692.41879 704.672122h-40.131959a5.311583 5.311583 0 0 1-4.721407-2.360704l-20.06598-34.820376a5.311583 5.311583 0 0 1 0-5.311583l20.06598-34.820377a5.311583 5.311583 0 0 1 4.721407-2.360704h40.131959a5.311583 5.311583 0 1 1 0 10.623166h-37.18108l-17.1151 29.508794 17.1151 29.508794h34.230201l18.295452-31.869497a5.417815 5.417815 0 0 1 9.442814 5.311582l-20.06598 34.820377a5.311583 5.311583 0 0 1-4.721407 2.360704" fill="#32B7FF" /><path d="M692.41879 707.623001h-40.131959a8.262462 8.262462 0 0 1-7.082111-4.131231l-20.06598-34.820377a8.262462 8.262462 0 0 1 0-8.262462l20.06598-34.820377a8.262462 8.262462 0 0 1 7.082111-4.131231h40.131959a8.262462 8.262462 0 1 1 0 16.524925h-35.410552l-15.344573 26.557914 15.344573 26.557915h30.689145l17.705277-30.689146a8.262462 8.262462 0 0 1 11.213341-2.950879 8.262462 8.262462 0 0 1 2.95088 11.213341l-20.06598 34.820377a8.262462 8.262462 0 0 1-7.082111 4.131231z m-40.131959-79.673743l-1.770528 1.180352-20.06598 34.820376a2.360704 2.360704 0 0 0 0 2.360704l20.06598 34.820377 1.770528 1.180351h40.131959l1.770528-1.180351 20.06598-34.820377a2.360704 2.360704 0 0 0 0-1.770528l-1.180352-1.180352a2.360704 2.360704 0 0 0-3.541055 0.590176l-19.475804 33.640025h-37.18108l-18.885628-32.459673 18.885628-32.459673h38.951608a2.360704 2.360704 0 1 0 0-4.721407z" fill="#32B7FF" /><path d="M632.811027 670.441921h-40.13196a5.311583 5.311583 0 0 1-4.721407-2.360704l-20.06598-34.820376a5.311583 5.311583 0 0 1 0-5.311583l20.06598-34.820377a5.417815 5.417815 0 0 1 9.442814 5.311583l-18.295452 31.869497 17.1151 29.508794h34.230201l17.115101-29.508794-18.295452-31.869497a5.417815 5.417815 0 0 1 9.442814-5.311583l20.065979 34.820377a5.311583 5.311583 0 0 1 0 5.311583l-20.065979 34.820376a5.311583 5.311583 0 0 1-4.721407 2.360704" fill="#32B7FF" /><path d="M632.811027 673.3928h-40.13196a8.262462 8.262462 0 0 1-7.08211-4.131231l-20.656156-34.820377a8.262462 8.262462 0 0 1 0-8.262462l20.06598-34.820377a8.262462 8.262462 0 1 1 14.164221 8.262463l-17.705276 30.689145 15.344572 26.557915h30.689146l15.344573-26.557915-17.705277-30.689145a8.262462 8.262462 0 0 1 14.164221-8.262463l20.06598 34.820377a8.262462 8.262462 0 0 1 0 8.262462l-20.06598 34.820377a8.262462 8.262462 0 0 1-6.491934 4.131231z m-40.13196-79.673743h-0.590176l-1.180351 1.180352-20.06598 34.820376a2.360704 2.360704 0 0 0 0 2.360704l20.06598 34.820377 1.770527 1.180351h40.13196l1.770527-1.180351 20.06598-34.820377a2.360704 2.360704 0 0 0 0-2.360704l-20.06598-34.820376a2.360704 2.360704 0 0 0-2.950879-0.590176l-1.180352 1.180352a2.360704 2.360704 0 0 0 0 1.770527l19.475804 33.640025-18.885628 32.459673h-37.18108l-18.885628-32.459673 19.475804-33.640025a2.360704 2.360704 0 0 0 0-1.770527l-1.180352-1.180352z" fill="#32B7FF" /><path d="M572.022911 704.672122h-40.131959a5.311583 5.311583 0 0 1-4.721407-2.360704l-20.06598-34.820376a5.417815 5.417815 0 0 1 9.442814-5.311583l18.295452 31.869497h34.230201l17.115101-29.508794-17.115101-29.508794h-37.18108a5.311583 5.311583 0 1 1 0-10.623165h40.131959a5.311583 5.311583 0 0 1 4.721407 2.360703l20.06598 34.820377a5.311583 5.311583 0 0 1 0 5.311583l-20.06598 35.410552a5.311583 5.311583 0 0 1-4.721407 2.360704" fill="#32B7FF" /><path d="M572.022911 707.623001h-40.131959a8.262462 8.262462 0 0 1-7.082111-4.131231l-20.06598-34.820377a8.262462 8.262462 0 0 1 2.95088-11.213341 8.262462 8.262462 0 0 1 11.213342 2.950879l17.705276 30.689146h30.689145l15.344573-26.557915-15.344573-26.557914h-35.410552a8.262462 8.262462 0 1 1 0-16.524925h40.131959a8.262462 8.262462 0 0 1 7.082111 4.131231l20.06598 34.820377a8.262462 8.262462 0 0 1 0 8.262462l-20.06598 34.820377a8.262462 8.262462 0 0 1-7.082111 4.131231zM511.824972 662.179459h-1.180352l-1.180351 1.180351a2.360704 2.360704 0 0 0 0 1.770528l20.065979 34.820377 1.770528 1.180352h40.13196l2.360703-1.180352 20.06598-34.820377a2.360704 2.360704 0 0 0 0-2.360703l-20.06598-34.820377-1.770528-1.180352h-40.131959a2.360704 2.360704 0 1 0 0 4.721407H570.84256l18.885628 32.459673L570.84256 696.40966h-37.771256l-19.475804-33.640025z" fill="#32B7FF" /><path d="M626.319092 745.394257h-40.131959a5.311583 5.311583 0 0 1-4.721407-2.360703l-20.06598-34.820377a5.311583 5.311583 0 0 1 0-5.311583l20.06598-34.820377a5.311583 5.311583 0 0 1 4.721407-2.950879h40.131959a5.311583 5.311583 0 0 1 4.721407 2.950879l20.06598 34.820377a5.311583 5.311583 0 0 1 0 5.311583l-20.06598 34.820377a5.311583 5.311583 0 0 1-4.721407 2.360703z m-37.18108-10.623165h34.230201l17.1151-29.508794-17.1151-29.508794h-34.230201l-17.115101 29.508794 17.115101 29.508794z"  /><path d="M626.319092 747.754961h-40.131959a8.262462 8.262462 0 0 1-7.082111-4.131231l-20.06598-34.230201a8.262462 8.262462 0 0 1 0-8.262462l20.06598-34.820377a8.262462 8.262462 0 0 1 7.082111-4.131231h40.131959a8.262462 8.262462 0 0 1 7.082111 4.131231l20.06598 34.820377a8.262462 8.262462 0 0 1 0 8.262462l-20.06598 34.820377a8.262462 8.262462 0 0 1-7.082111 3.541055z m-40.131959-79.673744l-1.770528 1.180352-20.06598 34.820377a2.360704 2.360704 0 0 0 0 2.360703l20.06598 34.820377 1.770528 1.180352h40.131959l1.770528-1.180352 20.06598-34.820377a2.360704 2.360704 0 0 0 0-2.360703l-20.06598-34.820377-1.770528-1.180352z m38.951607 69.050578h-37.771256l-18.885628-32.459673 18.885628-32.459673h37.181081l18.885628 32.459673z m-34.2302-5.901759h30.689145l15.344573-26.557914-15.344573-26.557915h-30.689145l-15.344573 26.557915z"  /><path d="M686.517032 779.624458h-40.13196a5.311583 5.311583 0 0 1-4.721407-2.360703l-20.06598-34.820377a5.311583 5.311583 0 0 1 0-5.311583l20.06598-34.820377a5.311583 5.311583 0 0 1 4.721407-2.360703h40.13196a5.311583 5.311583 0 0 1 4.721407 2.360703l20.065979 34.820377a5.417815 5.417815 0 0 1-9.442814 5.311583l-18.295452-31.869497h-34.230201l-17.1151 29.508793 17.1151 29.508794h37.181081a5.311583 5.311583 0 1 1 0 10.623166"  /><path d="M686.517032 782.575338h-40.13196a8.262462 8.262462 0 0 1-7.082111-4.131232l-20.065979-34.820376a8.262462 8.262462 0 0 1 0-8.262463l20.065979-34.820376a8.262462 8.262462 0 0 1 7.082111-4.131231h40.13196a8.262462 8.262462 0 0 1 7.08211 4.131231l20.06598 34.820376a8.262462 8.262462 0 0 1-14.164221 8.262463l-17.705276-30.689146h-30.689146l-15.344573 26.557915 15.344573 26.557914h35.410553a8.262462 8.262462 0 1 1 0 16.524925z m-40.13196-79.673744l-1.770528 1.180352-20.065979 34.820377a2.360704 2.360704 0 0 0 0 2.360703l20.065979 34.820377 1.770528 1.180352h40.13196a2.360704 2.360704 0 1 0 0-4.721407H647.565424l-18.885628-32.459674 18.885628-32.459673h37.18108l19.475804 33.640025a2.360704 2.360704 0 0 0 3.541055 0.590176l1.180352-1.180352a2.360704 2.360704 0 0 0 0-1.770527l-20.06598-34.820377-1.770528-1.180352z"  /><path d="M566.121153 779.624458h-40.13196a5.311583 5.311583 0 1 1 0-10.623166h37.18108l17.115101-29.508793-17.115101-29.508794h-34.230201l-18.295452 31.869497a5.417815 5.417815 0 0 1-9.442814-5.311583l20.06598-34.820377a5.311583 5.311583 0 0 1 4.721407-2.360703h40.13196a5.311583 5.311583 0 0 1 4.721407 2.360703l20.06598 34.820377a5.311583 5.311583 0 0 1 0 5.311583l-20.06598 35.410553a5.311583 5.311583 0 0 1-4.721407 2.360703"  /><path d="M566.121153 782.575338h-40.13196a8.262462 8.262462 0 1 1 0-16.524925h35.410553l15.344572-26.557914-15.344572-26.557915h-30.689146l-17.705276 30.689146a8.262462 8.262462 0 0 1-14.164221-8.262463l20.06598-34.820376a8.262462 8.262462 0 0 1 7.08211-4.131231h40.13196a8.262462 8.262462 0 0 1 7.08211 4.131231l20.06598 34.820376a8.262462 8.262462 0 0 1 0 8.262463l-20.06598 34.820376a8.262462 8.262462 0 0 1-7.08211 4.131232z m-40.13196-10.623166a2.360704 2.360704 0 1 0 0 4.721407h40.13196l1.770527-1.180352 20.06598-34.820377a2.360704 2.360704 0 0 0 0-2.360703l-20.06598-34.820377-1.770527-1.180352h-40.13196l-1.770528 1.180352-20.065979 34.820377a2.360704 2.360704 0 0 0 0 1.770527l1.180351 1.180352a2.360704 2.360704 0 0 0 3.541056-0.590176l19.475804-33.640025H564.940801l18.885628 32.459674-18.885628 32.459673z"  /><path d="M626.319092 814.444835h-2.950879a5.311583 5.311583 0 0 1-1.770528-7.082111l18.295452-31.869497-17.1151-29.508794h-33.640025l-17.115101 29.508794 18.295453 31.869497a5.417815 5.417815 0 0 1-9.442814 5.311583l-20.06598-34.820376a5.311583 5.311583 0 0 1 0-5.311583l20.06598-34.820377a5.311583 5.311583 0 0 1 4.721407-2.360704h40.131959a5.311583 5.311583 0 0 1 4.721407 2.360704l20.06598 34.820377a5.311583 5.311583 0 0 1 0 5.311583l-20.06598 34.820376a5.311583 5.311583 0 0 1-4.721407 2.360704"  /><path d="M626.319092 817.395714l-4.131231-1.180351a8.262462 8.262462 0 0 1-2.950879-11.213342l17.705276-30.689146-15.344573-26.557914h-30.689145l-15.344573 26.557914 17.705276 30.689146a8.262462 8.262462 0 0 1-2.950879 11.213342 8.262462 8.262462 0 0 1-11.213342-2.95088l-20.06598-34.820377a8.262462 8.262462 0 0 1 0-8.262462l20.06598-34.820377a8.262462 8.262462 0 0 1 7.082111-4.131231h40.131959a8.262462 8.262462 0 0 1 7.082111 4.131231l20.06598 34.820377a8.262462 8.262462 0 0 1 0 8.262462l-20.06598 34.820377a8.262462 8.262462 0 0 1-7.082111 4.131231zM586.187133 737.721971l-1.770528 1.180352-20.656156 34.230201a2.360704 2.360704 0 0 0 0 2.360703l20.06598 34.820377a2.360704 2.360704 0 0 0 3.541055 0.590176l1.180352-1.180352a2.360704 2.360704 0 0 0 0-1.770528l-19.475804-33.640025 18.885628-32.459673h37.18108l18.885628 32.459673-19.475803 33.640025a2.360704 2.360704 0 0 0 0 1.770528l1.180351 1.180352a2.360704 2.360704 0 0 0 2.95088-0.590176l20.065979-34.820377a2.360704 2.360704 0 0 0 0-2.360703l-20.065979-34.820377-1.770528-1.180352z"  /><path d="M686.517032 710.573881h-40.13196a5.311583 5.311583 0 0 1-4.721407-2.360704l-20.06598-34.820377a5.311583 5.311583 0 0 1 0-5.311583l20.06598-34.820376a5.311583 5.311583 0 0 1 4.721407-2.360704h40.13196a5.311583 5.311583 0 1 1 0 10.623166h-37.181081l-17.1151 29.508794 17.1151 29.508794h34.230201l18.295452-31.869498a5.417815 5.417815 0 0 1 9.442814 5.311583l-20.065979 34.820377a5.311583 5.311583 0 0 1-4.721407 2.360703"  /><path d="M686.517032 713.52476h-40.13196a8.262462 8.262462 0 0 1-7.082111-4.131231l-20.065979-34.820377a8.262462 8.262462 0 0 1 0-8.262462l20.065979-34.820377a8.262462 8.262462 0 0 1 7.082111-4.131231h40.13196a8.262462 8.262462 0 1 1 0 16.524924h-35.410553l-15.344573 26.557915 15.344573 26.557914h30.689146l17.705276-30.689145a8.262462 8.262462 0 0 1 11.213342-2.95088 8.262462 8.262462 0 0 1 2.950879 11.213342l-20.06598 34.820377a8.262462 8.262462 0 0 1-7.08211 4.131231z m-40.13196-79.673743l-1.770528 1.180351-20.065979 34.820377a2.360704 2.360704 0 0 0 0 2.360704l20.065979 34.820376 1.770528 1.180352h40.13196l1.770527-1.180352 20.06598-34.820376a2.360704 2.360704 0 0 0 0-1.770528l-1.180352-1.180352a2.360704 2.360704 0 0 0-3.541055 0.590176l-19.475804 33.640025h-37.18108l-18.885628-32.459673 18.885628-32.459673h38.951608a2.360704 2.360704 0 1 0 0-4.721407z"  /><path d="M626.909268 676.34368h-40.13196a5.311583 5.311583 0 0 1-4.721407-2.360704l-20.065979-34.820377a5.311583 5.311583 0 0 1 0-5.311582l20.065979-34.820377a5.417815 5.417815 0 0 1 9.442814 5.311583l-18.295452 31.869497 17.115101 29.508794h34.230201l17.1151-29.508794-18.295452-31.869497a5.417815 5.417815 0 0 1 9.442814-5.311583l20.06598 34.820377a5.311583 5.311583 0 0 1 0 5.311582l-20.06598 34.820377a5.311583 5.311583 0 0 1-4.721407 2.360704"  /><path d="M626.909268 679.294559h-40.13196a8.262462 8.262462 0 0 1-7.08211-4.131231l-20.656156-34.820377a8.262462 8.262462 0 0 1 0-8.262462l20.06598-34.820377a8.262462 8.262462 0 1 1 14.164221 8.262462l-17.705276 30.689146 15.344573 26.557915h30.689145l15.344573-26.557915-17.705276-30.689146a8.262462 8.262462 0 0 1 14.164221-8.262462l20.06598 34.820377a8.262462 8.262462 0 0 1 0 8.262462l-20.06598 34.820377a8.262462 8.262462 0 0 1-6.491935 4.131231z m-40.13196-79.673743h-0.590175l-1.180352 1.180351-20.06598 34.820377a2.360704 2.360704 0 0 0 0 2.360704l20.06598 34.820376 1.770527 1.180352h40.13196l1.770528-1.180352 20.065979-34.820376a2.360704 2.360704 0 0 0 0-2.360704l-20.065979-34.820377a2.360704 2.360704 0 0 0-2.95088-0.590175l-1.180351 1.180351a2.360704 2.360704 0 0 0 0 1.770528l19.475803 33.640025-18.885628 32.459673h-37.18108l-18.885628-32.459673 19.475804-33.640025a2.360704 2.360704 0 0 0 0-1.770528l-1.180352-1.180351z"  /><path d="M566.121153 710.573881h-40.13196a5.311583 5.311583 0 0 1-4.721407-2.360704l-20.06598-34.820377a5.417815 5.417815 0 0 1 9.442814-5.311583l18.295452 31.869498h34.230201l17.115101-29.508794-17.115101-29.508794h-37.18108a5.311583 5.311583 0 1 1 0-10.623166h40.13196a5.311583 5.311583 0 0 1 4.721407 2.360704l20.06598 34.820377a5.311583 5.311583 0 0 1 0 5.311582l-20.06598 35.410553a5.311583 5.311583 0 0 1-4.721407 2.360704"  /><path d="M566.121153 713.52476h-40.13196a8.262462 8.262462 0 0 1-7.08211-4.131231l-20.06598-34.820377a8.262462 8.262462 0 0 1 2.950879-11.213342 8.262462 8.262462 0 0 1 11.213342 2.95088l17.705276 30.689145h30.689146l15.344572-26.557914-15.344572-26.557915h-35.410553a8.262462 8.262462 0 1 1 0-16.524924h40.13196a8.262462 8.262462 0 0 1 7.08211 4.131231l20.06598 34.820377a8.262462 8.262462 0 0 1 0 8.262462l-20.06598 34.820377a8.262462 8.262462 0 0 1-7.08211 4.131231zM505.923213 668.081217h-1.180352l-1.180351 1.180352a2.360704 2.360704 0 0 0 0 1.770528l20.06598 34.820377 1.770527 1.180351h40.13196l2.360703-1.180351 20.06598-34.820377a2.360704 2.360704 0 0 0 0-2.360704l-20.06598-34.820376-1.770527-1.180352h-40.13196a2.360704 2.360704 0 1 0 0 4.721407H564.940801l18.885628 32.459673L564.940801 702.311418h-37.771256l-19.475804-33.640025z"  /><path d="M446.31545 863.429433h-30.09897a4.131231 4.131231 0 0 1-3.541055-1.770528l-15.344573-26.557914a4.131231 4.131231 0 0 1 0-4.131232l15.344573-26.557914a4.131231 4.131231 0 0 1 3.541055-1.770528H446.905626a4.131231 4.131231 0 0 1 3.541055 1.770528l15.344573 26.557914a4.131231 4.131231 0 0 1 0 4.131232l-15.344573 26.557914a4.131231 4.131231 0 0 1-3.541055 1.770528z m-28.328442-8.262463h25.967738l12.983869-22.426683-12.983869-22.426683h-25.377563l-12.983869 22.426683 12.983869 22.426683z" fill="#FAD700" /><path d="M446.31545 866.380312h-30.09897a7.082111 7.082111 0 0 1-5.901759-3.541055l-15.344573-26.557915a7.082111 7.082111 0 0 1 0-7.08211l15.344573-26.557915a7.082111 7.082111 0 0 1 5.901759-3.541055H446.905626a7.082111 7.082111 0 0 1 5.901758 3.541055l15.344573 26.557915a7.082111 7.082111 0 0 1 0 7.08211l-15.344573 26.557915a7.082111 7.082111 0 0 1-6.491934 3.541055z m-30.689146-60.788115h-1.180352l-14.164221 26.557914a1.180352 1.180352 0 0 0 0 1.180352l15.344573 26.557914h32.459673l15.344573-26.557914a1.180352 1.180352 0 0 0 0-1.180352l-15.344573-26.557914h-31.869497z m29.508794 53.115829h-28.328442l-14.754397-25.377563 14.754397-25.377563h28.918618l14.754397 25.377563z m-25.967739-5.901759h22.426684l11.213341-19.475804-11.213341-19.475804h-21.246332l-11.213342 19.475804z" fill="#FAD700" /><path d="M492.349168 889.987347h-30.689146a4.131231 4.131231 0 0 1-3.541055-1.770527l-15.344573-26.557915a4.131231 4.131231 0 0 1 0-4.131231l15.344573-26.557915a4.131231 4.131231 0 0 1 3.541055-1.770527h30.689146a4.131231 4.131231 0 0 1 3.541055 1.770527l15.344573 26.557915a4.131231 4.131231 0 0 1-1.770527 5.311583 4.131231 4.131231 0 0 1-5.311583-1.770528l-14.164221-24.197211h-25.967739l-12.983869 22.426684 12.983869 22.426683h28.328442a4.131231 4.131231 0 0 1 0 8.262462" fill="#FAD700" /><path d="M492.349168 892.938227h-30.689146a7.082111 7.082111 0 0 1-5.901758-3.541056l-15.344573-26.557914a7.082111 7.082111 0 0 1 0-7.082111l15.344573-26.557914a7.082111 7.082111 0 0 1 5.901758-3.541055h30.689146a7.082111 7.082111 0 0 1 5.901759 3.541055l15.344573 26.557914a7.082111 7.082111 0 0 1-2.360704 9.442814 7.082111 7.082111 0 0 1-9.442814-2.360703l-13.574045-23.016859h-22.426683l-11.213342 19.475804 11.213342 19.475804h26.557914a7.082111 7.082111 0 0 1 0 14.164221zM461.660022 832.150111h-1.180351l-15.344573 26.557915a1.180352 1.180352 0 0 0 0 1.180351l15.344573 26.557915h31.279321a1.180352 1.180352 0 0 0 0-2.360704h-29.508794l-14.754397-25.377562 14.754397-25.377563h28.918618l14.754397 25.967739h1.180352a1.180352 1.180352 0 0 0 0.590176-1.770528l-14.164221-25.377563h-31.869498z" fill="#FAD700" /><path d="M401.462083 889.987347h-30.689146a4.131231 4.131231 0 0 1 0-8.262462h28.328443l12.983869-22.426683-12.983869-22.426684h-25.967739l-14.164221 24.197211a4.131231 4.131231 0 0 1-5.311583 1.770528 4.131231 4.131231 0 0 1-1.770528-5.311583l15.344573-26.557915a4.131231 4.131231 0 0 1 3.541055-1.770527h30.689146a4.131231 4.131231 0 0 1 3.541055 1.770527l15.344573 26.557915a4.131231 4.131231 0 0 1 0 4.131231l-15.344573 26.557915a4.131231 4.131231 0 0 1-3.541055 1.770527" fill="#FAD700" /><path d="M401.462083 892.938227h-30.689146a7.082111 7.082111 0 0 1 0-14.164221h26.557915l11.213342-19.475804-11.213342-19.475804h-22.426683l-12.98387 23.016859a7.082111 7.082111 0 0 1-9.442814 2.360703 7.082111 7.082111 0 0 1-2.360703-9.442814l15.344573-26.557914a7.082111 7.082111 0 0 1 5.901758-3.541055h30.689146a7.082111 7.082111 0 0 1 5.901759 3.541055L423.29859 855.757146a7.082111 7.082111 0 0 1 0 7.082111l-15.344572 26.557914a7.082111 7.082111 0 0 1-6.491935 3.541056z m-30.689146-8.262463a1.180352 1.180352 0 0 0 0 2.360704h31.279322l15.344573-26.557915a1.180352 1.180352 0 0 0 0-1.180351l-15.344573-27.148091h-32.459673l-15.344573 26.557915a1.180352 1.180352 0 0 0 0.590176 1.770527h1.180351l14.754397-25.967738H399.691555l14.754397 25.377562L399.691555 885.26594z" fill="#FAD700" /><path d="M446.31545 915.955086h-1.770528a4.131231 4.131231 0 0 1-1.770528-5.311583l14.164221-24.197211-12.983869-22.426683h-25.377563l-12.983869 21.836507 14.164221 24.197211a4.131231 4.131231 0 0 1-1.770527 5.311583 4.131231 4.131231 0 0 1-5.311583-1.770528l-15.344573-26.557914a4.131231 4.131231 0 0 1 0-4.131231l15.344573-26.557915a4.131231 4.131231 0 0 1 3.541055-1.770527H446.905626a4.131231 4.131231 0 0 1 3.541055 1.770527l15.344573 26.557915a4.131231 4.131231 0 0 1 0 4.131231l-15.344573 26.557914a4.131231 4.131231 0 0 1-3.541055 1.770528" fill="#FAD700" /><path d="M416.21648 918.905965h-1.770528a7.082111 7.082111 0 0 1-4.131231-3.541055l-15.344573-26.557915a7.082111 7.082111 0 0 1 0-7.08211l15.344573-26.557915a7.082111 7.082111 0 0 1 5.901759-3.541055H446.905626a7.082111 7.082111 0 0 1 5.901758 3.541055l15.344573 26.557915a7.082111 7.082111 0 0 1 0 7.08211l-15.344573 26.557915a7.082111 7.082111 0 0 1-9.442814 2.360703 7.082111 7.082111 0 0 1-2.360703-9.442814l12.983869-23.016859-11.213342-19.475804h-22.426683l-11.213342 19.475804 12.98387 23.016859a7.082111 7.082111 0 0 1-2.360704 9.442814z m0-60.788115h-1.180352l-14.754397 27.14809a1.180352 1.180352 0 0 0 0 1.180352l15.344573 26.557914h1.180352a1.180352 1.180352 0 0 0 0.590176-1.770527l-14.754397-25.967739 14.754397-25.377563h28.918618l14.754397 25.377563-14.754397 25.967739a1.180352 1.180352 0 0 0 0.590176 1.770527h1.180351l15.344573-26.557914a1.180352 1.180352 0 0 0 0-1.180352l-15.344573-26.557914h-31.869497z" fill="#FAD700" /><path d="M492.349168 836.871518h-30.689146a4.131231 4.131231 0 0 1-3.541055-1.770527l-14.754397-26.557915a4.131231 4.131231 0 0 1 0-4.131231l15.344573-26.557914a4.131231 4.131231 0 0 1 3.541055-1.770528h30.689146a4.131231 4.131231 0 0 1 0 8.262462h-28.918618l-12.983869 22.426684 12.983869 22.426683h25.967739l14.164221-24.197211a4.131231 4.131231 0 0 1 5.311583-1.770528 4.131231 4.131231 0 0 1 1.770527 5.311583l-15.344573 26.557915a4.131231 4.131231 0 0 1-3.541055 1.770527" fill="#FAD700" /><path d="M492.349168 839.822398h-30.689146a7.082111 7.082111 0 0 1-5.901758-3.541056l-15.344573-26.557914a7.082111 7.082111 0 0 1 0-7.082111l15.344573-26.557914a7.082111 7.082111 0 0 1 5.901758-3.541055h30.689146a7.082111 7.082111 0 0 1 0 14.164221h-26.557914l-11.213342 19.475804 11.213342 19.475804H488.217937l12.983869-23.01686a7.082111 7.082111 0 0 1 9.442814-2.360703 7.082111 7.082111 0 0 1 2.360704 9.442814l-15.344573 26.557914a7.082111 7.082111 0 0 1-5.311583 3.541056zM461.660022 779.034282h-1.180351l-15.344573 26.557915a1.180352 1.180352 0 0 0 0 1.180352l15.344573 26.557914h32.459673l15.344573-26.557914a1.180352 1.180352 0 0 0-0.590176-1.770528h-1.180352l-14.754397 25.967738h-28.918618l-14.754397-25.377562 14.754397-25.377563h29.508794a1.180352 1.180352 0 0 0 0-2.360703z" fill="#FAD700" /><path d="M446.905626 810.90378h-30.689146a4.131231 4.131231 0 0 1-3.541055-1.770528l-15.344573-26.557914a4.131231 4.131231 0 0 1 0-4.131232l15.344573-26.557914a4.131231 4.131231 0 1 1 7.08211 4.131231l-14.164221 24.197211 12.983869 22.426683h25.967739l12.983869-22.426683-14.164221-24.787387a4.131231 4.131231 0 0 1 1.770528-5.311583 4.131231 4.131231 0 0 1 5.311583 1.770528l15.344573 26.557914a4.131231 4.131231 0 0 1 0 4.131232l-15.344573 25.967738a4.131231 4.131231 0 0 1-3.541055 1.770528" fill="#FAD700" /><path d="M446.905626 813.854659h-30.689146a7.082111 7.082111 0 0 1-5.901759-3.541055l-15.344573-26.557915a7.082111 7.082111 0 0 1 0-7.08211l15.344573-26.557915a7.082111 7.082111 0 0 1 9.442814-2.360703 7.082111 7.082111 0 0 1 2.360704 9.442814l-12.98387 23.016859 11.213342 19.475804h22.426683l11.213342-19.475804-12.983869-23.016859a7.082111 7.082111 0 0 1 2.360703-9.442814 7.082111 7.082111 0 0 1 9.442814 2.360703l15.344573 26.557915a7.082111 7.082111 0 0 1 0 7.08211l-15.344573 26.557915a7.082111 7.082111 0 0 1-5.901758 3.541055z m-30.689146-60.788115h-1.180352l-15.344573 26.557914a1.180352 1.180352 0 0 0 0 1.180352l15.344573 26.557914h32.459673l15.344573-26.557914a1.180352 1.180352 0 0 0 0-1.180352l-15.344573-26.557914h-1.180351a1.180352 1.180352 0 0 0-0.590176 1.770527l14.754397 25.967739-14.754397 25.377563h-28.918618l-14.754397-25.377563 14.754397-25.967739a1.180352 1.180352 0 0 0-0.590176-1.770527z" fill="#FAD700" /><path d="M400.871907 836.871518h-30.09897a4.131231 4.131231 0 0 1-3.541055-1.770527l-15.344573-26.557915a4.131231 4.131231 0 0 1 1.180352-5.311583 4.131231 4.131231 0 0 1 5.311583 1.770528l14.164221 24.197211h25.967739l12.983869-22.426683-12.983869-22.426684h-27.738267a4.131231 4.131231 0 0 1 0-8.262462h30.689146a4.131231 4.131231 0 0 1 3.541055 1.770528l15.344573 26.557914a4.131231 4.131231 0 0 1 0 4.131231l-15.344573 26.557915a4.131231 4.131231 0 0 1-3.541055 1.770527" fill="#FAD700" /><path d="M400.871907 839.822398h-30.09897a7.082111 7.082111 0 0 1-5.901758-3.541056l-15.344573-26.557914a7.082111 7.082111 0 0 1 7.672286-10.03299 7.082111 7.082111 0 0 1 4.131231 3.541055l12.98387 23.016859h22.426683l11.213342-19.475803-11.213342-19.475804h-25.967739a7.082111 7.082111 0 0 1 0-14.164221h30.689146a7.082111 7.082111 0 0 1 5.901759 3.541055l15.344573 26.557914a7.082111 7.082111 0 0 1 0 7.082111l-15.344573 26.557914a7.082111 7.082111 0 0 1-6.491935 2.95088z m-45.443542-34.820377h-0.590176a1.180352 1.180352 0 0 0-0.590176 1.770528l15.344573 26.557914h32.459673l15.344573-26.557914a1.180352 1.180352 0 0 0 0-1.180352l-15.344573-26.557915h-31.279322a1.180352 1.180352 0 0 0 0 2.360704h29.508794l14.754397 25.377563-14.754397 25.377562h-28.918618l-14.754397-25.967738h-1.180351z" fill="#FAD700" /><path d="M442.184219 867.560664H411.495073a4.131231 4.131231 0 0 1-3.541055-1.770528l-15.344573-26.557914a4.131231 4.131231 0 0 1 0-4.131231l15.344573-26.557915a4.131231 4.131231 0 0 1 3.541055-1.770527h30.689146a4.131231 4.131231 0 0 1 3.541055 1.770527l15.344573 26.557915a4.131231 4.131231 0 0 1 0 4.131231l-15.344573 26.557914a4.131231 4.131231 0 0 1-3.541055 1.770528z m-28.328443-8.262462h25.967739l12.983869-22.426684-12.983869-22.426683h-25.967739l-12.983869 22.426683 12.983869 22.426684z"  /><path d="M442.184219 870.511543H411.495073a7.082111 7.082111 0 0 1-5.901759-3.541055l-15.344573-26.557914a7.082111 7.082111 0 0 1 0-7.082111l15.344573-26.557914a7.082111 7.082111 0 0 1 5.901759-3.541056h30.689146a7.082111 7.082111 0 0 1 5.901758 3.541056l15.344573 26.557914a7.082111 7.082111 0 0 1 0 7.082111l-15.344573 26.557914a7.082111 7.082111 0 0 1-5.901758 3.541055zM411.495073 809.723428h-1.180352l-15.344573 26.557914a1.180352 1.180352 0 0 0 0 1.180352l15.344573 26.557915h32.459673l15.344573-26.557915a1.180352 1.180352 0 0 0 0-1.180352l-15.344573-26.557914H411.495073z m29.508794 53.115829h-28.918618l-14.754397-25.377563 14.754397-25.377563H441.003867l14.754397 25.377563z m-25.967739-5.901759h22.426684l11.213341-19.475804-11.213341-19.475804h-21.836508l-11.213342 19.475804z"  /><path d="M487.627761 894.118578h-30.09897a4.131231 4.131231 0 0 1-3.541055-1.770527l-15.344573-26.557915a4.131231 4.131231 0 0 1 0-4.131231l15.344573-26.557914a4.131231 4.131231 0 0 1 3.541055-1.770528H488.217937a4.131231 4.131231 0 0 1 3.541055 1.770528l15.344573 26.557914a4.131231 4.131231 0 0 1-1.770528 5.311583 4.131231 4.131231 0 0 1-5.311583-1.770528l-14.164221-24.197211h-25.967738l-12.983869 22.426684 12.983869 22.426683H488.217937a4.131231 4.131231 0 0 1 0 8.262462"  /><path d="M487.627761 897.069458h-30.09897a7.082111 7.082111 0 0 1-5.901758-3.541056l-15.344573-26.557914a7.082111 7.082111 0 0 1 0-7.082111l15.344573-26.557914a7.082111 7.082111 0 0 1 5.901758-3.541055H488.217937a7.082111 7.082111 0 0 1 5.901759 3.541055l15.344573 26.557914a7.082111 7.082111 0 0 1-2.360704 9.442814 7.082111 7.082111 0 0 1-9.442814-2.360703l-12.983869-23.016859h-23.01686l-11.213341 19.475804 11.213341 19.475804H488.217937a7.082111 7.082111 0 0 1 0 14.164221z m-30.689146-60.788116h-1.180351l-15.344573 26.557915a1.180352 1.180352 0 0 0 0 1.180352l15.344573 26.557914h31.279321a1.180352 1.180352 0 0 0 0-2.360703h-29.508794l-14.754397-25.377563 14.754397-25.377563h28.918618l14.754397 25.967739h1.180352a1.180352 1.180352 0 0 0 0.590176-1.770528l-15.344573-26.557914h-30.09897z"  /><path d="M396.740676 894.118578h-30.689146a4.131231 4.131231 0 0 1 0-8.262462h28.328442l12.98387-22.426683-12.98387-22.426684h-25.967738l-14.164221 24.197211a4.131231 4.131231 0 0 1-5.311583 1.770528 4.131231 4.131231 0 0 1-1.770528-5.311583l15.344573-26.557914a4.131231 4.131231 0 0 1 3.541055-1.770528h30.689146a4.131231 4.131231 0 0 1 3.541055 1.770528l15.344573 26.557914a4.131231 4.131231 0 0 1 0 4.131231l-15.344573 26.557915a4.131231 4.131231 0 0 1-3.541055 1.770527"  /><path d="M396.740676 897.069458h-30.689146a7.082111 7.082111 0 0 1 0-14.164221h26.557915l11.213342-19.475804-11.213342-19.475804H370.182762l-12.98387 23.016859a7.082111 7.082111 0 0 1-9.442814 2.360703 7.082111 7.082111 0 0 1-2.360703-9.442814l15.344573-26.557914a7.082111 7.082111 0 0 1 5.901758-3.541055h30.09897a7.082111 7.082111 0 0 1 5.901759 3.541055l15.344573 26.557914a7.082111 7.082111 0 0 1 0 7.082111l-15.344573 26.557914a7.082111 7.082111 0 0 1-5.901759 3.541056z m-30.09897-8.262463a1.180352 1.180352 0 0 0 0 2.360704h31.279322l15.344573-26.557915a1.180352 1.180352 0 0 0 0-1.180351l-15.344573-26.557915h-32.459673l-15.344573 26.557915a1.180352 1.180352 0 0 0 0.590176 1.770527h1.180351l14.754397-25.967738h28.918618l14.754397 25.377562-14.754397 25.377563z"  /><path d="M442.184219 920.676493h-1.770528a4.131231 4.131231 0 0 1-1.770528-5.311583L452.807384 891.167699l-12.983869-23.607035h-25.967739l-12.983869 22.426683 14.164221 24.197211a4.131231 4.131231 0 0 1-1.770527 5.311583 4.131231 4.131231 0 0 1-5.311583-1.770528l-15.344573-26.557914a4.131231 4.131231 0 0 1 0-4.131231l15.344573-26.557915a4.131231 4.131231 0 0 1 3.541055-1.770527h30.689146a4.131231 4.131231 0 0 1 3.541055 1.770527l15.344573 26.557915a4.131231 4.131231 0 0 1 0 4.131231l-15.344573 26.557914a4.131231 4.131231 0 0 1-3.541055 1.770528"  /><path d="M411.495073 923.627372h-1.770528a7.082111 7.082111 0 0 1-4.131231-3.541055l-15.344573-26.557915a7.082111 7.082111 0 0 1 0-7.08211l15.344573-26.557915a7.082111 7.082111 0 0 1 5.901759-3.541055h30.689146a7.082111 7.082111 0 0 1 5.901758 3.541055l15.344573 26.557915a7.082111 7.082111 0 0 1 0 7.08211l-15.344573 26.557915a7.082111 7.082111 0 0 1-9.442814 2.360703 7.082111 7.082111 0 0 1-2.360703-9.442814l12.983869-23.016859-11.213342-19.475804h-22.426683l-11.213342 19.475804 12.98387 23.016859a7.082111 7.082111 0 0 1-2.360704 9.442814z m0-60.788115h-1.180352l-15.344573 26.557914a1.180352 1.180352 0 0 0 0 1.180352l15.344573 26.557915h1.180352a1.180352 1.180352 0 0 0 0.590176-1.770528l-14.754397-25.967739 14.754397-25.377562H441.003867l14.754397 25.377562-14.754397 26.557915a1.180352 1.180352 0 0 0 0.590176 1.770527h1.180351l15.344573-26.557914a1.180352 1.180352 0 0 0 0-1.180352l-15.344573-26.557914H411.495073z"  /><path d="M487.627761 841.592925h-30.09897a4.131231 4.131231 0 0 1-3.541055-1.770527l-15.344573-26.557915a4.131231 4.131231 0 0 1 0-4.131231l15.344573-26.557914a4.131231 4.131231 0 0 1 3.541055-1.770528H488.217937a4.131231 4.131231 0 0 1 0 8.262462h-28.328442l-12.983869 21.836508 12.983869 22.426683h25.967738l14.164221-24.197211a4.131231 4.131231 0 0 1 5.311583-1.770528 4.131231 4.131231 0 0 1 1.770528 5.311583l-15.344573 26.557915a4.131231 4.131231 0 0 1-3.541055 1.770527"  /><path d="M487.627761 844.543805h-30.09897a7.082111 7.082111 0 0 1-5.901758-3.541056l-15.344573-26.557914a7.082111 7.082111 0 0 1 0-7.082111l15.344573-26.557914a7.082111 7.082111 0 0 1 5.901758-3.541055H488.217937a7.082111 7.082111 0 0 1 0 14.164221h-26.557915l-11.213341 19.475804 11.213341 19.475804h22.426684l12.983869-23.01686a7.082111 7.082111 0 0 1 9.442814-2.360703 7.082111 7.082111 0 0 1 2.360704 9.442814l-14.754397 26.557914a7.082111 7.082111 0 0 1-6.491935 3.541056z m-30.689146-60.788116h-1.180351l-15.344573 26.557915a1.180352 1.180352 0 0 0 0 1.180352l15.344573 26.557914H488.217937l15.344573-26.557914a1.180352 1.180352 0 0 0-0.590176-1.770528h-1.180352l-14.754397 25.967738h-28.918618l-14.754397-25.377562 14.754397-25.377563h29.508794a1.180352 1.180352 0 0 0 0-2.360703z"  /><path d="M442.184219 815.035011h-30.09897a4.131231 4.131231 0 0 1-3.541055-1.770528l-15.344573-26.557914a4.131231 4.131231 0 0 1 0-4.131231l15.344573-26.557915a4.131231 4.131231 0 1 1 7.08211 4.131231l-14.164221 24.197211 12.983869 22.426684h25.967739l12.983869-22.426684-14.164221-24.197211a4.131231 4.131231 0 0 1 1.770528-5.311583 4.131231 4.131231 0 0 1 5.311583 1.770528l15.344572 26.557914a4.131231 4.131231 0 0 1 0 4.131232l-15.344572 26.557914a4.131231 4.131231 0 0 1-3.541056 1.770528"  /><path d="M442.184219 817.98589h-30.09897a7.082111 7.082111 0 0 1-5.901759-3.541055l-15.344573-26.557915a7.082111 7.082111 0 0 1 0-7.08211l15.344573-26.557915a7.082111 7.082111 0 0 1 4.131231-3.541055 7.082111 7.082111 0 0 1 5.311583 0.590176 7.082111 7.082111 0 0 1 2.360704 9.442814l-12.98387 23.016859 11.213342 19.475804h22.426683l11.213342-19.475804-12.983869-23.016859a7.082111 7.082111 0 0 1 2.360703-9.442814 7.082111 7.082111 0 0 1 5.311583-0.590176 7.082111 7.082111 0 0 1 4.131231 3.541055l15.344573 26.557915a7.082111 7.082111 0 0 1 0 7.08211l-15.344573 26.557915a7.082111 7.082111 0 0 1-6.491934 3.541055zM411.495073 757.197775h-1.180352l-15.344573 26.557914a1.180352 1.180352 0 0 0 0 1.180352l15.344573 26.557915h32.459673L458.709143 784.936041a1.180352 1.180352 0 0 0 0-1.180352l-15.344573-26.557914h-1.180351a1.180352 1.180352 0 0 0-0.590176 1.770527l14.754397 25.967739-14.754397 25.377563h-28.918618l-14.754397-25.377563 14.754397-25.967739a1.180352 1.180352 0 0 0-0.590176-1.770527z"  /><path d="M396.740676 841.592925h-30.689146a4.131231 4.131231 0 0 1-3.541055-1.770527l-15.344573-26.557915a4.131231 4.131231 0 0 1 1.180352-5.311583 4.131231 4.131231 0 0 1 5.311583 1.770528l14.164221 24.197211H393.789797l12.983869-22.426683-12.983869-22.426684h-27.738267a4.131231 4.131231 0 0 1 0-8.262462h30.689146a4.131231 4.131231 0 0 1 3.541055 1.770528l15.344573 26.557914a4.131231 4.131231 0 0 1 0 4.131231l-15.344573 26.557915a4.131231 4.131231 0 0 1-3.541055 1.770527"  /><path d="M396.740676 844.543805h-30.689146a7.082111 7.082111 0 0 1-5.901758-3.541056l-15.344573-26.557914a7.082111 7.082111 0 0 1 2.360703-9.442814 7.082111 7.082111 0 0 1 9.442814 2.360703l12.98387 23.01686h22.426683l11.213342-19.475804-11.213342-19.475804h-25.967739a7.082111 7.082111 0 0 1 0-14.164221h30.689146a7.082111 7.082111 0 0 1 5.901759 3.541055l15.344573 26.557914a7.082111 7.082111 0 0 1 0 7.082111l-15.344573 26.557914a7.082111 7.082111 0 0 1-5.901759 3.541056z m-45.443543-34.820377h-0.590175a1.180352 1.180352 0 0 0-0.590176 1.770528l15.344573 26.557914h32.459673l15.344573-26.557914a1.180352 1.180352 0 0 0 0-1.180352l-15.344573-26.557915h-31.869498a1.180352 1.180352 0 0 0 0 2.360704h29.508794l14.754397 25.377563-14.754397 25.377562h-28.918618l-14.754397-25.967738h-1.180351z"  /><path d="M642.253841 973.792322h-24.787387a3.541055 3.541055 0 0 1-2.950879-1.770528l-12.393694-20.656156a2.950879 2.950879 0 0 1 0-2.950879l12.393694-20.656156a3.541055 3.541055 0 0 1 2.950879-1.770527h24.787387a3.541055 3.541055 0 0 1 2.950879 1.770527l12.393694 20.656156a2.950879 2.950879 0 0 1 0 2.950879l-12.393694 20.656156a3.541055 3.541055 0 0 1-2.950879 1.770528z m-22.426683-6.491935h20.656155l10.623166-17.705276-10.623166-17.705277h-20.656155l-10.623166 17.705277 10.623166 17.705276z" fill="#32B7FF" /><path d="M642.253841 976.743201h-24.787387a6.491935 6.491935 0 0 1-5.311583-2.950879l-12.393693-20.656156a5.901759 5.901759 0 0 1 0-5.901759l12.393693-20.656155a6.491935 6.491935 0 0 1 5.311583-2.95088h24.787387a6.491935 6.491935 0 0 1 5.311583 2.95088l12.393693 20.656155a5.901759 5.901759 0 0 1 0 5.901759L647.565424 973.792322a6.491935 6.491935 0 0 1-5.311583 2.950879z m-24.787387-47.804246l-12.393693 20.656156 12.393693 20.656155h25.377563l12.393693-20.656155-12.393693-20.656156z m24.197211 41.312311h-24.197211l-12.393693-20.656155 12.393693-20.656156h24.197211l12.393693 20.656156z m-20.656156-5.901758h17.705277l8.852638-14.754397-8.852638-14.754397h-17.705277L612.154871 950.185287z" fill="#32B7FF" /><path d="M678.844745 994.448477h-24.787387a3.541055 3.541055 0 0 1-2.950879-1.770527l-12.393693-20.656156a2.950879 2.950879 0 0 1 0-2.950879l12.393693-20.656156a3.541055 3.541055 0 0 1 2.950879-1.770528h24.787387a3.541055 3.541055 0 0 1 2.95088 1.770528l12.393693 20.656156a2.950879 2.950879 0 0 1-1.180352 4.131231 3.541055 3.541055 0 0 1-4.721407-1.180352l-11.213341-18.885628h-20.656156l-10.623166 17.705276 10.623166 17.705277h22.426683a3.245967 3.245967 0 1 1 0 6.491934" fill="#32B7FF" /><path d="M678.844745 997.399357h-24.787387a6.491935 6.491935 0 0 1-5.311583-2.95088l-12.393693-20.656155a5.901759 5.901759 0 0 1 0-5.901759l12.393693-20.656156a6.491935 6.491935 0 0 1 5.311583-2.950879h24.787387a6.491935 6.491935 0 0 1 5.311583 2.950879l12.393694 20.656156a5.901759 5.901759 0 0 1 0.590175 4.721407 5.901759 5.901759 0 0 1-2.950879 3.541055 6.491935 6.491935 0 0 1-8.262462-2.360703l-10.623166-17.705277h-17.705276l-8.852639 14.754397 8.852639 14.754397h21.246331a6.196847 6.196847 0 1 1 0 12.393694z m-24.787387-47.804246l-12.393693 20.656155 12.393693 20.656156h0.590176l-12.393693-20.656156 12.393693-20.656155h24.197211l12.393694 20.656155-11.803518-20.656155z" fill="#32B7FF" /><path d="M605.662936 994.448477h-24.787386a3.245967 3.245967 0 1 1 0-6.491934h22.426683l10.623166-17.705277-10.623166-17.705276H582.646077l-11.213341 18.885628a3.541055 3.541055 0 0 1-4.721407 1.180352 2.950879 2.950879 0 0 1-1.180352-4.131231l12.393693-20.656156a3.541055 3.541055 0 0 1 2.95088-1.770528h24.787386a3.541055 3.541055 0 0 1 2.95088 1.770528l12.393693 20.656156a2.950879 2.950879 0 0 1 0 2.950879l-12.393693 20.656156a3.541055 3.541055 0 0 1-2.95088 1.770528" fill="#32B7FF" /><path d="M605.662936 997.399357h-24.787386a6.196847 6.196847 0 1 1 0-12.393694h21.246331l8.852638-14.754397-8.852638-14.754396h-17.705276l-10.623166 17.705276a6.491935 6.491935 0 0 1-8.262462 2.360703 5.901759 5.901759 0 0 1-2.95088-3.541055 5.901759 5.901759 0 0 1 0.590176-4.721407l12.393694-20.656156a6.491935 6.491935 0 0 1 5.311583-2.950879h24.787386a6.491935 6.491935 0 0 1 5.311583 2.950879l12.393694 20.656156a5.901759 5.901759 0 0 1 0 5.901759l-12.393694 20.656156a6.491935 6.491935 0 0 1-5.311583 3.541055z m-24.787386-6.491935h24.787386l12.393694-20.656156-12.393694-20.656155h-24.787386l-12.393694 20.656155 12.98387-20.065979h24.19721l12.393694 20.656155-12.393694 20.656156z" fill="#32B7FF" /><path d="M642.253841 1015.104633h-1.770528a2.950879 2.950879 0 0 1-1.180352-4.131231l11.213342-18.885628-10.623166-17.705276h-20.656155l-10.623166 17.705276 11.213342 18.885628a2.950879 2.950879 0 0 1-1.180352 4.131231 3.541055 3.541055 0 0 1-4.721407-1.180352l-12.393694-20.656155a2.950879 2.950879 0 0 1 0-2.95088l12.393694-20.656155a3.541055 3.541055 0 0 1 2.950879-1.770528h24.787387a3.541055 3.541055 0 0 1 2.950879 1.770528l12.393694 20.656155a2.950879 2.950879 0 0 1 0 2.95088l-12.393694 20.656155a3.541055 3.541055 0 0 1-2.950879 1.770528" fill="#32B7FF" /><path d="M642.253841 1018.055512h-2.95088a5.901759 5.901759 0 0 1-2.950879-3.541055 5.901759 5.901759 0 0 1 0.590176-4.721407l10.623166-17.705276-8.852638-14.754397h-17.705277L612.154871 991.497598l10.623166 17.705276a5.901759 5.901759 0 0 1 0.590176 4.721407 5.901759 5.901759 0 0 1-2.95088 3.541056 6.491935 6.491935 0 0 1-8.262462-2.360704l-12.393693-20.656156a5.901759 5.901759 0 0 1 0-5.901758l12.393693-20.656156a6.491935 6.491935 0 0 1 5.311583-2.950879h24.787387a6.491935 6.491935 0 0 1 5.311583 2.950879l12.393693 20.656156a5.901759 5.901759 0 0 1 0 5.901758L647.565424 1015.104633a6.491935 6.491935 0 0 1-5.311583 2.950879z m-24.197211-47.21407h23.607035l12.393693 20.656156-12.393693 20.656156h0.590176l12.393693-20.656156-12.393693-20.656156h-24.787387l-12.393693 20.656156 12.393693 20.656156-11.803518-20.656156z" fill="#32B7FF" /><path d="M678.844745 953.136166h-24.787387a3.541055 3.541055 0 0 1-2.950879-1.770528l-12.393693-20.656155a2.950879 2.950879 0 0 1 0-2.95088l12.393693-20.656155a3.541055 3.541055 0 0 1 2.950879-1.770528h24.787387a3.245967 3.245967 0 1 1 0 6.491935h-22.426683l-10.623166 17.705276 10.623166 17.705276h20.656156l11.213341-18.885628a3.541055 3.541055 0 0 1 4.721407-1.180352 2.950879 2.950879 0 0 1 1.180352 4.131232l-12.393693 20.656155a3.541055 3.541055 0 0 1-2.95088 1.770528" fill="#32B7FF" /><path d="M678.844745 956.087045h-24.787387a6.491935 6.491935 0 0 1-5.311583-2.950879l-12.393693-20.656156a5.901759 5.901759 0 0 1 0-5.901758l12.393693-20.656156a6.491935 6.491935 0 0 1 5.311583-2.95088h24.787387a6.196847 6.196847 0 1 1 0 12.393694h-21.246331l-8.852639 14.754397 8.852639 14.754397h17.705276l10.623166-17.705277a6.491935 6.491935 0 0 1 8.262462-2.360703 5.901759 5.901759 0 0 1 2.950879 3.541055 5.901759 5.901759 0 0 1-0.590175 4.721407l-12.393694 20.656156a6.491935 6.491935 0 0 1-5.311583 2.360703z m-24.787387-47.804246l-12.393693 20.656156 12.393693 20.656156h25.377563l12.393694-20.656156-12.98387 20.06598h-24.197211l-12.393693-20.656156 12.393693-20.656156z" fill="#32B7FF" /><path d="M642.253841 933.070186H618.05663a3.541055 3.541055 0 0 1-2.95088-1.770527l-12.393693-20.656156a2.950879 2.950879 0 0 1 0-2.95088l12.393693-20.656155a3.541055 3.541055 0 0 1 4.721408-1.180352 2.950879 2.950879 0 0 1 1.180351 4.131231l-11.213341 18.885628 10.623165 17.705277h20.656156l10.623166-17.705277-11.213342-18.885628a2.950879 2.950879 0 0 1 1.180352-4.131231 3.541055 3.541055 0 0 1 4.721407 1.180352l12.393693 20.656155a2.950879 2.950879 0 0 1 0 2.95088l-12.393693 20.656156a3.541055 3.541055 0 0 1-2.950879 1.770527" fill="#32B7FF" /><path d="M642.253841 936.021066H618.05663a6.491935 6.491935 0 0 1-5.311583-2.95088l-12.393693-20.656155a5.901759 5.901759 0 0 1 0-5.901759l11.803517-21.246332a6.491935 6.491935 0 0 1 8.262462-2.360703 5.901759 5.901759 0 0 1 2.95088 3.541055 5.901759 5.901759 0 0 1-0.590176 4.721407l-10.623166 17.705276 8.852638 14.754397h17.705277l8.852638-14.754397-10.623166-17.705276a5.901759 5.901759 0 0 1-0.590176-4.721407 5.901759 5.901759 0 0 1 2.950879-3.541055 6.491935 6.491935 0 0 1 8.262463 2.360703l12.393693 20.656156a5.901759 5.901759 0 0 1 0 5.901759L647.565424 932.48001a6.491935 6.491935 0 0 1-5.311583 3.541056z m-24.197211-47.214071l-12.983869 20.656156 12.393693 20.656156h25.377563l12.393693-20.656156-12.393693-20.656156 11.803517 20.656156-12.393693 20.656156H618.05663l-12.393694-20.656156z" fill="#32B7FF" /><path d="M605.072761 953.136166h-24.197211a3.541055 3.541055 0 0 1-2.95088-1.770528l-12.393693-20.656155a2.950879 2.950879 0 0 1 1.180352-4.131231 3.541055 3.541055 0 0 1 4.721407 1.180351l11.213341 18.885628h20.656156l10.623166-17.705276-10.623166-17.705276h-22.426683a3.245967 3.245967 0 1 1 0-6.491935h24.787386a3.541055 3.541055 0 0 1 2.95088 1.770528l12.393693 20.656155a2.950879 2.950879 0 0 1 0 2.95088l-12.393693 20.656156a3.541055 3.541055 0 0 1-2.95088 1.770527" fill="#32B7FF" /><path d="M605.072761 956.087045h-24.197211a6.491935 6.491935 0 0 1-5.311583-2.950879l-12.393694-20.656156a5.901759 5.901759 0 0 1-0.590176-4.721407 5.901759 5.901759 0 0 1 2.95088-3.541055 6.491935 6.491935 0 0 1 8.262462 2.360704l10.623166 17.705276h17.705276l8.852638-14.754397-8.852638-14.754397h-21.246331a6.196847 6.196847 0 1 1 0-12.393693h24.787386a6.491935 6.491935 0 0 1 5.311583 2.950879l12.393694 20.656156a5.901759 5.901759 0 0 1 0 5.901758l-12.393694 20.656156a6.491935 6.491935 0 0 1-5.901758 3.541055z m-36.590905-26.557914l11.803518 20.656156h25.377562l12.393694-20.656156-12.393694-20.656156h-0.590175l12.393693 20.656156-12.393693 20.656156h-24.197211z" fill="#32B7FF" /><path d="M636.352082 979.69408h-24.787387a3.541055 3.541055 0 0 1-2.950879-1.770527l-12.393694-20.656156a2.950879 2.950879 0 0 1 0-2.950879l12.393694-20.656156a3.541055 3.541055 0 0 1 2.950879-1.770528h24.787387a3.541055 3.541055 0 0 1 2.950879 1.770528l12.393694 20.656156a2.950879 2.950879 0 0 1 0 2.950879l-12.393694 20.656156a3.541055 3.541055 0 0 1-2.950879 1.770527z m-22.426683-6.491934h20.656155l10.623166-17.705276-10.623166-17.705277h-20.656155l-10.623166 17.705277 10.623166 17.705276z"  /><path d="M636.352082 982.64496h-24.787387a6.491935 6.491935 0 0 1-5.311583-2.95088l-12.393693-20.656155a5.901759 5.901759 0 0 1 0-5.901759l12.393693-20.656156a6.491935 6.491935 0 0 1 5.311583-2.950879h24.787387a6.491935 6.491935 0 0 1 5.311583 2.950879l12.393693 20.656156a5.901759 5.901759 0 0 1 0 5.901759L641.663665 979.69408a6.491935 6.491935 0 0 1-5.311583 2.95088z m-24.787387-47.804246l-12.393693 20.656156 12.393693 20.656155h25.377563l12.393693-20.656155-12.393693-20.656156z m24.197211 41.312311h-24.197211l-12.393693-20.656155 12.393693-20.656156h24.197211l12.393694 20.656156z m-20.656156-5.901759h17.705277l8.852638-14.754396-8.852638-14.754397h-17.705277L606.253112 956.087045z"  /><path d="M672.942986 1000.350236h-24.787386a3.541055 3.541055 0 0 1-2.95088-1.770527l-12.393693-20.656156a2.950879 2.950879 0 0 1 0-2.95088l12.393693-20.656155a3.541055 3.541055 0 0 1 2.95088-1.770528h24.787386a3.541055 3.541055 0 0 1 2.95088 1.770528l12.393693 20.656155a2.950879 2.950879 0 0 1-1.180352 4.131232 3.541055 3.541055 0 0 1-4.721407-1.180352l-11.213341-18.885628h-20.656156l-10.623166 17.705276 10.623166 17.705276h22.426683a3.245967 3.245967 0 1 1 0 6.491935"  /><path d="M672.942986 1003.301116h-24.787386a6.491935 6.491935 0 0 1-5.311583-2.95088l-12.393694-20.656156a5.901759 5.901759 0 0 1 0-5.901758l12.393694-20.656156a6.491935 6.491935 0 0 1 5.311583-2.950879h24.787386a6.491935 6.491935 0 0 1 5.311583 2.950879l12.393694 20.656156a5.901759 5.901759 0 0 1 0.590176 4.721407 5.901759 5.901759 0 0 1-2.95088 3.541055 6.491935 6.491935 0 0 1-8.262462-2.360704l-10.623166-17.705276h-17.705276l-8.852638 14.754397 8.852638 14.754397h21.246331a6.196847 6.196847 0 1 1 0 12.393693z m-24.787386-47.804246l-12.393694 20.656155 12.393694 20.656156h0.590175l-12.393693-20.656156 12.393693-20.656155h24.197211l12.393694 20.656155-11.803518-20.656155z"  /><path d="M599.761178 1000.350236h-24.787387a3.245967 3.245967 0 1 1 0-6.491934h22.426683l10.623166-17.705277-10.623166-17.705276H576.744318l-11.213341 18.885628a3.541055 3.541055 0 0 1-4.721407 1.180352 2.950879 2.950879 0 0 1-1.180352-4.131231l12.393693-20.656156a3.541055 3.541055 0 0 1 2.95088-1.770528h24.787387a3.541055 3.541055 0 0 1 2.950879 1.770528l12.393693 20.656156a2.950879 2.950879 0 0 1 0 2.950879l-12.393693 20.656156a3.541055 3.541055 0 0 1-2.950879 1.770527"  /><path d="M599.761178 1003.301116h-24.787387a6.196847 6.196847 0 1 1 0-12.393694h21.246331l8.852639-14.754397-8.852639-14.754397h-17.705276l-10.623166 17.705277a6.491935 6.491935 0 0 1-8.262462 2.360703 5.901759 5.901759 0 0 1-2.950879-3.541055 5.901759 5.901759 0 0 1 0.590176-4.721407l12.393693-20.656156a6.491935 6.491935 0 0 1 5.311583-2.950879h24.787387a6.491935 6.491935 0 0 1 5.311583 2.950879l12.393693 20.656156a5.901759 5.901759 0 0 1 0 5.901759l-12.393693 20.656155a6.491935 6.491935 0 0 1-5.311583 3.541056z m-24.787387-6.491935h24.787387l12.393693-20.656156-12.393693-20.656155h-24.787387l-12.393694 20.656155 12.98387-20.06598h24.197211l12.393693 20.656156-12.393693 20.656156z"  /><path d="M636.352082 1021.006392h-1.770528a2.950879 2.950879 0 0 1-1.180351-4.131231l11.213341-18.885628-10.623165-17.705277h-20.656156l-10.623166 17.705277 11.213342 18.885628a2.950879 2.950879 0 0 1-1.180352 4.131231 3.541055 3.541055 0 0 1-4.721407-1.180352l-12.393693-20.656156a2.950879 2.950879 0 0 1 0-2.950879l12.393693-20.656156a3.541055 3.541055 0 0 1 2.950879-1.770527h24.787387a3.541055 3.541055 0 0 1 2.95088 1.770527l12.393693 20.656156a2.950879 2.950879 0 0 1 0 2.950879l-12.393693 20.656156a3.541055 3.541055 0 0 1-2.95088 1.770528"  /><path d="M636.352082 1023.957271h-2.950879a5.901759 5.901759 0 0 1-2.95088-3.541055 5.901759 5.901759 0 0 1 0.590176-4.721407l10.623166-17.705276-8.852638-14.754397h-17.705277L606.253112 997.399357l10.623166 17.705276a5.901759 5.901759 0 0 1 0.590176 4.721407 5.901759 5.901759 0 0 1-2.950879 3.541055 6.491935 6.491935 0 0 1-8.262463-2.360703l-12.393693-20.656156a5.901759 5.901759 0 0 1 0-5.901759l12.393693-20.656155a6.491935 6.491935 0 0 1 5.311583-2.95088h24.787387a6.491935 6.491935 0 0 1 5.311583 2.95088l12.393693 20.656155a5.901759 5.901759 0 0 1 0 5.901759L641.663665 1021.006392a6.491935 6.491935 0 0 1-5.311583 2.950879z m-24.197211-47.21407h23.607035l12.393694 20.656156-12.393694 20.656155h0.590176l12.393693-20.656155-12.393693-20.656156h-24.787387l-12.393693 20.656156 12.393693 20.656155-11.803517-20.656155z"  /><path d="M672.942986 959.037925h-24.787386a3.541055 3.541055 0 0 1-2.95088-1.770528l-12.393693-20.656156a2.950879 2.950879 0 0 1 0-2.950879l12.393693-20.656156a3.541055 3.541055 0 0 1 2.95088-1.770527h24.787386a3.245967 3.245967 0 1 1 0 6.491934h-22.426683l-10.623166 17.705277 10.623166 17.705276h20.656156l11.213341-18.885628a3.541055 3.541055 0 0 1 4.721407-1.180352 2.950879 2.950879 0 0 1 1.180352 4.131231l-12.393693 20.656156a3.541055 3.541055 0 0 1-2.95088 1.770528"  /><path d="M672.942986 961.988804h-24.787386a6.491935 6.491935 0 0 1-5.311583-2.950879l-12.393694-20.656156a5.901759 5.901759 0 0 1 0-5.901759l12.393694-20.656155a6.491935 6.491935 0 0 1 5.311583-2.95088h24.787386a6.196847 6.196847 0 1 1 0 12.393694h-21.246331l-8.852638 14.754397 8.852638 14.754397h17.705276l10.623166-17.705277a6.491935 6.491935 0 0 1 8.262462-2.360703 5.901759 5.901759 0 0 1 2.95088 3.541055 5.901759 5.901759 0 0 1-0.590176 4.721407l-12.393694 20.656156a6.491935 6.491935 0 0 1-5.311583 2.360703z m-24.787386-47.804246l-12.393694 20.656156 12.393694 20.656156h25.377562l12.393694-20.656156-12.98387 20.06598h-24.197211l-12.393693-20.656156 12.393693-20.656156z"  /><path d="M636.352082 938.971945H612.154871a3.541055 3.541055 0 0 1-2.950879-1.770528l-12.393694-20.656155a2.950879 2.950879 0 0 1 0-2.95088l12.393694-20.656155a3.541055 3.541055 0 0 1 4.721407-1.180352 2.950879 2.950879 0 0 1 1.180351 4.131231l-11.213341 18.885628 10.623166 17.705276h20.656155l10.623166-17.705276-11.213342-18.885628a2.950879 2.950879 0 0 1 1.180352-4.131231 3.541055 3.541055 0 0 1 4.721407 1.180352l12.393694 20.656155a2.950879 2.950879 0 0 1 0 2.95088l-12.393694 20.656155a3.541055 3.541055 0 0 1-2.950879 1.770528"  /><path d="M636.352082 941.922824H612.154871a6.491935 6.491935 0 0 1-5.311583-2.950879l-12.393693-20.656156a5.901759 5.901759 0 0 1 0-5.901758l11.803517-21.246332a6.491935 6.491935 0 0 1 8.262463-2.360704 5.901759 5.901759 0 0 1 2.950879 3.541056 5.901759 5.901759 0 0 1-0.590176 4.721407l-10.623166 17.705276 8.852638 14.754397h17.705277l8.852638-14.754397-10.623166-17.705276a5.901759 5.901759 0 0 1-0.590176-4.721407 5.901759 5.901759 0 0 1 2.95088-3.541056 6.491935 6.491935 0 0 1 8.262462 2.360704l12.393693 20.656156a5.901759 5.901759 0 0 1 0 5.901758L641.663665 938.381769a6.491935 6.491935 0 0 1-5.311583 3.541055z m-24.197211-47.21407l-12.983869 20.656156 12.393693 20.656156h25.377563l12.393693-20.656156-12.393693-20.656156 11.803517 20.656156-12.393693 20.656156H612.154871l-12.393693-20.656156z"  /><path d="M599.171002 959.037925h-24.197211a3.541055 3.541055 0 0 1-2.95088-1.770528l-12.393693-20.656156a2.950879 2.950879 0 0 1 1.180352-4.131231 3.541055 3.541055 0 0 1 4.721407 1.180352l11.213341 18.885628h20.656156l10.623166-17.705276-10.623166-17.705276h-22.426683a3.245967 3.245967 0 1 1 0-6.491935h24.787387a3.541055 3.541055 0 0 1 2.950879 1.770528l12.393693 20.656155a2.950879 2.950879 0 0 1 0 2.95088l-12.393693 20.656155a3.541055 3.541055 0 0 1-2.950879 1.770528"  /><path d="M599.171002 961.988804h-24.197211a6.491935 6.491935 0 0 1-5.311583-2.950879l-12.393693-20.656156a5.901759 5.901759 0 0 1-0.590176-4.721407 5.901759 5.901759 0 0 1 2.950879-3.541055 6.491935 6.491935 0 0 1 8.262462 2.360703l10.623166 17.705277h17.705276l8.852639-14.754397-8.852639-14.754397h-21.246331a6.196847 6.196847 0 1 1 0-12.393694h24.787387a6.491935 6.491935 0 0 1 5.311583 2.95088l12.393693 20.656155a5.901759 5.901759 0 0 1 0 5.901759l-12.393693 20.656156a6.491935 6.491935 0 0 1-5.901759 3.541055z m-36.590905-26.557914l11.803518 20.656155h25.377563l12.393693-20.656155-12.393693-20.656156h-0.590176l12.393693 20.656156-12.393693 20.656155h-24.197211z"  /></svg>